<?xml version="1.0" standalone="no"?>
<!DOCTYPE svg PUBLIC "-//W3C//DTD SVG 1.1//EN" "http://www.w3.org/Graphics/SVG/1.1/DTD/svg11.dtd" >
<svg xmlns="http://www.w3.org/2000/svg" xmlns:xlink="http://www.w3.org/1999/xlink" version="1.1">
<metadata></metadata>
<defs>
<font id="garden_growncaps" horiz-adv-x="894" >
<font-face units-per-em="2048" ascent="1638" descent="-410" />
<missing-glyph horiz-adv-x="385" />
<glyph unicode="&#xfb01;" horiz-adv-x="1101" d="M-10 84q-2 59 2 119.5t6 120.5v84q0 20 1 39.5t1 39.5q2 35 1 70t-5 70q-2 20 -1 40.5t1 41.5q0 53 1 108t-3 109v42t-2 40q0 72 6 143q4 23 3 42t3 42q4 16 4 31.5t4 31.5q2 6 2 13.5v13.5q0 4 -3 9t1 9q8 14 19 19q25 12 49 12q16 2 31.5 2t29.5 -4q23 -4 42.5 -4 t39.5 2q39 2 76 5t74 3h49t49 -2q16 -4 29 0q29 8 63 -2q12 -4 24.5 -7t24.5 -3q16 0 25.5 -11.5t9.5 -23.5q-2 -14 -16.5 -26.5t-30.5 -8.5q-25 2 -45 -2q-6 -4 -16 0q-16 4 -34 3t-34 -3h-72q-25 0 -48 -3t-48 -5q-12 0 -25.5 -1t-27.5 -5q-18 -4 -17 -18q0 -4 -1 -5.5 t-1 -5.5v-86h5v-291l10 -6v-10q20 -2 40.5 -3t41.5 3q12 4 25.5 1t25.5 -5q8 0 27.5 -1t41 -1h41h27.5q29 0 37 -23q10 -23 -12 -43q-27 -23 -64 -10q-6 2 -25.5 3t-41 1h-40t-26.5 -2q-25 -4 -49.5 -5t-48.5 -1v-33q2 -29 -3 -57.5t-5 -56.5q0 -25 -2.5 -49.5t0.5 -49.5 q0 -41 2 -79.5t-5 -79.5v-11q6 -35 0 -69.5t-6 -69.5q-2 -37 -5 -75t-3 -74q-2 -23 -5 -46.5t-19 -44.5q-2 -2 -2 -4t-3 -2q10 -16 3 -26.5t-17 -14.5q-16 -10 -30.5 -19t-30.5 -13q-12 -4 -23.5 -5.5t-21.5 -9.5q-4 -2 -13 -2q-31 6 -49 25q-14 14 -14 28q-4 39 -3 77 t-1 75zM719 1352q-6 20 12 28q20 8 40 7t42 -5q27 -6 45.5 -21t34.5 -32q12 -14 18.5 -31.5t10.5 -35.5q2 -31 0 -64q-6 -27 2 -61q4 -23 2 -44.5t2 -43.5q4 -29 2 -60t6 -59q4 -10 0 -21q-4 -25 0 -49q6 -23 4 -45t2 -45v-76q6 -16 7 -30.5t3 -30.5q2 -23 3 -43.5t6 -40.5 q2 -20 3 -40t5 -40q2 -12 3 -35.5t2 -49.5t2 -49.5t1 -35.5q-2 -25 -3 -49.5t-1 -48.5q0 -23 -1 -46.5t-1 -45.5l-4 -33q-8 -37 -6 -76q4 -29 3 -56.5t-8 -56.5q-4 -10 -8 -16t-8 -14q-6 -10 -15.5 -17.5t-11.5 -19.5q0 -4 -4 -4q-16 2 -26 -9q-8 4 -17.5 0t-19.5 7 q-6 6 -14.5 9t-18.5 7q-27 8 -33 43q-10 51 -10 101.5t-4 101.5q-4 29 -6 57.5t-6 56.5q-2 8 -2 16.5v16.5q0 18 -1 48t-1 60.5t-1 60.5t-1 48q-2 66 -4.5 128.5t-6.5 127.5l-10 226q-4 72 -2 141.5t0 140.5q0 29 -1 58.5t-1 60.5q0 8 -1 14t-3 15z" />
<glyph unicode="&#xfb02;" horiz-adv-x="1363" d="M-8 707q-4 68 0 135q4 70 2 139.5t2 138.5l10 189q0 14 17 20q55 23 108 10q25 -4 49 0q35 4 71 3t71 1q33 2 64.5 1t64.5 4q14 2 28.5 1t28.5 -3q33 0 64.5 -1.5t64.5 -1.5q23 0 43 -4t37 -18q4 -4 10 -9t2 -14q-4 -12 -24 -16q-43 -4 -84 -7t-82 -13q-45 -10 -89 -11.5 t-90 -7.5q-29 -4 -58 -4t-60 2q2 -29 -1 -52.5t-8 -47.5q-2 -4 -1 -9.5t1 -9.5q6 -49 7 -98q-2 -23 2 -43t6 -41q2 -10 12 -6q45 2 89 3t89 7q16 2 33.5 3t34.5 1q20 0 36.5 -9t32.5 -19q12 -6 3 -23q-14 -16 -43 -20q-18 0 -36 -4.5t-34 -10.5q-14 -4 -28.5 -5t-28.5 -1 q-35 0 -69 -6t-69 -10q-14 0 -17 -4.5t-3 -16.5q-2 -23 -1 -46t-3 -46q-4 -49 -5 -97t-5 -95q0 -29 3 -55.5t3 -55.5v-68.5t-2 -68.5q-2 -41 -1 -80t-1 -80q-2 -23 -5.5 -46.5t-7.5 -45.5q0 -8 1 -14.5t5 -14.5q8 -14 -6 -26q-10 -8 -12 -16.5t0 -18.5q2 -27 -23 -33 q-10 -4 -16 -2t-14 6q-16 8 -27 10q-14 4 -22 -4q-16 -10 -31 0l-45 23q-12 6 -15 14q-25 63 -16 123q2 20 3 39.5t-1 40.5v90q2 49 1 99t-5 102q-2 23 -1 47t-1 47zM768 702q0 47 2 92.5t2 92.5q-2 27 -2 52.5t4 49.5l8 117q2 47 6.5 91t8.5 89q0 10 1 17.5t-3 15.5 q-4 10 8 16q66 23 143 6q20 -6 35 -24q23 -23 31 -48.5t12 -51.5q4 -16 2 -34t-4 -34q-4 -31 -5 -60.5t1 -62.5q2 -23 2 -43t-6 -43q-2 -6 -2 -18q4 -35 3 -71t-3 -71v-10q0 -27 1 -52.5t-1 -49.5q-2 -23 -1 -42.5t1 -41.5q2 -25 0 -48.5t-4 -48.5q-4 -12 0 -24 q4 -27 -2 -49q-4 -12 0 -25q2 -23 2 -53.5t-2 -64t-4.5 -65.5t-6.5 -52q-12 -74 -18 -140q0 -10 -4 -22q0 -12 2 -15.5t16 -3.5q66 4 131.5 -3t130.5 -15l41 -6q29 -6 45 -35q10 -20 -8 -27q-23 -8 -45 -18t-49 -6q-12 4 -24.5 3t-24.5 -1v-2h-18.5t-18.5 2q-41 4 -101.5 -1 t-101.5 -11q-23 -4 -43 -2t-43 6q-18 0 -37 18q-6 8 -14 15.5t-12 17.5q0 4 -2 4q-16 10 -17.5 23.5t-3.5 27.5q-2 16 -1 30.5t-1 31.5q-4 25 -3 48t3 46q0 25 -1 49.5t1 48.5v43v54.5t1 53t1 42.5q0 10 -2 14q-2 70 -4 138.5t-2 139.5z" />
<glyph unicode="&#xfb03;" horiz-adv-x="1845" d="M-10 84q-2 59 2 119.5t6 120.5v84q0 20 1 39.5t1 39.5q2 35 1 70t-5 70q-2 20 -1 40.5t1 41.5q0 53 1 108t-3 109v42t-2 40q0 72 6 143q4 23 3 42t3 42q4 16 4 31.5t4 31.5q2 6 2 13.5v13.5q0 4 -3 9t1 9q8 14 19 19q25 12 49 12q16 2 31.5 2t29.5 -4q23 -4 42.5 -4 t39.5 2q39 2 76 5t74 3h49t49 -2q16 -4 29 0q29 8 63 -2q12 -4 24.5 -7t24.5 -3q16 0 25.5 -11.5t9.5 -23.5q-2 -14 -16.5 -26.5t-30.5 -8.5q-25 2 -45 -2q-6 -4 -16 0q-16 4 -34 3t-34 -3h-72q-25 0 -48 -3t-48 -5q-12 0 -25.5 -1t-27.5 -5q-18 -4 -17 -18q0 -4 -1 -5.5 t-1 -5.5v-86h5v-291l10 -6v-10q20 -2 40.5 -3t41.5 3q12 4 25.5 1t25.5 -5q8 0 27.5 -1t41 -1h41h27.5q29 0 37 -23q10 -23 -12 -43q-27 -23 -64 -10q-6 2 -25.5 3t-41 1h-40t-26.5 -2q-25 -4 -49.5 -5t-48.5 -1v-33q2 -29 -3 -57.5t-5 -56.5q0 -25 -2.5 -49.5t0.5 -49.5 q0 -41 2 -79.5t-5 -79.5v-11q6 -35 0 -69.5t-6 -69.5q-2 -37 -5 -75t-3 -74q-2 -23 -5 -46.5t-19 -44.5q-2 -2 -2 -4t-3 -2q10 -16 3 -26.5t-17 -14.5q-16 -10 -30.5 -19t-30.5 -13q-12 -4 -23.5 -5.5t-21.5 -9.5q-4 -2 -13 -2q-31 6 -49 25q-14 14 -14 28q-4 39 -3 77 t-1 75zM709 84q-2 59 2 119.5t6 120.5v84q0 20 1 39.5t1 39.5q2 35 1 70t-5 70q-2 20 -1 40.5t1 41.5q0 53 1 108t-3 109v42t-2 40q0 72 6 143q4 23 3 42t3 42q4 16 4 31.5t4 31.5q2 6 2 13.5v13.5q0 4 -3 9t1 9q8 14 19 19q25 12 49 12q16 2 31.5 2t29.5 -4q23 -4 42.5 -4 t39.5 2q39 2 76 5t74 3h49t49 -2q16 -4 29 0q29 8 63 -2q12 -4 24.5 -7t24.5 -3q16 0 25.5 -11.5t9.5 -23.5q-2 -14 -16.5 -26.5t-30.5 -8.5q-25 2 -45 -2q-6 -4 -17 0q-16 4 -33.5 3t-33.5 -3h-72q-25 0 -48 -3t-48 -5q-12 0 -25.5 -1t-27.5 -5q-18 -4 -17 -18 q0 -4 -1 -5.5t-1 -5.5v-86h4v-291l11 -6v-10q20 -2 40.5 -3t41.5 3q12 4 25 1t26 -5q8 0 27.5 -1t41 -1h41h27.5q29 0 37 -23q10 -23 -12 -43q-27 -23 -64 -10q-6 2 -25.5 3t-41 1h-40t-26.5 -2q-25 -4 -49.5 -5t-48.5 -1v-33q2 -29 -3.5 -57.5t-5.5 -56.5q0 -25 -2 -49.5 t0 -49.5q0 -41 2 -79.5t-4 -79.5v-11q6 -35 0 -69.5t-6 -69.5q-2 -37 -5 -75t-3 -74q-2 -23 -5 -46.5t-20 -44.5q-2 -2 -2 -4t-2 -2q10 -16 3 -26.5t-17 -14.5q-16 -10 -30.5 -19t-30.5 -13q-12 -4 -23.5 -5.5t-22.5 -9.5q-4 -2 -12 -2q-31 6 -49 25q-14 14 -14 28 q-4 39 -3 77t-1 75zM1464 1352q-6 20 13 28q20 8 39.5 7t42.5 -5q27 -6 45 -21t34 -32q12 -14 18.5 -31.5t10.5 -35.5q2 -31 0 -64q-6 -27 2 -61q4 -23 2 -44.5t2 -43.5q4 -29 2 -60t6 -59q4 -10 0 -21q-4 -25 0 -49q6 -23 4 -45t3 -45v-76q6 -16 7 -30.5t3 -30.5 q2 -23 3 -43.5t5 -40.5q2 -20 3 -40t5 -40q2 -12 3 -35.5t2 -49.5t2 -49.5t1 -35.5q-2 -25 -3 -49.5t-1 -48.5q0 -23 -1 -46.5t-1 -45.5l-4 -33q-8 -37 -6 -76q4 -29 3 -56.5t-7 -56.5q-4 -10 -8 -16t-8 -14q-6 -10 -15.5 -17.5t-11.5 -19.5q0 -4 -4 -4q-16 2 -27 -9 q-8 4 -17 0t-20 7q-6 6 -14 9t-18 7q-27 8 -33 43q-10 51 -10 101.5t-5 101.5q-4 29 -6 57.5t-6 56.5q-2 8 -2 16.5v16.5q0 18 -1 48t-1 60.5t-1 60.5t-1 48q-2 66 -4 128.5t-6 127.5l-10 226q-4 72 -2 141.5t-1 140.5q0 29 -1 58.5t-1 60.5q0 8 -1 14t-3 15z" />
<glyph unicode="&#xfb04;" horiz-adv-x="1994" d="M-10 84q-2 59 2 119.5t6 120.5v84q0 20 1 39.5t1 39.5q2 35 1 70t-5 70q-2 20 -1 40.5t1 41.5q0 53 1 108t-3 109v42t-2 40q0 72 6 143q4 23 3 42t3 42q4 16 4 31.5t4 31.5q2 6 2 13.5v13.5q0 4 -3 9t1 9q8 14 19 19q25 12 49 12q16 2 31.5 2t29.5 -4q23 -4 42.5 -4 t39.5 2q39 2 76 5t74 3h49t49 -2q16 -4 29 0q29 8 63 -2q12 -4 24.5 -7t24.5 -3q16 0 25.5 -11.5t9.5 -23.5q-2 -14 -16.5 -26.5t-30.5 -8.5q-25 2 -45 -2q-6 -4 -16 0q-16 4 -34 3t-34 -3h-72q-25 0 -48 -3t-48 -5q-12 0 -25.5 -1t-27.5 -5q-18 -4 -17 -18q0 -4 -1 -5.5 t-1 -5.5v-86h5v-291l10 -6v-10q20 -2 40.5 -3t41.5 3q12 4 25.5 1t25.5 -5q8 0 27.5 -1t41 -1h41h27.5q29 0 37 -23q10 -23 -12 -43q-27 -23 -64 -10q-6 2 -25.5 3t-41 1h-40t-26.5 -2q-25 -4 -49.5 -5t-48.5 -1v-33q2 -29 -3 -57.5t-5 -56.5q0 -25 -2.5 -49.5t0.5 -49.5 q0 -41 2 -79.5t-5 -79.5v-11q6 -35 0 -69.5t-6 -69.5q-2 -37 -5 -75t-3 -74q-2 -23 -5 -46.5t-19 -44.5q-2 -2 -2 -4t-3 -2q10 -16 3 -26.5t-17 -14.5q-16 -10 -30.5 -19t-30.5 -13q-12 -4 -23.5 -5.5t-21.5 -9.5q-4 -2 -13 -2q-31 6 -49 25q-14 14 -14 28q-4 39 -3 77 t-1 75zM709 84q-2 59 2 119.5t6 120.5v84q0 20 1 39.5t1 39.5q2 35 1 70t-5 70q-2 20 -1 40.5t1 41.5q0 53 1 108t-3 109v42t-2 40q0 72 6 143q4 23 3 42t3 42q4 16 4 31.5t4 31.5q2 6 2 13.5v13.5q0 4 -3 9t1 9q8 14 19 19q25 12 49 12q16 2 31.5 2t29.5 -4q23 -4 42.5 -4 t39.5 2q39 2 76 5t74 3h49t49 -2q16 -4 29 0q29 8 63 -2q12 -4 24.5 -7t24.5 -3q16 0 25.5 -11.5t9.5 -23.5q-2 -14 -16.5 -26.5t-30.5 -8.5q-25 2 -45 -2q-6 -4 -17 0q-16 4 -33.5 3t-33.5 -3h-72q-25 0 -48 -3t-48 -5q-12 0 -25.5 -1t-27.5 -5q-18 -4 -17 -18 q0 -4 -1 -5.5t-1 -5.5v-86h4v-291l11 -6v-10q20 -2 40.5 -3t41.5 3q12 4 25 1t26 -5q8 0 27.5 -1t41 -1h41h27.5q29 0 37 -23q10 -23 -12 -43q-27 -23 -64 -10q-6 2 -25.5 3t-41 1h-40t-26.5 -2q-25 -4 -49.5 -5t-48.5 -1v-33q2 -29 -3.5 -57.5t-5.5 -56.5q0 -25 -2 -49.5 t0 -49.5q0 -41 2 -79.5t-4 -79.5v-11q6 -35 0 -69.5t-6 -69.5q-2 -37 -5 -75t-3 -74q-2 -23 -5 -46.5t-20 -44.5q-2 -2 -2 -4t-2 -2q10 -16 3 -26.5t-17 -14.5q-16 -10 -30.5 -19t-30.5 -13q-12 -4 -23.5 -5.5t-22.5 -9.5q-4 -2 -12 -2q-31 6 -49 25q-14 14 -14 28 q-4 39 -3 77t-1 75zM1395 702q0 47 2 92.5t2 92.5q-2 27 -2 52.5t4 49.5l8 117q2 47 6 91t8 89q0 10 1 17.5t-3 15.5q-4 10 9 16q66 23 143 6q20 -6 35 -24q23 -23 31 -48.5t12 -51.5q4 -16 2 -34t-4 -34q-4 -31 -5.5 -60.5t1.5 -62.5q2 -23 2 -43t-7 -43q-2 -6 -2 -18 q4 -35 3 -71t-3 -71v-10q0 -27 1 -52.5t-1 -49.5q-2 -23 -1 -42.5t1 -41.5q2 -25 0 -48.5t-4 -48.5q-4 -12 0 -24q4 -27 -2 -49q-4 -12 0 -25q2 -23 2 -53.5t-2 -64t-4 -65.5t-6 -52q-12 -74 -18 -140q0 -10 -5 -22q0 -12 2.5 -15.5t16.5 -3.5q66 4 131.5 -3t130.5 -15 l41 -6q29 -6 45 -35q10 -20 -8 -27q-23 -8 -45.5 -18t-48.5 -6q-12 4 -24.5 3t-24.5 -1v-2h-18.5t-18.5 2q-41 4 -101.5 -1t-101.5 -11q-23 -4 -43.5 -2t-42.5 6q-18 0 -37 18q-6 8 -14 15.5t-13 17.5q0 4 -2 4q-16 10 -17 23.5t-3 27.5q-2 16 -1 30.5t-1 31.5q-4 25 -3 48 t3 46q0 25 -1 49.5t1 48.5v43v54.5t1 53t1 42.5q0 10 -2 14q-2 70 -4 138.5t-2 139.5z" />
<glyph horiz-adv-x="0" />
<glyph unicode="&#xd;" horiz-adv-x="385" />
<glyph horiz-adv-x="0" />
<glyph horiz-adv-x="0" />
<glyph unicode=" "  horiz-adv-x="385" />
<glyph unicode="&#x09;" horiz-adv-x="385" />
<glyph unicode="&#xa0;" horiz-adv-x="385" />
<glyph unicode="!" horiz-adv-x="305" d="M45 -90q-4 41 22.5 68.5t73.5 13.5q10 -4 21.5 -6t21.5 -13q19 -14 19 -32q0 -10 3 -18.5t3 -18.5q-2 -25 -16.5 -44.5t-49.5 -21.5q-33 -2 -63.5 19.5t-34.5 52.5zM51 414q0 33 3 64.5t3 64.5q-2 35 -1 71.5t1 71.5q2 29 0 54.5t-2 54.5q0 63 -1 125.5t3 128.5 q4 53 5 108t8 111q2 23 3 46t5 46q2 29 33 31q51 0 98 -37q8 -8 11 -16.5t7 -18.5q4 -23 8.5 -43.5t4.5 -42.5q2 -29 5 -59.5t-1 -59.5l-4 -84q-2 -10 -1 -20.5t1 -20.5q2 -29 2 -55.5t-6 -52.5q-6 -35 -4.5 -68t-2.5 -68q-6 -80 4.5 -159.5t-0.5 -159.5q-2 -20 -1 -59 t-9 -62q-4 -6 -1 -13t1 -16q-6 -33 -12 -63.5t-14 -60.5q-4 -14 -12.5 -9.5t-24.5 -1.5l-4 -4q-8 -10 -11.5 -12t-15.5 4l-49 31q-16 8 -12 24q4 0 0 4q-16 16 -12.5 35t-0.5 35v23q4 33 -1 65.5t-3 67.5z" />
<glyph unicode="&#x22;" horiz-adv-x="350" d="M-4 1182.5q2 25.5 6 52.5q4 37 7 74t14 73q4 18 13 34t19 32q8 16 29 2q25 -14 37 -29q6 -10 10 -28q2 -47 -5 -91.5t-20 -89.5q-6 -20 -9 -40.5t-7 -41.5q-2 -8 -4 -14t-12 -10q-4 0 -8.5 -4t-8.5 -8q-26 -27 -51 4q-8 14 -8 30q-4 29 -2 54.5zM170 1158.5 q2 25.5 6 51.5q4 23 6 43.5t6 40.5q2 23 7.5 43.5t11.5 42.5q4 16 13 26.5t18 23.5q4 6 18 6q29 -4 46 -25.5t15 -50.5q-4 -66 -24 -127q-8 -29 -16.5 -54.5t-14.5 -54.5q-4 -16 -12 -22l-19 -23l-10 -15t-14 -5q-12 4 -23.5 12t-9.5 27q0 2 -1 4t-1 4q-4 27 -2 52.5z" />
<glyph unicode="#" horiz-adv-x="1390" d="M-14 315.5q4 12.5 22 18.5q39 12 78 15t80 -1q20 0 29.5 -2t13.5 1t7 11.5t9 28.5q18 59 44 116.5t46 117.5q10 27 18.5 52t16.5 54q6 16 -10 16q-12 2 -23.5 2h-23.5q-25 2 -48.5 4.5t-47.5 6.5q-10 2 -19.5 7t-19.5 11q-20 12 -15 35q4 20 25 20q4 2 7 2t5 3 q29 18 58.5 17t60.5 -5q18 -2 36.5 -1t35.5 -3q18 -6 22 16q29 90 62.5 175t68.5 171q10 29 20.5 55.5t26.5 51.5l19 26q8 6 15 10.5t20 -1.5q12 -6 24.5 -2t22.5 8q16 2 37 -4q12 -6 21 -15.5t11 -25.5q6 -33 -6 -64q-18 -39 -28.5 -79t-26.5 -81q-23 -55 -39 -111.5 t-39 -109.5q-4 -8 -2 -14q16 -4 33.5 -4t36.5 2q23 2 42 3t42 1q14 -2 27.5 -4t25.5 -2q82 2 162 0q16 0 20 12q10 31 22.5 59.5t22.5 57.5q20 59 43 114.5t43 114.5q10 25 20.5 47.5t18.5 46.5q10 29 40 41.5t52 5.5q16 -4 31.5 -9t32.5 -13q27 -10 36 -37t-5 -51 q-27 -45 -47.5 -93t-36.5 -98q-16 -47 -36 -92t-38 -90q-2 -2 -1 -4t-1 -4q23 -8 46 -7t46 -1q29 -2 55.5 -1t55.5 1q23 -2 34 -14.5t7 -30.5q-8 -25 -27 -23q-35 8 -71 3t-70 -5q-14 2 -28.5 1t-31.5 1q-29 2 -41 -6t-24 -37q-10 -20 -13.5 -40.5t-11.5 -41.5q-4 -8 -7 -15 t-7 -18q-10 -37 -23.5 -72.5t-27.5 -72.5l-37 -104q-6 -10 -4 -15q4 -4 7 -4h7h48.5t47.5 4q23 4 47.5 1t48.5 -5q12 0 20.5 -8t12.5 -18q8 -16 2 -27.5t-22 -15.5q-16 -2 -33.5 -4.5t-34.5 -0.5h-17t-18 -2q-29 -4 -59.5 -4t-58.5 2h-3q-41 4 -51 -30q-4 -18 -12 -36 t-14 -36q-4 -14 -9.5 -27.5t-11.5 -25.5q-10 -25 -20.5 -50.5t-20.5 -52.5q-12 -33 -27.5 -63.5t-37.5 -54.5q-8 -10 -13.5 -20.5t-15.5 -14.5q-53 -33 -106 -23q-25 6 -36.5 27.5t-0.5 46.5q23 59 46 115.5t40 115.5q8 23 19 44.5t22 43.5q0 4 2 6.5t2 6.5q4 10 -6 10 l-86 -4q-74 -6 -146 0q-23 2 -45 1t-45 -1q-12 0 -26.5 2t-24.5 -6q-10 -6 -12.5 -19.5t-8.5 -23.5q-25 -45 -40 -93.5t-42 -93.5q-10 -16 -16 -36.5t-16 -36.5q-10 -18 -18.5 -36t-24.5 -34q-6 -6 -19 -4q-12 4 -25.5 10t-25.5 -10q-14 -16 -35 0q-23 16 -30 39.5t4 46.5 q10 29 20 56.5t21 56.5q16 41 29.5 84t29.5 86q6 23 -12 16q-18 -4 -36 -2t-36 0q-27 -2 -47.5 10t-40.5 29q-14 12 -10 24.5zM413 354q-1 -4 3 -8h22q35 0 69 1t68 -3q35 -2 68 -1t66 1q12 4 22 0q12 -4 23.5 -3t23.5 1q16 0 23 16q10 29 20 58.5t21 60.5q10 31 21 61.5 t28 59.5q12 20 22.5 42t16.5 46q4 12 9 25.5t9 25.5q2 4 5 10.5t1 16.5q-20 2 -37.5 2t-37.5 -8q-25 -12 -58 -6q-51 14 -96 8q-12 -2 -25.5 -2h-27.5q-23 2 -46.5 4t-45.5 -6q-8 -4 -13.5 -7.5t-9.5 -13.5l-37 -98l-47 -131l-57 -144q-2 -4 -3 -8z" />
<glyph unicode="$" horiz-adv-x="735" d="M-12 1069q-4 37 8 66q18 55 39.5 93t51.5 66.5t68 50t91 41.5l16 5q12 6 12 20q2 23 2 47.5t-4 46.5q-4 16 6.5 23.5t26.5 3.5q14 -4 29 -27q8 -16 11 -32.5t7 -32.5t3 -32.5t16 -14.5q37 4 68.5 -9.5t60.5 -31.5q43 -29 66.5 -71t33.5 -91v-4q-4 -39 -2 -78t-8 -78 q-6 -18 -19.5 -27.5t-33.5 1.5q-14 6 -18.5 14t-3.5 17t4 18.5t3 21.5q4 53 -3 109.5t-48 95.5q-31 31 -65 41q-16 4 -25 2q-25 -2 -25 -29q4 -35 6.5 -70.5t4.5 -70.5v-111.5t-2 -111.5q-2 -39 1 -77t-1 -77q0 -10 2 -21.5t2 -21.5q0 -8 8 -14l65 -64q35 -35 69 -69.5 t62 -75.5q23 -33 39.5 -67.5t30.5 -73.5q4 -12 9 -24.5t10 -27.5q8 -45 6 -109.5t-13 -109.5q-20 -92 -61 -151.5t-141 -87.5q-10 -4 -22.5 -4t-20.5 -7q-8 -6 -6 -18t-3 -23q-4 -16 -7 -34.5t-7 -34.5q-6 -25 -27 -27q-27 -8 -36 13q-14 20 -15 43v30q0 10 2 18.5t0 18.5 q-2 6 -4 11t-12 8q-45 4 -83 28.5t-67 55.5q-37 41 -58 89t-38 101q-4 20 -6 39.5t-4 42.5q-2 16 -4 31.5t-2 31.5q2 41 7 80t19 78q2 6 11.5 13.5t13.5 11.5q12 18 25 12q10 -2 16 -8t4 -17q-12 -55 -18.5 -112.5t-2 -115.5t24 -114.5t55.5 -107.5q12 -16 27.5 -26.5 t32.5 -20.5q10 -8 21.5 -15.5t25.5 -11.5q8 -2 11 -1t3 11q2 12 0 25q-4 31 -4 61.5t-4 61.5q-4 35 -2 70.5t6 70.5q4 27 -1 52.5t-1 52.5q4 35 1 67.5t-3 67.5q0 14 -1 27.5t-3 27.5q0 10 -10 25q-31 33 -65 71.5t-67.5 78.5t-63.5 82t-52 81q-16 29 -24.5 58.5t-14.5 60.5 q-6 25 -8 50zM141 1083q-2 -39 11 -71q23 -68 65 -135q6 -10 34 -33t40 -33q0 16 1 28.5t-1 24.5q-4 57 -6 114.5t-2 115.5q0 41 -2 82t0 81q0 4 -1 5.5t-1 5.5q-2 23 -8.5 25.5t-24.5 -9.5q-33 -23 -55.5 -55.5t-35 -69.5t-14.5 -76zM382 408.5q1 -7.5 1 -13.5 q6 -57 8 -113.5t4 -113.5q2 -51 2 -101.5v-101.5v-18q4 -12 9 -15q55 12 80.5 41t31.5 68t1 84t-11 88q-4 27 -12 55q-16 45 -45 82t-60 72h-2q-2 0 -4 2q-4 -8 -3 -15.5z" />
<glyph unicode="%" horiz-adv-x="1030" d="M-37 1133q4 47 15.5 90t27.5 86q4 12 11.5 23t17.5 22l6 10q8 18 21.5 29.5t27.5 21.5q20 14 49 15q18 2 37 5t39 3q63 -2 106.5 -36t57.5 -99q12 -53 19.5 -102.5t-3.5 -108.5q-6 -57 -20 -109l-15 -41q-18 -57 -75 -90q-23 -12 -46.5 -19.5t-56.5 -9.5q-23 4 -51.5 5 t-54.5 20q-72 47 -96.5 126t-16.5 159zM98 1029q2 -34 15 -66q6 -18 15 -34t26 -28q45 -35 72.5 -17.5t45 59.5t24.5 90t9 75l8 70q2 20 1 49.5t-8 57.5t-21.5 50.5t-38.5 28.5q-35 8 -63.5 -12.5t-45.5 -48.5q-25 -35 -26 -68q-4 -35 -8.5 -68.5t-4.5 -68.5q-2 -35 0 -69z M141 -84q10 31 21.5 60.5t23.5 58.5l95 221l90 223q16 43 32.5 86t32.5 86q16 51 36 100.5t40 98.5l90 209q12 31 25.5 60.5t29.5 60.5q10 18 17.5 37.5t15.5 37.5q29 70 68 144q6 12 14 21.5t23 13.5q16 4 31.5 -3.5t19.5 -23.5q2 -12 -2 -23q-23 -41 -37 -79 q-16 -35 -31.5 -70t-34.5 -70q-8 -12 -10 -25.5t-8 -27.5q-14 -35 -27.5 -69.5t-25.5 -69.5q-10 -25 -18.5 -49.5t-14.5 -49.5q-6 -20 -15.5 -39.5t-17.5 -39.5q-10 -23 -21.5 -46.5t-15.5 -52.5q-4 -16 -12 -32.5t-12 -32.5q-10 -29 -22.5 -57.5t-24.5 -57.5 q-6 -16 -9.5 -30.5t-9.5 -28.5q-27 -66 -61 -138q-33 -70 -62 -151q-20 -55 -45.5 -106.5t-54.5 -102.5l-25 -45q-6 -12 -15 -23.5t-26 -15.5l-8 -4q-20 2 -31.5 14.5t-7.5 30.5zM553 184q4 25 11 49.5t18 49.5q4 12 4 16q8 35 22.5 63.5t34.5 55.5q16 20 34.5 35.5 t41.5 25.5q14 6 31 6q12 0 25 2t26 2q37 0 66.5 -14t56.5 -39q31 -29 34 -71q4 -31 7.5 -63t9.5 -64q4 -18 2 -39t0 -41q2 -45 -7 -89t-22 -87q-12 -37 -35.5 -66t-54.5 -51q-23 -16 -49 -23.5t-55 -1.5q-39 0 -69 18.5t-54 47.5q-23 27 -39.5 54.5t-26.5 59.5 q-25 80 -12 164zM668 59q0 -29 8 -57.5t16 -56.5q2 -12 17 -17q49 -12 96 19q8 4 8 10q6 16 22.5 39.5t22.5 40.5q14 47 14 82t11 82q0 4 1 9t1 11q2 14 0 27.5t-2 25.5q-4 57 -21 107q-8 23 -25.5 37t-48.5 4q-4 -2 -12 -2q-10 0 -17 -5t-14 -12q-33 -43 -49 -96 q-10 -51 -19 -101t-9 -104v-43z" />
<glyph unicode="&#x26;" horiz-adv-x="1228" d="M-53 223q-4 20 1 41t9 41q29 129 111 223q18 20 38.5 38t40.5 34q14 10 28.5 19.5t29.5 19.5l8 8q-8 16 -14 23q-35 37 -59.5 82t-43.5 94q-27 63 -26 123q0 47 10 93t35 89q31 53 68.5 97t88.5 75q29 18 57.5 32.5t63.5 18.5q23 4 43.5 7t42.5 3q102 0 183 -61 q43 -33 49 -84q2 -10 3 -18.5t5 -18.5q12 -41 10 -83t-12 -85q-8 -27 -24.5 -45t-37.5 -37q-29 -25 -60.5 -28.5t-66.5 -3.5q-14 0 -29.5 16t-19.5 31q-4 10 6.5 27.5t20.5 21.5t18 -4q16 -16 33.5 -16.5t34.5 10.5q51 27 45 79q-4 12 0 27q14 39 -6 86q-6 20 -14.5 38.5 t-18.5 37.5q-16 29 -49 22q-8 -4 -16.5 -4t-16.5 -4q-12 -4 -18 -12q-8 -6 -14.5 -13.5t-14.5 -15.5q-18 -18 -27 -37q-16 -33 -43 -69q-57 -78 -57 -180v-40t2 -42q4 -43 22.5 -78t47.5 -68q10 -12 23.5 -24.5t25.5 -24.5l80 -84q18 -20 10 -47l-4 -8q-10 -25 -19.5 -29 t-33.5 8q-35 20 -78 21h-15q-23 8 -47 -6l-88 -58q-18 -10 -24 -35l-13 -34q-10 -25 -14 -50.5t-8 -52.5q-4 -23 -4 -47v-47q0 -78 39 -135q23 -31 49 -53.5t65 -32.5q23 -6 46.5 -14.5t46.5 -16.5q20 -8 49 -4q37 4 71.5 15.5t69.5 23.5t65.5 34.5t57.5 51.5q23 27 38 55.5 t25 63.5q14 41 22.5 83t12.5 85q2 31 1 61.5t-5 63.5q-4 18 -13 32.5t-20 30.5q-16 27 -40.5 45.5t-49.5 34.5l-55 39q-14 10 -26.5 13t-28.5 -1q-27 -12 -58 -2q-23 4 -33 19.5t-18 31.5q-10 20 19 27q23 4 44 8t44 8q31 8 63 25q41 18 77 42.5t71 51.5q39 29 80.5 46.5 t91.5 17.5q29 2 56.5 -5.5t49.5 -27.5q43 -43 57 -94q14 -45 -2 -99q-8 -23 -18 -43t-31 -34q-6 -4 -14 -7.5t-14 -7.5l-23 -4q-23 -6 -53.5 4t-44.5 33q-14 27 -17 51q-6 31 27 21q18 -6 29 -23q8 -14 26 -8q33 12 48.5 50t4.5 67q-4 8 -11 14t-13 10q-4 4 -9 7t-10 8 q-10 16 -34 10q-16 -4 -32.5 -10.5t-33.5 -18.5q-29 -25 -58.5 -48.5t-58.5 -45.5q-10 -8 -20 -14.5t-21 -12.5q-18 -12 0 -24q16 -12 34 -23.5t34 -25.5q41 -35 67.5 -77t34.5 -95q4 -20 9.5 -39t9.5 -37q14 -43 6 -88q-4 -29 -6 -58.5t-12 -58.5q-8 -27 -15.5 -52.5 t-23.5 -47.5q-6 -10 -10.5 -20.5t-8.5 -20.5q-12 -29 -30.5 -53.5t-38.5 -47.5q-27 -31 -59 -51t-64 -43q-10 -4 -19.5 -6t-19.5 -6q-8 -4 -15.5 -6t-17.5 -4l-33 -13q-16 -4 -33.5 -6t-33.5 -4q-20 -2 -39 0t-39 2q-33 4 -64.5 5t-66.5 5q-18 4 -38 10.5t-38 12.5l-111 45 q-35 14 -58.5 37.5t-43.5 52.5q-4 8 -8 12q-41 45 -59.5 98.5t-28.5 112.5z" />
<glyph unicode="'" horiz-adv-x="161" d="M-14 1180.5q2 25.5 6 50.5q4 23 6 42t4 40q6 45 21 84q4 14 13 24.5t17 22.5q4 6 19 6q29 -4 46 -24.5t15 -49.5q-4 -61 -24 -123q-10 -27 -18.5 -52t-14.5 -52q0 -12 -10 -23q-6 -4 -10.5 -10t-8.5 -10q-6 -6 -11 -15.5t-16 -5.5q-12 4 -23 12.5t-9 24.5v6 q-4 27 -2 52.5z" />
<glyph unicode="(" horiz-adv-x="440" d="M-2 520.5q-2 63.5 0 128.5q2 53 6 106.5t8 106.5q4 59 14.5 114.5t26.5 110.5q16 66 39 132.5t64 121.5q29 39 74 81.5t104 58.5q12 4 23.5 -3.5t21.5 -15.5q6 -4 12 -12t-2 -10q-33 -4 -68.5 -35t-54.5 -53q-33 -41 -51 -100.5t-26.5 -123t-10.5 -127t0 -114.5 q4 -72 -1 -141.5t-1 -141.5v-33q-4 -66 -3 -133t1 -135q-2 -49 2 -98t8 -99q4 -53 12.5 -103t20.5 -101q10 -35 28.5 -63.5t41.5 -57.5q2 -4 4 -5t4 -3q16 -6 26.5 -18.5t20.5 -24.5q16 -18 4 -35q-12 -16 -37 -6q-10 6 -20 13t-21 11q-25 10 -42 26.5t-40 29.5l-10 8 q-25 39 -50.5 75.5t-37.5 84.5q-8 29 -19.5 54t-15.5 54q-16 88 -24 170q-6 61 -19 131l-6 45q-4 66 -6 129.5z" />
<glyph unicode=")" horiz-adv-x="454" d="M-47 1450q6 8 12 12q10 8 21.5 15.5t25.5 3.5q59 -16 103.5 -58.5t72.5 -81.5q41 -55 64.5 -121.5t40.5 -132.5q14 -55 25.5 -110t15.5 -115q4 -53 8 -106.5t4 -106.5q2 -129 -6 -258q0 -25 -6 -45l-19 -131q-4 -43 -9 -85t-13 -85q-6 -29 -17.5 -54.5t-17.5 -53.5 q-14 -47 -39.5 -84t-50.5 -76l-8 -8q-23 -12 -40.5 -28.5t-41.5 -27.5q-10 -4 -21.5 -11t-21.5 -13q-25 -10 -37 6t4 35q10 12 20.5 24.5t26.5 18.5l10 8q23 29 40.5 57.5t27.5 63.5q27 96 33 204q4 49 8 98.5t4 98.5q-2 68 -1 135.5t-3 132.5q0 8 1 16.5t1 16.5 q4 72 -1 141.5t-3 141.5q2 51 1 114.5t-10.5 127t-27.5 123t-51 100.5q-16 23 -52 53.5t-71 34.5q-8 2 -2 10z" />
<glyph unicode="*" horiz-adv-x="473" d="M-37 1016q10 23 29 45q20 23 40.5 39t41.5 33l26 20q-8 8 -14 16.5t-12 12.5q-16 14 -25.5 32.5t-17.5 40.5q-6 16 -11.5 30.5t-15.5 25.5q-6 6 -4 18q4 8 16 12q12 2 25 -6q27 -25 55.5 -44t57.5 -38q8 -4 10 -3t6 14q10 23 12 47t6 47q2 10 4.5 18t6.5 19q6 14 16 14 q8 0 12 -16q0 -6 4 -19q8 -27 7.5 -55.5t-5.5 -56.5q0 -6 -2 -9q0 -2 1 -2t1 -2q10 2 27 15q31 18 60.5 35.5t60.5 33.5q23 14 41 -6q10 -12 6 -28.5t-16 -26.5q-4 -2 -6.5 -4t-6.5 -2q-23 -8 -42 -20.5t-42 -24.5q-14 -8 -25 -19.5t-26 -21.5q-6 -4 -4 -7.5t6 -7.5 q10 -10 22.5 -21t22.5 -24q51 -55 90 -116q6 -8 -2 -11q-6 -2 0 -8q0 -4 3.5 -8t-1.5 -8q-4 -4 -6 0t-6 2q-4 -6 0 -11.5t0 -11.5q-2 -2 -8 4q-29 29 -58.5 54.5t-62.5 46.5q-33 18 -57 39l-8 4q-10 4 -13 -9q-6 -23 -6 -40q-2 -12 -3 -25.5t-1 -26.5q-2 -16 -7 -32.5 t-11 -32.5q-10 -29 -29 -6q-6 12 -6 25.5t2 27.5q4 23 5 42t3 42q0 6 -2 8q-4 0 -8 -3t-8 -5q-12 -8 -23.5 -15.5t-24.5 -11.5q-4 -2 -7 -3t-7 -5q-12 -10 -25.5 -16t-25.5 -17q-10 -8 -17.5 -5t-15.5 7q-10 4 -2 21z" />
<glyph unicode="+" horiz-adv-x="546" d="M-8 631.5q2 9.5 12 13.5q4 2 16 2q23 2 42.5 1t41.5 -1h86q10 0 12.5 2t2.5 13q2 18 2 36.5v34.5q2 29 3 57.5t1 57.5v12q4 16 16.5 20.5t22.5 -10.5q6 -6 14 -11t12 -13q18 -27 19 -66q2 -23 1 -47t-3 -47v-29q0 -12 2 -15t14 -1q35 0 69 -1t68 3q14 4 26.5 -1t25.5 -11 q4 -2 12 -10q8 -12 -6 -15q-6 -2 -10.5 -3t-4.5 -9q0 -6 -6 -8q-20 -4 -39.5 -8.5t-42.5 -8.5q-18 -2 -36.5 0t-38.5 0h-11q-16 -2 -19 -6t-3 -20q-2 -29 0 -54.5t2 -52.5q0 -14 1 -26.5t1 -26.5q0 -6 1 -11t-9 -10q-2 0 -2 -2q2 -16 -8.5 -23t-14.5 -18q-6 -16 -24 -6 q-14 8 -23 25q-10 23 -11 46.5t1 45.5q2 31 1 61.5t-3 59.5q0 14 -12 16q-4 0 -8.5 1t-8.5 1q-23 -4 -45 6q-12 2 -25 0q-29 -4 -50 4.5t-44 24.5l-12 12q-10 6 -8 15.5z" />
<glyph unicode="," horiz-adv-x="231" d="M23 -127q0 31 6 68q10 43 21 86t22 84q6 31 22 61q6 16 12.5 18.5t20.5 -4.5q10 -4 21.5 -8t19.5 -14q6 -10 11 -19.5t3 -21.5l-4 -33q-6 -23 -11 -46.5t-13 -45.5q-8 -27 -19.5 -50.5t-34.5 -41.5q-14 -12 -22 -28.5t-19 -31.5q-10 -10 -12 -10t-12 10q-6 8 -8 12.5 t-4 14.5z" />
<glyph unicode="-" horiz-adv-x="555" d="M2 467q-16 23 4 35q10 6 19 4q27 0 51 1t49 -1q33 -2 76 4q6 0 13 1t13 -1q16 -4 25.5 -4h18t17.5 1t25 3q29 2 57.5 3t57.5 1q18 0 35.5 -2t34.5 -6q10 -2 18 -7t10 -22q4 -16 -2 -29.5t-22 -15.5l-86 -10q-25 -4 -49.5 -4t-49.5 -4q-8 -2 -16 0t-16 -2l-56 6 q-12 2 -15 2h-5t-5 -1t-16 -1q-27 0 -51 3t-51 1q-10 -2 -21.5 -2t-21.5 4q-10 6 -19.5 12t-13.5 21q-2 8 -8 10z" />
<glyph unicode="." horiz-adv-x="241" d="M18 31q4 16 7.5 32.5t11.5 32.5q23 49 67 41q23 6 39.5 -3t28.5 -21q23 -27 27 -62q2 -16 -4.5 -31.5t-14.5 -29.5q-6 -8 -14 -15q-31 -18 -66 -18q-27 -2 -49 16.5t-31 42.5q-4 8 -2 15z" />
<glyph unicode="/" horiz-adv-x="540" d="M-2 -139q-2 16 2 33.5t10 33.5q16 47 26.5 93.5t26.5 91.5q18 51 29.5 104t28.5 107q14 51 25.5 103t27.5 103l53 205q10 33 16.5 66t16.5 65q10 41 19.5 81t21.5 81q16 51 25 100q4 20 8 31q8 20 8 35q2 16 8 30.5t12 28.5q10 20 15 45q2 16 8 29.5t14 26.5 q6 12 21.5 17t30.5 -1q6 -2 13 -6t3 -14q-2 -4 1 -6.5t5 -4.5q14 -12 16.5 -18t-4.5 -23q-6 -23 -10 -44t-14 -44q-4 -8 -5 -15t-5 -13q-4 -8 -5 -8q2 -25 -7 -46.5t-13 -44.5q-4 -29 -11 -57.5t-16 -56.5q-10 -47 -24.5 -92.5t-26.5 -92.5q-8 -27 -15 -53t-14 -53 q-10 -29 -15 -58.5t-15 -58.5q-10 -35 -20.5 -71.5t-14.5 -75.5q-4 -29 -14.5 -53.5t-14.5 -51.5l-26 -116q-6 -29 -15.5 -56.5t-19.5 -56.5q-14 -51 -29.5 -100.5t-25.5 -100.5q-8 -45 -54 -45h-28q-27 -2 -29 27z" />
<glyph unicode="0" horiz-adv-x="798" d="M18 530q-6 150 10.5 284t59.5 276q14 41 30.5 77.5t37.5 73.5q25 41 49 72q18 25 53 45q6 6 14 6q18 2 34 9t32 11q20 4 39.5 4.5t40.5 -2.5q29 0 55.5 -9t50.5 -21q16 -10 26.5 -22.5t20.5 -28.5l15 -29q16 -37 32.5 -75t24.5 -79q6 -27 19 -59q6 -16 8 -33.5t6 -34.5 q8 -41 11 -84t9 -86q4 -29 6.5 -58.5t6.5 -59.5q2 -8 1 -15.5t-1 -15.5q-4 -20 -2 -35q4 -18 4 -37v-33v-52t4 -46q2 -14 -1 -28.5t-3 -28.5v-61.5t-2 -59.5q-2 -53 -19 -102q-6 -18 -10 -37t-4 -39q0 -8 -3 -16.5t-7 -18.5q-4 -18 -11.5 -35.5t-13.5 -36.5 q-4 -16 -12 -30.5t-13 -30.5q-8 -23 -22 -42.5t-31 -35.5q-31 -35 -67 -43q-4 -2 -6.5 -5t-6.5 -5q-27 -14 -53 -17q-10 -2 -21.5 -3t-21.5 -1q-66 0 -123 31q-18 10 -36.5 22.5t-37.5 24.5q-14 10 -14 23q0 8 -6 14q-33 47 -56.5 96t-33.5 107l-25 108q-10 41 -16 81 t-10 81q-4 37 -6.5 73t-4.5 72zM246 393q0 -45 4 -90q2 -18 3 -36.5t5 -37.5q8 -33 13 -64.5t10 -66.5q4 -23 9 -43t15 -41q16 -29 23 -51q4 -20 11 -36.5t17 -32.5q16 -27 45 -23q74 2 105 72q10 20 19.5 40.5t19.5 41.5q25 43 35 89t18 93q4 25 7 49.5t7 48.5 q6 45 11.5 91t5.5 93q-2 27 -2 54.5t-4 56.5q-6 53 -13.5 104.5t-11.5 104.5l-8 88l-12 96q-4 29 -9.5 55.5t-13.5 53.5q-10 33 -21.5 64.5t-23.5 62.5q-6 20 -15.5 35.5t-31.5 25.5q-27 12 -47 2t-33.5 -25.5t-28.5 -31.5q-6 -8 -10 -17.5t-8 -19.5q-27 -72 -45.5 -148.5 t-22.5 -150.5q-2 -37 -4 -75t-6 -72l-4 -78q-4 -27 -3 -52.5t-1 -52.5q-4 -23 -2 -43t0 -43q-2 -45 -2 -90z" />
<glyph unicode="1" horiz-adv-x="473" d="M-20.5 1241q-2.5 10 8.5 21q6 6 18 14q29 16 57.5 35.5t59.5 34.5q35 18 59 38q16 14 45 15h13.5t13.5 4q23 10 47 -12q8 -8 15.5 -14.5t13.5 -14.5q25 -37 18 -72q-2 -27 -4 -52.5t2 -51.5q4 -20 1 -40t-5 -40q-4 -33 -5 -63.5t-5 -61.5l-17 -143q-6 -49 -11 -98.5 t-7 -100.5q-4 -16 -4 -27l-21 -190q-2 -31 -6 -59.5t-10 -57.5l-4 -45q-4 -35 -10 -67.5t-15 -67.5q-4 -18 -3 -36.5t-3 -37.5q-4 -29 -6 -55.5t-12 -52.5q-8 -25 -19.5 -47.5t-23.5 -45.5q-6 -12 -18.5 -17t-22.5 -11q-6 0 -10 2q-14 6 -27.5 9t-28.5 7q-18 4 -25.5 13.5 t-11.5 29.5q-6 37 -5 75t3 75q4 47 9.5 94t9.5 94q2 33 7 63.5t9 65.5q0 10 1 19.5t1 19.5q4 33 7 64.5t5 64.5q4 47 9.5 93t9.5 94q4 45 9 88t9 88l25 198q6 47 14 91t21 87q2 6 2 11.5t4 13.5q-12 -6 -21.5 -11t-19.5 -11q-23 -14 -47.5 -21.5t-48.5 -17.5q-16 -6 -37 4 q-10 6 -12.5 16z" />
<glyph unicode="2" horiz-adv-x="714" d="M-44 -90.5q3 18.5 7 37.5l8 20t9 21q10 20 14 40.5t10 43.5q12 43 29.5 83t36.5 81q12 25 22 50t21 52q16 43 34.5 85t36.5 85l82 207q8 25 17.5 48t19.5 48q23 53 39 108.5t33 110.5q10 39 21.5 77t21.5 79q6 25 8 50.5t2 51.5q0 29 -33 29q-8 0 -24 -4 q-74 -33 -127 -88q-18 -20 -34.5 -43t-39.5 -41q-6 -6 -14 -19q-4 -10 -10.5 -18t-12.5 -19q-20 -37 -45 -22q-16 10 -22.5 26.5t0.5 32.5q10 25 23 47.5t34 40.5q33 31 64.5 63t66.5 58q39 29 81 46.5t89 17.5q47 2 84 -19.5t65 -58.5q4 -8 5 -8q6 -33 20 -62.5t20 -62.5 q2 -8 3 -23q2 -41 2 -79t-9 -78l-22 -127q-2 -10 -4 -18.5t-6 -18.5q-8 -23 -13.5 -47.5t-15.5 -47.5q-10 -27 -20.5 -51t-16.5 -51q-4 -16 -12 -28.5t-17 -26.5q-16 -35 -30.5 -72t-28.5 -74q-18 -53 -42 -104t-52 -100q-31 -59 -63.5 -117t-61.5 -117q-4 -6 -7 -12t-3 -17 q2 -8 -9 -18q-8 -8 -8 -23q0 -16 3 -19t20 -3q20 2 40 1t40 -1q37 2 74.5 1t74.5 -5q14 0 26.5 -3t24.5 -5q29 -4 56.5 -8.5t54.5 -12.5q31 -6 41 -29q12 -27 -16 -32q-2 0 -4.5 -1t-6.5 -1q-31 4 -62.5 5t-60.5 17q-8 4 -22 4q-29 0 -57.5 1t-57.5 -3q-10 0 -18 2t-19 0 q-31 -2 -62.5 -4t-62.5 -6q-33 -4 -63.5 -13t-63.5 -14q-8 0 -16 -4q-16 -14 -30.5 -8t-28.5 14q-16 6 -21 27q0 10 -2 19.5t-6 19.5q-4 18 -1 36.5z" />
<glyph unicode="3" horiz-adv-x="794" d="M6 1329q-6 20 6.5 34.5t34.5 8.5q16 -4 33.5 -4h36.5h40.5t41.5 -4h16q23 4 46.5 2t45.5 0q23 2 43.5 2t42.5 8q18 4 38 8.5t38 8.5q27 4 41 -7q4 -2 12 -2q59 -10 76 -65q14 -37 -4 -68t-36.5 -60.5t-33.5 -60.5q-14 -37 -41 -65q-16 -18 -28.5 -36.5t-22.5 -41.5 q-6 -16 -16 -28.5t-21 -26.5q-10 -10 -16 -25q16 -8 22 -8q16 0 34 -3t34 -5q31 -4 57.5 -16.5t51.5 -28.5l14 -10q31 -16 51.5 -42t36.5 -55q10 -16 14 -41l17 -96q4 -10 3 -22.5t-3 -22.5q-4 -16 -7.5 -33.5t1.5 -34.5q4 -29 -0.5 -54t-8.5 -54q-4 -51 -15 -100.5 t-22 -98.5q-6 -31 -14 -61.5t-18 -59.5q-2 -4 -2 -6t-4 -6q-18 -27 -29.5 -58.5t-28.5 -60.5q-14 -27 -33.5 -47t-44.5 -37q-6 -2 -14 -10q-35 -31 -75 -39t-85 -4q-31 4 -59.5 14.5t-56.5 24.5q-84 47 -123 131q-27 57 -37 115.5t-6 120.5q6 55 26 98q12 31 39 49 q14 12 27.5 9t25.5 -9q25 -14 19 -45q-2 -10 -5 -21.5t-7 -21.5q-29 -102 0 -207q6 -23 18 -45t27 -45q25 -37 59 -57q10 -4 20.5 -9.5t20.5 -0.5q14 4 26.5 13t16.5 23q14 35 30.5 68t26.5 68q12 47 23.5 96t17.5 98q4 31 8.5 61.5t8.5 61.5q4 33 7 64.5t7 64.5 q4 35 5 70.5t-1 70.5q-4 35 -10 69t-21 69q-12 25 -38 24q-16 0 -34 -1t-34 -3q-6 0 -14 -4q-20 -12 -38 -25.5t-34 -29.5q-31 -31 -68 -33q-4 0 -6 -1t-6 -1q-51 -6 -68 39q-4 10 -10 19t-6 24q0 23 14 55q10 20 20.5 37.5t22.5 36.5q31 49 59.5 99t61.5 99q23 35 47.5 66 t46.5 63q6 10 12.5 17.5t10.5 21.5l-133 -16q-35 -4 -67.5 -4t-67.5 2q-23 2 -42.5 7t-39.5 13t-27 33z" />
<glyph unicode="4" horiz-adv-x="849" d="M-30 596.5q-3 11.5 3 28.5q10 20 24.5 36.5t25.5 36.5q16 23 30.5 46.5t24.5 50.5q4 10 10 19t12 20q23 35 46.5 70.5t48.5 70.5l55 80l135 200q23 33 45.5 63t48.5 58q20 25 60 21q18 -4 36.5 -4t36.5 -4q27 -6 54.5 -34t29.5 -57q2 -23 2 -43t-4 -43q-8 -35 -8 -77 l-8 -129q-4 -43 -7 -85t-5 -85l-4 -105q-2 -16 -3.5 -31.5t-5.5 -31.5q-4 -12 0 -15.5t19 -3.5q27 2 53.5 4t54.5 -6q10 -2 19.5 -1t19.5 -1q31 0 43 -27q6 -20 -10 -26q-8 -4 -14.5 -7t-12.5 -1q-23 4 -41 -5.5t-36 -13.5q-20 -4 -40 -9t-40 -3q-4 2 -6.5 1t-4.5 -1 q-18 -4 -23 -8t-7 -25q-2 -16 -6.5 -32.5t-6.5 -32.5q-2 -27 -7 -50.5t-3 -50.5q6 -66 -10 -139q-4 -23 -5 -46.5t-3 -45.5q-2 -23 -5 -45.5t-8 -44.5q-4 -20 -4 -31q2 -23 -2 -43t-2 -43q0 -18 -10 -35l-6 -8q-4 -8 -9 -2t-10 -2q-2 -4 -2 -9t-8 -7q-4 0 -8 -5 q-8 -23 -39 -16h-6q-29 -10 -54.5 -3t-52.5 17q-10 4 -14 15.5t-8 21.5q-8 18 -6 37.5t-2 42.5q4 51 6 101.5t8 103.5q2 14 3 26.5t1 26.5q-2 37 3 73t9 71l17 124l6 43q4 16 -14 17q-29 4 -58.5 5t-60.5 -3q-25 -4 -49.5 -3t-48.5 1h-24.5t-23.5 -4q-23 -6 -43 -2t-41 12 q-8 4 -14 4q-10 2 -17 3t-12 11q-4 12 -7 23.5zM115 649q10 -4 18 -4h17q55 4 110 2t111 4q20 2 23 4t7 21q6 41 14.5 81t12.5 81q8 82 20.5 162.5t24.5 160.5q0 8 2 16.5t0 18.5q-8 -4 -10 -8t-6 -8l-43 -66l-64 -90l-110 -170q-12 -23 -27.5 -42t-24.5 -42q-6 -23 -17 -39 t-28 -33q-10 -10 -18 -21.5t-12 -27.5z" />
<glyph unicode="5" horiz-adv-x="872" d="M4 160q-4 45 8 92q6 23 10.5 46.5t14.5 43.5l2 2q6 10 11 22.5t16 12.5q14 2 27 -5t26 -18q6 -4 7 -11t3 -13q2 -25 -4 -48.5t-10 -47.5q-16 -55 -11 -107q2 -27 9.5 -48.5t23.5 -41.5q12 -16 23.5 -31.5t27.5 -27.5q33 -29 71 -42.5t81 -0.5q51 14 84 43.5t53.5 69.5 t31.5 86t17 93q6 43 13.5 84t3.5 86q-4 33 -7.5 64t-9.5 63q-8 47 -23.5 90t-37.5 84q-33 66 -90.5 85.5t-124.5 0.5l-57 -18q-14 -4 -23 -12q-10 -12 -23.5 -15.5t-25.5 -5.5q-16 -2 -33.5 12.5t-26.5 30.5q-6 16 -7 31.5t-3 32.5v75.5t-2 73.5v106.5t4 106.5q2 41 3 80 t10 80q2 27 30 25l21 -7q8 -6 18 -2q41 10 88 -6q29 -10 55.5 -10h55.5h141q37 0 64 8l59 17q20 6 39 -9q18 -18 6 -43q-4 -6 -10 -10q-18 -14 -35.5 -26.5t-40.5 -20.5q-4 -2 -7 -2t-7 -4q-12 -10 -58.5 -17.5t-96.5 -9.5t-92 0t-46 13q-4 -109 -12 -213q-4 -39 -8.5 -78 t-14.5 -78q0 -4 -1 -8.5t3 -8.5q23 4 43.5 8.5t42.5 4.5q27 2 53.5 -1t53.5 -7q92 -16 159.5 -62.5t111.5 -114t63.5 -151.5t15.5 -176q-4 -53 -6 -103.5t-9 -101.5q-2 -12 -4 -23.5t-6 -21.5q-12 -37 -24.5 -72t-28.5 -69q-8 -18 -20.5 -32.5t-22.5 -31.5q-31 -41 -64 -65 q-29 -23 -60.5 -33t-65.5 -15q-29 -4 -55.5 -7t-55.5 -1q-66 2 -123 23.5t-102 75.5l-45 53q-33 53 -50 119q-10 45 -14 90z" />
<glyph unicode="6" horiz-adv-x="876" d="M-23 264q-4 57 4.5 112.5t18.5 119.5q4 25 11 48t12 46q10 41 22 80t27 80q23 66 54.5 127t66.5 120q43 76 90 148t100 139q31 39 70 63.5t86 41.5q10 4 23 2t24 -13q12 -14 32 -20l15 -8q33 -27 6 -56q-16 -23 -34.5 -45t-37.5 -45q-12 -16 -22 -34.5t-21 -36.5 q-10 -16 -20 -35t-23 -35q-10 -12 -15 -27.5t-15 -27.5q-12 -16 -22.5 -34t-20.5 -36l-68 -127q-10 -20 -16.5 -40.5t-12.5 -43.5q-10 -29 -16 -57.5t-14 -57.5q-4 -14 -2 -16t14 2q25 6 57 16q10 4 22.5 4t22.5 3q35 2 71 -0.5t71 -14.5q57 -20 108 -51t90 -82 q47 -66 62.5 -135.5t6.5 -138t-38 -132t-70 -118.5q-4 -6 -11 -11.5t-11 -9.5q-29 -20 -55.5 -41.5t-57.5 -38.5q-10 -4 -21.5 -8t-23.5 -8q-35 -10 -68.5 -16t-68.5 -9q-16 0 -30.5 1.5t-31.5 3.5q-111 10 -191.5 80.5t-113.5 175.5q-16 47 -24.5 96t-10.5 100zM219 281 q2 -35 2 -72t4 -74t12.5 -71.5t24.5 -65.5q23 -41 61.5 -62.5t82 -24.5t86.5 9t75 41q8 6 14.5 13.5t12.5 15.5q33 35 52.5 75.5t35.5 86.5q10 29 12 57.5t2 56.5q-2 63 -28 131q-10 33 -33 56q-18 20 -24.5 31.5t-28.5 25.5q-10 6 -36 15.5t-38 11.5q-90 18 -174 -29 q-14 -8 -26.5 -16.5t-26.5 -14.5q-16 -10 -27.5 -22.5t-13.5 -34.5q-2 -27 -12.5 -65.5t-8.5 -73.5z" />
<glyph unicode="7" horiz-adv-x="712" d="M-10 1331q4 14 15 15.5t22 5.5q12 4 24 2t25 -4q51 -10 104 -7q37 2 74 4.5t74 6.5l82 8l82 8q20 0 39.5 3t41.5 5q57 0 72 -51q14 -49 14 -108q2 -18 -6 -35t-16 -33q-12 -25 -21.5 -50.5t-19.5 -51.5q-14 -43 -27.5 -86t-33.5 -84q-10 -25 -21.5 -49.5t-19.5 -51.5 q-10 -37 -25.5 -70.5t-24.5 -72.5q-6 -23 -18 -45q-8 -14 -14 -39l-33 -117q-10 -39 -23.5 -74.5t-25.5 -72.5q-10 -33 -19.5 -66t-21.5 -63q-16 -45 -29.5 -89t-30.5 -89q-8 -27 -15 -53.5t-17 -53.5q-2 -10 -11 -18q-4 -4 -7 -9.5t-5 -11.5q-2 -12 -11 -18t-16 -17 q-2 -2 -8 0h-4q-2 0 -2 2q-14 -10 -24.5 -2t-20.5 13q-8 2 -12 9t-8 13q-12 12 -21 16q-12 8 -12 25q-4 16 0 33.5t8 34.5q20 115 55 229l45 147q16 57 37 123t37 123q12 43 23.5 77t23.5 70t26.5 76.5t35.5 98.5q14 41 27.5 81t29.5 81l74 186q4 10 10 20.5t8 24.5l-47 -6 q-45 -10 -91 -11t-93 -1q-12 0 -25.5 -1t-25.5 -1q-29 -2 -54.5 5t-52.5 13q-16 4 -32.5 6t-33.5 10q-10 6 -22 13.5t-8 23.5z" />
<glyph unicode="8" horiz-adv-x="796" d="M-2 68q-25 115 10 219q12 35 26.5 67.5t31.5 65.5q16 33 36.5 59.5t42.5 52.5l68 76q12 12 2 27q-12 14 -24.5 27.5t-22.5 29.5q-18 23 -33.5 47.5t-32.5 51.5q-45 74 -61 161q-4 29 -6 56.5t2 56.5l4 59q8 63 37 119q18 45 51 74q57 49 128 79.5t151 26.5q23 -2 45 -8 t45 -16l41 -19q61 -27 93 -75t40 -104t-6.5 -116.5t-40.5 -111.5q-31 -57 -66 -110.5t-82 -100.5q-10 -10 -17 -20.5t-16 -20.5q-10 -12 2 -25q10 -10 20.5 -21t20.5 -22q29 -23 53.5 -51.5t41.5 -62.5q6 -12 16 -21.5t18 -21.5q29 -41 50.5 -85t35.5 -92 q27 -84 11.5 -165.5t-49.5 -157.5q-4 -12 -11.5 -23.5t-17.5 -19.5q-10 -10 -15.5 -22.5t-15.5 -22.5q-41 -43 -92 -62q-8 -4 -16.5 -6t-16.5 -6q-35 -16 -71.5 -18t-73.5 -6q-39 -2 -76 6t-72 20q-14 4 -26.5 12.5t-22.5 16.5q-41 27 -67.5 60.5t-49.5 72.5 q-10 16 -14 34.5t-8 35.5zM92 121q0 -8 1 -16.5t1 -16.5q4 -29 13.5 -56.5t19.5 -54.5q6 -16 20.5 -25t26.5 -20q31 -29 69 -40t79 -11q8 0 16 -1t16 1q33 10 64 21.5t53 42.5l6 6q43 39 62 98q4 14 9 28.5t5 31.5q0 92 -44 177t-97 154q-20 23 -39 46.5t-41 45.5 q-23 23 -32 22t-28 -24l-10 -14l-55 -78q-37 -49 -64 -110q-10 -27 -19 -53.5t-18 -53.5q-8 -25 -13 -49.5t-1 -50.5zM212 1078q5 -50 23.5 -94t46 -88t64.5 -95q4 -4 8.5 -10.5t12.5 -10.5q49 59 98 129t82 140q47 98 23.5 169.5t-121.5 106.5q-74 27 -146 -16 q-6 -4 -13 -6.5t-11 -10.5q-12 -16 -25.5 -32.5t-22.5 -36.5q-4 -8 -9 -14.5t-5 -14.5q-10 -66 -5 -116z" />
<glyph unicode="9" horiz-adv-x="735" d="M10 885q-57 188 37 346q29 47 66 79.5t80 59.5q6 4 13 6t15 6q35 12 71 19.5t75 3.5q51 -8 105 -26.5t89 -65.5q16 -18 28.5 -39t22.5 -43q20 -45 31 -96q27 -117 16.5 -254.5t-34.5 -251.5q-6 -35 -13.5 -71t-15.5 -71q-10 -47 -24.5 -93t-30.5 -91 q-23 -72 -51.5 -139.5t-59.5 -132.5q-18 -43 -37.5 -84t-42.5 -80q-10 -18 -21.5 -33.5t-27.5 -26.5q-6 -4 -12 -10t-17 2q-2 0 -6 -4q-4 -8 -8 0q-4 10 -10 9t-12 -5q-25 -12 -50 13l-6 10q-6 6 -12 11t-16 -1q-10 -4 -22.5 4t-16.5 19q-2 4 -2 12q4 31 16 51q12 18 20 51 q2 10 6.5 19.5t8.5 17.5q35 70 57.5 146.5t56.5 148.5q35 76 56.5 151.5t56.5 151.5q14 31 19.5 65.5t15.5 71.5q-16 -8 -29.5 -16t-27.5 -18q-10 -6 -20.5 -10.5t-22.5 -4.5q-8 2 -16.5 0t-16.5 -4q-51 -14 -92 0q-31 10 -52 21q-35 14 -59.5 39.5t-42.5 60.5 q-25 37 -35 76zM76 958q2 -18 4 -37.5t6 -37.5q2 -18 16 -39q23 -29 49.5 -43.5t59.5 -18.5q12 -4 25 0q43 12 90 35q37 18 68.5 47t60.5 64q8 8 8 18q4 29 8 68t2 80q0 37 -5 72.5t-19.5 65.5t-37 51.5t-59.5 29.5q-31 6 -61.5 4t-59.5 -17l-24 -16t-23 -18 q-47 -55 -73 -125q-10 -29 -16.5 -59.5t-10.5 -63.5q-4 -14 -7 -28.5t-1 -31.5z" />
<glyph unicode=":" horiz-adv-x="305" d="M39 31q4 16 7 32.5t11 32.5q23 49 68 41q23 6 39 -3t29 -21q23 -27 26 -62q2 -16 -4 -31.5t-14 -29.5q-6 -8 -15 -15q-31 -18 -65 -18q-27 -2 -49.5 16.5t-30.5 42.5q-4 8 -2 15zM76 647q4 16 7 34t11 34q10 23 26.5 34t41.5 7q23 6 39 -3.5t28 -23.5q25 -27 27 -61 q2 -16 -4 -31.5t-14 -30.5q-4 -4 -7.5 -7t-7.5 -5q-29 -16 -65 -21q-27 0 -49.5 17.5t-30.5 42.5q-4 10 -2 14z" />
<glyph unicode=";" horiz-adv-x="299" d="M43 -127q0 31 6 68q10 43 21.5 86t21.5 84q6 31 23 61q6 16 12 18.5t20 -4.5q10 -4 21.5 -8t19.5 -14q6 -10 11.5 -19.5t3.5 -21.5l-4 -33q-6 -23 -11.5 -46.5t-13.5 -45.5q-8 -27 -19.5 -50.5t-33.5 -41.5q-14 -12 -22.5 -28.5t-18.5 -31.5q-10 -10 -12 -10t-13 10 q-6 8 -8 12.5t-4 14.5zM76 647q4 16 7 34t11 34q10 23 26.5 34t41.5 7q23 6 39 -3.5t28 -23.5q25 -27 27 -61q2 -16 -4 -31.5t-14 -30.5q-4 -4 -7.5 -7t-7.5 -5q-29 -16 -65 -21q-27 0 -49.5 17.5t-30.5 42.5q-4 10 -2 14z" />
<glyph unicode="&#x3c;" horiz-adv-x="589" d="M12 526q2 16 19 17q10 2 15 5t11 7q20 16 42 28.5t44 26.5q25 16 48.5 32.5t48.5 33.5q29 23 58.5 43t61.5 39q29 16 55.5 35.5t53.5 40.5l27 18q18 10 31.5 2t17.5 -29q2 -27 -17 -45l-34 -28l-58 -47q-18 -16 -40.5 -26.5t-45.5 -21.5q-25 -10 -39 -22 q-23 -18 -46 -35.5t-52 -28.5l-47 -26q-16 -12 -4 -25q16 -12 28.5 -27.5t26.5 -27.5l20.5 -20.5t20.5 -22.5q10 -14 23.5 -24.5t23.5 -22.5q20 -25 45 -41.5t47 -36.5l23.5 -23.5t21.5 -25.5q10 -16 33 -31q2 -4 4 -7t2 -7q2 -4 -10 -8q-8 0 -2 -7q4 -10 -2 -16t-12 -8 q-10 -4 -23 -9t-29 -3q-25 0 -49 12t-47 29q-16 12 -31.5 26t-31.5 29q-16 12 -29.5 24.5t-30.5 22.5q-12 8 -19 19.5t-18 21.5q-18 18 -35.5 38.5t-37.5 39.5q-8 8 -15.5 15t-11.5 17l-12 13q-16 12 -20.5 29.5t-2.5 37.5z" />
<glyph unicode="=" horiz-adv-x="540" d="M4 682q0 10 9.5 18.5t21.5 8.5q14 2 26.5 2h24.5q33 2 63.5 2t61.5 4l133 8h12.5t16.5 -2q12 2 26.5 1t28.5 1q14 0 26.5 -3t26.5 -7q20 -8 11 -27q-4 -4 -7.5 -9t-7.5 -9t-9 -6t-3 -13q2 -4 -4 -7t-10 -3q-35 -2 -71 -7t-71 -7q-25 0 -48 -1t-48 -10q-27 -6 -53.5 -5 t-53.5 -1q-14 0 -27 1t-26 1q-27 0 -39 25q-6 10 -7 22.5t-3 22.5zM14 485q-2 6 1 10.5t8 8.5q16 12 36 16q29 8 60 12.5t59 2.5q29 0 54.5 4t54.5 8q16 2 32.5 1t38.5 1h91q12 0 14 -2t6 -17l4 -22q2 -12 -8 -21q-12 -12 -25.5 -14t-25.5 -6q-35 -10 -69 -12t-66 -13 q-10 -4 -22.5 -4t-23.5 2q-33 2 -63.5 3t-63.5 -1q-14 -2 -27 0t-30 2q-10 0 -22.5 15.5t-12.5 25.5z" />
<glyph unicode="&#x3e;" horiz-adv-x="608" d="M43 178q0 29 20 43l35 37q39 39 79 78t81 74l137 108l41 37q10 10 0 16q-8 6 -24 15q-18 12 -38 22t-38 25q-23 16 -46.5 28.5t-47.5 24.5q-20 10 -40 21.5t-40 21.5q-47 23 -88 62q-23 18 -23 49t33 26q41 -2 68 -32q12 -16 29.5 -27.5t33.5 -24.5q20 -10 38.5 -23.5 t41.5 -23.5q29 -12 54.5 -30.5t51.5 -36.5q18 -12 37 -23.5t35 -26.5q16 -12 30.5 -24t31.5 -27q10 -10 13 -22.5t7 -24.5t-2 -14q-10 -10 -16.5 -20.5t-16.5 -20.5q-23 -18 -42 -38.5t-42 -41.5l-78 -68q-20 -16 -38.5 -35.5t-36.5 -35.5q0 -2 -2 -2q-23 -16 -42.5 -37 t-41.5 -39q-8 -6 -14.5 -14.5t-16.5 -14.5q-25 -23 -55 -12q-10 4 -19.5 6t-19.5 2q-20 0 -27 25q0 4 -1 9t-1 9z" />
<glyph unicode="?" horiz-adv-x="729" d="M-23 1049q-2 10 3 30q12 100 77 168q8 8 11 13q12 25 32.5 42t42.5 31q29 18 61 34.5t66 23.5q31 4 60.5 2t60.5 -11q117 -25 199 -104q72 -68 72 -156q4 -80 -15 -149q0 -10 -6 -19q-12 -23 -23.5 -47t-27.5 -47t-33.5 -42t-42.5 -32q-10 -6 -17.5 -13t-17.5 -11 q-33 -16 -66.5 -26.5t-72.5 -10.5q-16 0 -21.5 -5t-1.5 -24q4 -16 4.5 -34.5t2.5 -36.5q4 -35 3 -68t-1 -68v-63q2 -27 3 -51.5t-3 -48.5q-2 -12 0 -25.5t2 -26.5v-23t-4 -24q-4 -16 -5.5 -34.5t-3.5 -34.5q-6 -33 -36 -41q-16 -4 -34 -6t-34 2q-47 14 -53 59v6q0 76 -3 153 t1 169q0 31 -1 76t1 94q0 23 2 44t-2 44q-2 12 6 19t14 16q12 20 35 6q6 -4 13 -2t12 4q33 10 64.5 13t64.5 13q29 8 54 19.5t48 32.5q14 12 27.5 23t25.5 26q80 84 55 202q-4 29 -20 48.5t-39 35.5q-10 8 -20.5 17.5t-22.5 13.5q-35 14 -67.5 25.5t-67.5 9.5q-25 0 -45 -6 q-12 -4 -24.5 -7t-26.5 -7q-18 -4 -31 -17q-8 -6 -16.5 -12t-18.5 -10t-16 -12.5t-10 -16.5l-27 -51q-8 -18 -15.5 -36t-17.5 -34q-14 -20 -16 -41q-6 -20 -25 -20q-29 0 -45 5t-27 34zM146.5 -119q-5.5 21 7.5 43l26 47q6 10 17 13q63 24 116 -17q12 -10 14.5 -17t4.5 -34 q6 -59 -45 -86q-4 0 -8 -4q-18 -23 -54.5 -18.5t-58.5 34.5q-14 18 -19.5 39z" />
<glyph unicode="@" horiz-adv-x="1331" d="M-47 539.5q4 74.5 16 152.5q6 41 13.5 82t19.5 82q27 80 61.5 152.5t88.5 138.5q41 53 91 93t107 71q55 29 107 49q27 10 50 20.5t48 18.5q37 10 68 10h39.5t39.5 4q115 23 234 -18q25 -8 49.5 -15.5t48.5 -11.5q35 -8 62.5 -27.5t50.5 -46.5q29 -31 48 -67.5t36 -75.5 q12 -33 18 -65.5t13 -67.5q8 -23 2 -41q0 -12 2 -19q8 -16 7 -30.5t-5 -30.5q-2 -10 -1 -20.5t1 -20.5q4 -18 1 -36.5t-5 -37.5q0 -25 -5.5 -48t-9.5 -50q-2 -25 -10 -48.5t-16 -47.5q-10 -41 -32 -78t-44 -76l-6 -8q-23 -10 -39.5 -24.5t-34.5 -28.5q-12 -10 -25.5 -12.5 t-29.5 -2.5q-27 0 -33 -24q-2 -8 -10 -8q-18 2 -36 -1l-36 -6q-16 0 -30.5 2.5t-28.5 12.5q-4 4 -10.5 7t-10.5 5q-29 10 -48 31.5t-38 42.5q-10 10 -15 12t-20 -8q-43 -31 -88 -39q-39 -6 -77.5 -8t-77.5 14l-47 21q-25 12 -40.5 31.5t-27.5 41.5q-10 20 -17.5 43t-11.5 45 q-8 37 -10 74t2 74q2 33 16 65q12 31 24.5 61t31.5 58q27 39 58.5 69t68.5 56q14 10 31.5 17.5t35.5 11.5l27 8q76 20 145 -16q10 -4 18.5 -11.5t18.5 -13.5q12 -8 19 4l28 33q8 14 25 27q23 14 41 0q23 -18 33 -39q4 -10 6 -22.5t-2 -24.5t-7.5 -24.5t-7.5 -23.5 q-4 -12 -6 -24t-4 -25q0 -10 -1 -17t-3 -18q-4 -12 -4 -18q4 -16 0 -29.5t-10 -27.5q-10 -31 -14.5 -63t-8.5 -62q-4 -35 -7 -68t-13 -67q-8 -23 1 -43.5t21 -38.5q4 -8 17 -21q16 -16 41 -8q20 6 33.5 17.5t23.5 27.5q25 35 38 74t23 80l15 51q8 23 13 44t5 44q0 16 2 30.5 t6 30.5q4 29 5 58.5t6 58.5q4 16 3 34.5t-1 35.5q-2 16 0 31.5t-2 31.5q-4 29 -8.5 56.5t-24.5 50.5q-8 12 -10 20q-23 53 -72 76q-16 8 -32.5 17.5t-33.5 17.5q-47 23 -102 20q-12 -2 -23.5 -3t-23.5 1q-6 4 -10 0q-20 -10 -42 -9t-42 -1q-4 0 -7.5 -1t-7.5 -1 q-29 -10 -56.5 -20.5t-51.5 -28.5q-6 -4 -11.5 -7t-11.5 -6q-16 -4 -28.5 -14t-26.5 -22q-23 -18 -41 -40t-39 -42q-20 -18 -33.5 -41t-29.5 -45q-14 -18 -24.5 -39t-23.5 -41q-10 -14 -17 -29.5t-11 -32.5q-8 -27 -15.5 -51t-17.5 -51q-10 -29 -15 -58.5t-12 -60.5 q-8 -49 -13 -98t-5 -98q0 -33 1 -65t-1 -64q0 -18 5 -34t9 -32q4 -25 11.5 -48.5t19.5 -45.5q4 -6 8 -23q4 -23 13.5 -41t25.5 -37q16 -23 35.5 -40t44.5 -27q20 -10 40.5 -20.5t43.5 -14.5q10 -4 21.5 -9t23.5 -5l49 -4q41 -2 81 5t77 17q25 6 46 17.5t42 25.5 q20 14 38.5 29.5t41.5 27.5q16 10 28.5 20.5t26.5 20.5q12 12 21 5q6 -6 10 -12.5t0 -14.5q-10 -16 -15.5 -35.5t-13.5 -36.5q-16 -29 -45 -45q-31 -16 -55 -37q-29 -29 -76 -39q-20 -4 -39.5 -8t-36.5 -14q-10 -4 -18 -5t-19 -1q-47 -4 -96 -7t-96 7q-12 4 -24.5 3t-22.5 3 t-17.5 6t-15.5 6q-10 6 -21.5 7t-21.5 5q-35 10 -62.5 26.5t-54.5 39.5l-41 35q-10 10 -20 20.5t-19 22.5q-10 14 -21 27.5t-22 25.5q-18 18 -29.5 41t-23.5 45q-41 80 -49 170q-6 78 -2 152.5zM401 616q4 -29 11.5 -54t17.5 -52q12 -35 34.5 -45t51.5 -8q35 2 76 16 q10 4 16 9t17 10q18 6 29.5 19t23.5 28q4 6 4 20q0 37 1 73t11 70q14 51 24.5 102.5t33.5 100.5q2 2 2 5t2 5q4 12 -2 25q-20 31 -49 57q-16 12 -33 13q-31 2 -56.5 -10.5t-50.5 -28.5l-4 -6q-10 -16 -25.5 -28.5t-27.5 -29.5q-16 -23 -31.5 -45t-25.5 -49 q-10 -20 -18.5 -40.5t-14.5 -43.5q-8 -29 -13.5 -56.5t-3.5 -56.5z" />
<glyph unicode="A" d="M-55 -109q2 16 7 31t9 31q10 35 14.5 68.5t10.5 68.5l28 143q10 53 23.5 104.5t23.5 104.5q18 82 43 168q12 47 23.5 94.5t26.5 94.5q6 25 14 48t12 48q10 37 21.5 74t19.5 75q2 10 5 20.5t7 20.5l11 41q6 39 20 66q8 14 9 28.5t6 30.5q8 29 17 55.5t21 53.5q10 18 33 22 q10 4 21.5 5.5t21.5 3.5q4 2 6 1t4 3q10 10 21.5 8t21.5 -2q35 -2 54.5 -18.5t34.5 -39.5q23 -43 32 -96q10 -35 17.5 -71.5t11.5 -73.5q6 -47 14 -93t11 -94q2 -16 5 -29.5t7 -29.5q14 -53 25.5 -108.5t21.5 -110.5q10 -47 20.5 -91t24.5 -89q10 -31 14 -63t13 -62l28 -123 q10 -35 16.5 -67.5t10.5 -67.5q0 -23 8 -39q10 -29 15.5 -57.5t13.5 -57.5q2 -6 2 -20q-4 -16 -3 -30t-1 -30q-10 0 -9 6.5t-8 6.5q-4 -2 -8 -4.5t-8 -8.5q-6 -12 -23 -4q-16 6 -29.5 15.5t-27.5 19.5q-8 6 -10 14.5t-4 16.5q-8 31 -15.5 62.5t-17.5 60.5q-10 27 -13 52 t-7 52q-8 49 -17.5 97t-19.5 98l-23 120l-8 31q-4 12 -19 8q-29 -8 -59.5 -11t-62.5 -5q-43 -2 -86 -7t-86 -9q-10 0 -12.5 -4.5t-4.5 -10.5l-20 -104q-4 -23 -8.5 -46.5t-12.5 -45.5l-22 -93q-18 -72 -43 -141q-8 -27 -13 -57q-12 -57 -77 -84q-10 -4 -21.5 -5t-21.5 -1 q-16 0 -32 3t-32 7q-12 2 -15 6t-1 16zM298 561q5 -4 40 0t67.5 7t67.5 3q16 0 34.5 1t35.5 -1q16 0 19 3.5t-1 17.5q-4 29 -9 54.5t-11 53.5q-25 111 -51.5 220.5t-45.5 220.5q-2 10 -2 19.5t-8 17.5q-6 -6 -10 -21q-4 -14 -3 -27.5t-3 -25.5q-10 -29 -15.5 -56.5 t-15.5 -54.5q-14 -37 -16 -67q-4 -23 -6.5 -43.5t-10.5 -42.5q-6 -23 -12 -43.5t-10 -42.5l-33 -158q-6 -31 -1 -35z" />
<glyph unicode="B" horiz-adv-x="845" d="M-14 1065.5q0 56.5 2 112.5q0 37 2 73.5t6 71.5q0 16 10 23q16 10 30.5 19t35.5 5q16 -2 29.5 -2t27.5 -4q12 -2 26.5 2t28.5 2q10 0 20.5 -1t20.5 -7q6 -6 23 -6q78 -2 144.5 -31t123.5 -80q33 -29 54.5 -63.5t29.5 -75.5q5 -23 5 -49q0 -19 -3 -39q-4 -39 -13 -77 t-24 -73q-16 -37 -34.5 -69.5t-47.5 -61.5q-16 -16 -31.5 -32.5t-35.5 -30.5q-6 -7 -6 -13q12 -4 24 -6t23 -4q12 -2 23.5 -5t21.5 -7q49 -16 90 -44t76 -63q33 -33 58.5 -68.5t35.5 -82.5q7 -29 7 -58q0 -24 -5 -49q-2 -14 0 -28q2 -11 2 -22q0 -30 -16 -62 q-25 -41 -47.5 -81t-45.5 -81q-27 -45 -63 -70l-49 -39q-29 -23 -68 -32q-49 -16 -92 -37q-29 -16 -60.5 -18.5t-64.5 -2.5h-25.5t-27.5 -2q-17 -4 -32 -4q-22 1 -40 9q-31 14 -59 36q-53 47 -53 121q0 23 -2.5 44.5t-0.5 43.5q0 14 1.5 27.5t1.5 27.5q2 25 2 50 q-1 28 -3 56q-4 54 -8 107v41q1 24 1 48q0 36 -2 73q-3 62 -5 121q-2 51 -6 100.5t-6 98.5q0 41 -2 78.5t-4 76.5q-4 57 -4 113.5zM217 1104q3 -34 3 -69v-17q-1 -43 -1 -86l4 -33q4 -23 6 -44t0 -44q-4 -29 0.5 -54.5t6.5 -54.5q27 16 48 31t42 31q35 29 69.5 59.5 t57.5 71.5q16 27 30.5 52.5t18.5 56.5q4 27 7 41t1 23t-10 19.5t-25 32.5q-29 41 -66.5 66.5t-89.5 36.5q-35 8 -77 8q-14 0 -18.5 -3t-2.5 -18q4 -23 0 -41q-5 -28 -5 -50q0 -8 1 -15zM234.5 -53q-1.5 -19 3.5 -39q4 -14 6 -16.5t16 4.5q53 27 115 49q57 23 104 57l35 31 q39 35 64.5 76t29.5 94l4 47q6 34 8 70q0 6 1 12q0 30 -11 59q-2 2 -2 8q0 12 -5 22.5t-15 20.5q-37 39 -80 80q-22 24 -52 40q-23 13 -51 12q-9 0 -18 -1q-12 0 -16 2q-27 12 -51.5 9.5t-49.5 -13.5q-20 -6 -24 -11t-4 -28v-124q0 -14 2 -27.5t0 -28.5v-43t4 -43 q4 -31 1 -62.5t-7 -62.5q-4 -39 -7 -77q-1 -16 -1 -34q0 -23 2 -48q0 -16 -1.5 -35z" />
<glyph unicode="C" horiz-adv-x="686" d="M-25 434q0 92 7 184q4 55 8 110.5t12 111.5q18 133 66 270q14 43 31.5 85t43.5 81q29 41 68 70.5t86 44.5q33 10 65 10q39 0 76 -15q23 -10 41.5 -26.5t34.5 -36.5q8 -10 10 -26.5t4 -30.5q4 -29 3 -56.5t-1 -56.5q0 -18 -18 -25q-31 -10 -52.5 5.5t-25.5 44.5 q-2 10 -3 22t3 23q4 18 -2 31.5t-14 27.5v2q-16 25 -24.5 27t-35.5 -8q-10 -4 -21 -7.5t-22 -9.5q-35 -14 -47 -57q-14 -55 -21 -111.5t-11 -113.5q-4 -53 -7.5 -104.5t-7.5 -104.5q-4 -29 -4 -55.5t-4 -55.5q-4 -14 -1 -27.5t3 -29.5q0 -47 -1 -95v-18q0 -38 3 -76 q2 -25 3 -50.5t7 -49.5q14 -53 18.5 -106.5t4.5 -106.5q0 -20 6 -35q8 -16 11 -33.5t5 -36.5q4 -18 10.5 -32.5t14.5 -30.5q4 -4 6 -4q23 -12 47.5 -22.5t52.5 -2.5q16 6 29 4q20 -4 32.5 6.5t22.5 24.5q8 12 14.5 24.5t12.5 24.5q4 10 7 21.5t7 21.5q4 27 28 43.5t44 12.5 q16 0 23 -17q4 -20 4 -39.5t-11 -38.5l-10 -26q-18 -74 -76 -117l-41 -31q-47 -29 -94 -34q-17 -2 -34 -2q-31 0 -62 6q-45 10 -81 32.5t-71 51.5q-47 41 -80.5 90t-50.5 112q-27 94 -34 178q-4 41 -4.5 80t-2.5 78z" />
<glyph unicode="D" horiz-adv-x="815" d="M-5 1199.5q1 25.5 3 49.5q2 16 0 31.5t0 32.5q4 4 0 4q0 45 32 65q23 14 50 13q11 0 22 -2q16 -2 30.5 -4.5t31.5 -2.5q25 0 54.5 -4t53.5 -8q39 -8 78 -17t74 -26q23 -10 44 -22.5t42 -26.5q68 -51 121 -111q12 -14 22.5 -28.5t22.5 -30.5q2 0 6 -10l37 -109 q10 -27 10 -51q2 -37 8 -72.5t11 -72.5v-37v-84t-5 -84q-4 -31 -12 -61.5t-12 -61.5q-2 -16 -8 -33.5t-13 -34.5q-10 -37 -20 -74.5t-25 -74.5q-10 -31 -22.5 -60.5t-28.5 -58.5t-37.5 -54.5t-44.5 -49.5q-29 -31 -61.5 -57.5t-65.5 -55.5l-20 -18q-41 -41 -99 -54 q-23 -6 -41 -15t-40 -13q-23 -4 -45.5 -6.5t-45.5 -2.5q-12 0 -24 4.5t-25 8.5q-8 2 -8 10q-6 59 -8 115.5t-4 115.5q-2 47 -8.5 92.5t-10.5 92.5l-4 63q-2 29 -5 55.5t-1 55.5q1 16 1 32q0 24 -2 47q-1 16 -1 33q0 22 2 46q2 14 1 28.5t-1 30.5q0 49 -5 97q-4 34 -4 69 q0 14 1 28q2 29 0 59t0 58q0 25 1 50.5t1 50.5t1 50t-1 50q-4 25 -3 50.5zM203 1278q8 -4 12 -46t5 -92t1 -94.5t4 -56.5q6 -27 3 -52.5t1 -49.5q4 -41 6.5 -83t4.5 -83q4 -82 7 -164q1 -27 1 -55q0 -55 -4 -111q-2 -29 -1 -57.5t9 -57.5q4 -23 7 -42t3 -41q0 -20 1 -40 t5 -40q2 -4 1 -9.5t-1 -9.5q0 -12 -4 -23.5t0 -21.5q6 -18 6 -37.5t-2 -38.5q0 -10 -1 -17t1 -15q6 -2 9.5 0t7.5 6q23 14 42 31.5t40 33.5q31 23 56.5 51.5t49.5 57.5q35 43 53 86q23 53 45.5 107.5t32.5 113.5q6 37 14.5 75t8.5 77q-2 35 -2 69.5v69.5q1 20 1 39 q0 29 -2 59l-6 98q-2 12 -4 23.5t-6 22.5q-6 18 -13 36.5t-11 36.5q-10 35 -27.5 65.5t-48.5 53.5q-23 16 -42.5 33.5t-43.5 32.5q-54 27 -106 44q-47 15 -100 15h-13z" />
<glyph unicode="E" horiz-adv-x="630" d="M11 746q1 54 1 106q0 27 1 51.5t3 50.5q3 31 3 62q0 16 -1 30q-2 44 -2 91v40.5t2 41.5q2 10 3.5 19t5.5 17q4 6 5 11.5t-3 13.5q-8 10 6 18q20 12 47 17q8 2 14 3t15 1q29 0 54 4t54 6q45 2 88 6q29 3 58 3q15 0 30 -1q29 -2 57.5 0t57.5 13q23 6 42 -0.5t40 -10.5l6 -6 q4 -4 4 -6q-4 -6 -6 -6t-3 1t-3 1t-6 -4q4 -8 10 -8t8 -4q2 -2 2 -4q-4 -10 -16.5 -19.5t-20.5 -13.5t-15 -7t-15 -8q-23 -12 -47.5 -15t-51.5 1q-10 0 -18 1t-19 3q-20 6 -38.5 3t-38.5 -5q-12 0 -22.5 1t-22.5 3q-4 0 -6.5 1t-6.5 1q-23 0 -26.5 -6t0.5 -29t5 -46t1 -48 q0 -18 -2 -37.5t2 -38.5q2 -6 0 -12q-4 -10 -4 -22.5v-22.5q0 -16 1 -32.5t-3 -32.5q-2 -10 -1 -19.5t-1 -19.5q0 -16 12 -15h31q29 2 56.5 1t55.5 -5q8 -4 16.5 -1t16.5 7q14 2 25 -8q6 -8 12 -14t8 -21q2 -16 -6 -30.5t-21 -16.5q-29 -4 -56.5 -10t-55.5 -10q-16 -2 -37 4 q-20 6 -45 2q-14 0 -14 -16q0 -10 1 -21.5t3 -21.5q4 -45 4 -89.5t-4 -91.5q-6 -66 -7.5 -132t-5.5 -132l-12 -246q0 -14 -2 -26.5t-2 -24.5q0 -14 12 -14q22 1 44 1h22h13q27 0 54 3l140 18q31 4 61.5 1t60.5 -13q8 -2 14.5 -8t16.5 -12q-14 -10 -14 -14.5t12 -14.5 q-10 -4 -18 -8t-19 -8q-31 -8 -60.5 -7.5t-57.5 -9.5q-11 1 -22 1q-22 0 -43 -5q-32 -8 -65 -12q-20 -2 -39.5 -1t-39.5 -1q-4 -2 -10.5 -1t-12.5 -1q-29 -12 -58.5 -13.5t-58.5 -5.5q-8 -1 -15 -1q-51 0 -87 36q-4 4 -7 10t-3 15l-11 178v35q2 27 1 51t-3 49v58.5t-2 58.5 q-1 14 -1 28q0 20 2 39.5t2 39.5q0 13 -1 26q-3 34 -3 69v18v29q0 30 -1 60q-3 42 -3 85v22z" />
<glyph unicode="F" horiz-adv-x="587" d="M-10 84q-1 20 -1 40q0 40 3 80q4 60 6 120v84q0 20 1 39.5t1 39.5q1 23 1 47v23q-1 35 -5 70q-2 20 -1 40.5t1 41.5q0 53 1 108v22q0 44 -3 87v42t-2 40q0 72 6 143q4 23 3 42t3 42q4 16 4 31.5t4 31.5q2 6 2 13.5v13.5q0 4 -3 9t1 9q8 14 19 19q25 12 49 12q16 2 31.5 2 t29.5 -4q23 -4 42.5 -4t39.5 2q39 2 76 5t74 3h49t49 -2q16 -4 29 0q29 8 63 -2q12 -4 24.5 -7t24.5 -3q16 0 25.5 -11.5t9.5 -23.5q-2 -14 -16.5 -26.5t-30.5 -8.5q-25 2 -45 -2q-6 -4 -16 0q-16 4 -34 3t-34 -3h-72q-25 0 -48 -3t-48 -5q-12 0 -25.5 -1t-27.5 -5 q-18 -4 -17 -18q0 -4 -1 -5.5t-1 -5.5v-86h5v-291l10 -6v-10q20 -2 40.5 -3t41.5 3q12 4 25.5 1t25.5 -5q8 0 27.5 -1t41 -1h41h27.5q29 0 37 -23q10 -23 -12 -43q-17 -15 -39 -15q-12 0 -25 5q-6 2 -25.5 3t-41 1h-40t-26.5 -2q-25 -4 -49.5 -5t-48.5 -1v-33 q2 -29 -3 -57.5t-5 -56.5q0 -25 -2.5 -49.5t0.5 -49.5q0 -42 2 -80v-17q0 -30 -5 -62v-11q3 -18 3 -35t-3 -35q-6 -34 -6 -69q-2 -37 -5 -75t-3 -74q-2 -23 -5 -46.5t-19 -44.5q-2 -2 -2 -4t-3 -2q10 -16 3 -26.5t-17 -14.5q-16 -10 -30.5 -19t-30.5 -13q-12 -4 -23.5 -5.5 t-21.5 -9.5q-4 -2 -13 -2q-31 6 -49 25q-14 14 -14 28q-3 31 -3 62v15v25q0 25 -1 50z" />
<glyph unicode="G" horiz-adv-x="905" d="M-25 547l7 164q2 29 6 59.5t8 58.5q4 37 9 73t13 71q14 59 31 117.5t41 113.5q20 41 44 79t54 73l19 22q12 16 29 13q23 -4 42 1t37 9q30 7 58 7q14 0 27 -2q40 -5 81 -22q14 -6 24.5 -15t20.5 -19l31 -31q32 -32 32 -70q0 -6 -1 -12q0 -16 2 -25q10 -29 7 -59.5 t-11 -58.5q-4 -8 -4 -13q-2 -6 -4.5 -13t-10.5 -9q-10 -2 -20 -3t-21 5q-25 12 -35 32.5t-12 45.5q-2 16 -1 30.5t1 30.5t-2 29.5t-4 27.5q-4 18 -16 29q-10 4 -15 10q-10 12 -32 13q-20 -2 -36 -13.5t-20 -31.5q-6 -23 -20 -37q-25 -31 -31 -70q-4 -31 -15.5 -60.5 t-17.5 -60.5l-24 -125q-6 -23 -9.5 -47t-7.5 -49q-4 -23 -3 -47.5t-1 -48.5q-2 -27 -4 -51.5t0 -51.5q0 -31 -2 -62.5t2 -61.5q4 -53 11.5 -107.5t19.5 -108.5q10 -35 21.5 -69.5t21.5 -69.5q4 -14 6 -28.5t6 -30.5q4 -18 13.5 -33.5t17.5 -32.5q12 -29 33.5 -47t46.5 -35 q8 -4 12 -8q16 -23 41 -24.5t47 -8.5q18 -6 29 17q25 43 37 90q14 47 20 95t14 95q6 53 11.5 103.5t9.5 103.5q4 29 4 59.5t2 59.5l8 80v20q0 12 -12 11q-42 -15 -88 -15h-16q-8 2 -23 -2q-28 -5 -54 -5q-35 0 -65 9q-33 10 -54.5 33t-37.5 51q-4 10 1 17.5t1 17.5q0 2 4 3 t8 1h37q31 4 56.5 1t52.5 -7q20 -4 39.5 -5t38.5 -9q6 -4 14 -2l16 4l66 12q14 4 12 14t4 13.5t13 1.5q20 -4 39.5 -8.5t37.5 -8.5l33 -6q20 -6 33 -24q16 -27 20.5 -55.5t-0.5 -59.5q0 -12 -1 -24.5t3 -24.5q4 -18 2 -37t-6 -35l-20 -143q-4 -16 -8 -25q-4 -10 -5 -19.5 t-3 -19.5q-2 -20 -8.5 -37.5t-10.5 -35.5q0 -2 -1 -4.5t-1 -4.5q-4 -31 -14.5 -60.5t-14.5 -60.5q-4 -29 -13 -54t-19 -52l-7 -10q-6 -31 -20 -56.5t-31 -52.5q-8 -10 -17 -20.5t-20 -18.5q-4 -4 -8 -6t-10 -2q-20 -4 -39.5 -8t-40.5 -8q-29 -4 -55.5 0t-54.5 8 q-12 2 -25.5 4t-28.5 2q-35 4 -65.5 14.5t-59.5 32.5q-61 47 -102 105.5t-68 130.5q-18 55 -30.5 111.5t-22.5 115.5q-4 29 -10 58.5t-10 60.5q-4 33 -6.5 64.5t-2.5 64.5z" />
<glyph unicode="H" horiz-adv-x="956" d="M8 624q2 74 6 148q4 68 5 136.5t6 135.5q4 43 8 86.5t8 86.5q0 4 -1 9t-1 9q-4 10 -6 17.5t-6 13.5q-14 27 4 47q4 4 4 11t-2 13q0 37 33 31h26q4 -2 9 -1t10 -1q23 -12 47 -19.5t43 -25.5q18 -18 36.5 -35.5t24.5 -46.5q4 -16 4 -34.5t4 -35.5q6 -29 8 -59.5t5 -60.5 q2 -25 1 -49.5t-3 -51.5q0 -10 1 -20t3 -21q5 -30 5 -61v-10q-1 -36 -5 -72q-2 -14 -1 -28.5t-3 -28.5q10 -4 24 0q41 10 82 22t82 19q35 6 69.5 12t69.5 10q12 2 15.5 5t3.5 16q-2 72 -2 140t4 140q1 23 1 47v23v14q0 28 3 55q3 23 3 46q0 11 -1 22q-2 33 -2 68q2 4 0 9 t-4 11q-6 25 18 31q20 5 37 5q62 0 88 -65q4 -12 9 -24.5t12 -24.5q6 -12 6 -26q4 -33 9 -65t9 -64q4 -27 4 -51.5v-49.5q2 -33 2 -63.5v-61.5q0 -18 6 -37q12 -34 12 -68t-5 -73l-15 -111q-5 -33 -5 -68q0 -22 2 -46q3 -34 3 -67q0 -26 -2 -50q-4 -31 -7 -62.5t-7 -64.5 q-2 -35 -5 -70.5t-7 -70.5q0 -14 1 -27.5t1 -25.5q-2 -29 -4.5 -55.5t-8.5 -53.5q-6 -23 -5 -46.5t-1 -47.5v-8q-10 -16 -20.5 -25.5t-14.5 -26.5q0 -8 -2 -13t-6 -13q-6 -12 -14 -13.5t-17 -1.5q-14 0 -22 21q-27 78 -29 154q-2 29 -6 58.5t-8 59.5l-6 133q-2 32 -2 63.5 t2 63.5q2 29 1 54.5t1 54.5q1 27 1 55v27q-1 41 -3 82q0 25 -1 48t-5 50q-14 0 -27.5 -5t-28.5 -9q-41 -14 -82 -28.5t-81 -25.5q-25 -6 -50.5 -9t-50.5 -7q-20 -4 -23 -8t-6 -25q-2 -25 -1 -50t1 -50q0 -29 2 -59.5t-8 -59.5q-2 -4 -1 -9t1 -9q0 -14 -1 -26.5t-7 -26.5 q-6 -16 -6 -34v-34t-1 -33.5t-5 -34.5q-4 -23 -6 -43t-2 -41q-2 -27 -7.5 -51t-9.5 -49q-2 -4 -3 -9t-5 -9q-12 -12 -10 -27q0 -12 -6 -14q-4 -4 -4 -8.5t-2 -8.5q-2 -6 1 -13t-3 -11q-8 -4 -17.5 -8.5t-19.5 -4.5h-15q-25 6 -51 -4q-16 -4 -35.5 6.5t-27.5 26.5 q-10 16 -12.5 34.5t-2.5 37.5l4 71q2 26 2 51q0 19 -1 37q-2 26 -2 53q0 17 1 34q0 29 -1 58.5t-1 57.5v85t-4 83q-3 49 -3 98q0 25 1 49z" />
<glyph unicode="I" horiz-adv-x="430" d="M55 1352q-6 20 13 28q20 8 39.5 7t42.5 -5q27 -6 45 -21t34 -32q12 -14 18.5 -31.5t10.5 -35.5q1 -16 1 -32t-1 -32q-6 -27 2 -61q4 -23 2 -44.5t2 -43.5q4 -29 2 -60t6 -59q4 -10 0 -21q-4 -25 0 -49q6 -23 4 -45t3 -45v-76q6 -16 7 -30.5t3 -30.5q2 -23 3 -43.5 t5 -40.5q2 -20 3 -40t5 -40q2 -12 3 -35.5t2 -49.5t2 -49.5t1 -35.5q-2 -25 -3 -49.5t-1 -48.5q0 -23 -1 -46.5t-1 -45.5l-4 -33q-6 -30 -6 -60v-16q4 -29 3 -56.5t-7 -56.5q-4 -10 -8 -16t-9 -14q-6 -10 -15 -17.5t-11 -19.5q0 -4 -4 -4q-16 2 -27 -9q-8 4 -17 0t-20 7 q-6 6 -14 9t-18 7q-27 8 -33 43q-10 51 -10.5 101.5t-4.5 101.5q-4 29 -6 57.5t-6 56.5q-2 8 -2 16.5v16.5q0 18 -1 48t-1 60.5t-1 60.5t-1 48q-2 66 -4 128.5t-6 127.5l-11 226q-3 48 -3 95q0 23 1 47q1 35 1 69.5t-1 70.5q0 29 -1 58.5t-1 60.5q0 8 -1 14t-3 15z" />
<glyph unicode="J" horiz-adv-x="768" d="M-14 188v101.5t10 99.5q6 33 18 62q14 29 52 16q41 -14 43 -49q4 -20 -3 -37q-2 -8 -2 -16.5v-16.5q2 -29 2 -55.5t5 -54.5q4 -16 -0.5 -29.5t-6.5 -30.5q-4 -29 0.5 -57.5t12.5 -57.5l24 -77q6 -20 20.5 -38t31.5 -34q14 -14 28.5 -25.5t34.5 -19.5q18 -8 36.5 -9 t37.5 1q16 2 24 12t15 21q16 31 27.5 62.5t17.5 66.5q6 25 6 55q0 16 4 29.5t4 29.5q4 29 5 55.5t-1 55.5q-4 39 -4 75.5v75.5q-2 33 -4 65t-2 64q0 27 -2 52.5t-4 50.5v12q-4 35 -4 68.5t-4 68.5q0 14 1 27.5t-3 28.5q0 12 -3.5 23t-3.5 24q0 35 -4 71.5t-4 73.5v92t-2 92 q-2 18 -1 37t1 37q0 6 6 12q12 8 21 11q10 0 20 -1t21 -1v2q8 2 16 5t19 3q20 2 37.5 -3t35.5 -9q20 -6 27 -27q4 -10 8 -20.5t4 -20.5q2 -16 6 -31.5t6 -31.5q0 -16 -1 -33t-1 -33q0 -6 -1 -12t1 -13q4 -29 5.5 -59t1.5 -59q0 -16 -1.5 -31.5t3.5 -32.5q10 -35 10 -63 q0 -43 3 -86q1 -18 1 -37q0 -24 -2 -49q-2 -23 4 -48q10 -29 8 -56t-6 -56q-4 -12 0 -25q6 -20 2 -41q-4 -23 -4 -44t4 -44q1 -8 1 -16q0 -24 -5 -53q-2 -25 -4 -48.5t-2 -48.5q0 -27 -6 -50t-17 -46q-6 -16 -6 -31q-2 -16 -3 -31.5t-5 -31.5v-4q-12 -23 -21.5 -49.5 t-25.5 -48.5q-8 -10 -18.5 -17.5t-20.5 -17.5q-6 -6 -13.5 -11.5t-15.5 -9.5l-2 -12q-16 -10 -34.5 -18.5t-38.5 -14.5q-23 -10 -50 -6q-18 2 -36.5 1t-36.5 -1q-63 0 -113 37q-35 23 -62.5 48.5t-50.5 57.5q-18 27 -29.5 54.5t-19.5 56.5q-22 75 -22 141v6z" />
<glyph unicode="K" horiz-adv-x="745" d="M-9 3q-1 21 -1 43q0 29 2 58q0 23 2 45.5t4 45.5q4 49 6 98q1 16 1 33q0 33 -3 65q-1 24 -1 48q0 25 1 49q2 50 2 96q0 41 1 82t1 82q2 37 2 74.5t-2 74.5q0 14 1 28.5t1 30.5q0 37 -2 74q-1 12 -1 25q0 25 3 49q4 25 2 48.5t-2 45.5l4 117v65q0 20 13 23q23 6 52 13 t52 -1q14 -2 23 -14q29 -35 55 -78q6 -12 6 -23q2 -20 6 -38.5t0 -40.5q-4 -16 -3 -31.5t1 -32.5v-28q0 -56 -6 -111q0 -4 -1 -7t1 -7q8 -25 4 -50.5t0 -50.5q2 -14 1 -29.5t-1 -31.5q0 -4 4 -8q8 4 13.5 10t11.5 12q41 39 77.5 82t79.5 80l37 35q45 37 85 79t81 80l111 103 q10 8 19 13t22 1q27 -8 43 -37q6 -12 1 -21t-12 -18q-20 -29 -42.5 -52t-45.5 -46t-46 -45.5t-44 -46.5q-25 -31 -53.5 -53.5t-52.5 -48.5q-10 -10 -16.5 -17.5t-14.5 -17.5q-16 -20 -35.5 -39t-38.5 -37l-133 -135q-10 -10 -11 -17.5t7 -23.5q6 -10 12.5 -21.5t16.5 -21.5 q10 -12 15 -26.5t16 -26.5q25 -39 48 -77t50 -73q10 -10 16 -23.5t13 -25.5q14 -25 26 -47.5t21 -50.5q4 -16 12 -27.5t14 -22.5q25 -39 43.5 -79.5t40.5 -77.5q25 -39 44.5 -81t47.5 -79q8 -10 13.5 -21.5t13.5 -21.5q8 -14 -2 -25q-23 -18 -39 -20q-23 -4 -45.5 1 t-36.5 34q0 2 -2 4q-33 39 -56.5 82t-51.5 84q-29 41 -54.5 85t-54.5 87l-37 65q-25 43 -51.5 83t-52.5 81q-4 6 -9.5 14.5t-15.5 12.5q0 -25 2 -35q1 -10 1 -20q0 -24 -4 -48q-5 -32 -5 -67q-2 -20 -3 -40t1 -38q0 -14 -2 -27.5t0 -27.5v-36t2 -36q0 -23 -2 -46.5t-6 -45.5 q-2 -12 -3 -25.5t1 -25.5q2 -4 0 -8.5t-2 -8.5q-4 -10 -6.5 -21.5t-2.5 -21.5q-2 -16 -14 -29.5t-29 -13.5q-6 -2 -11 -1t-11 1q-12 0 -17 -6q-10 -10 -27.5 -9t-27.5 5l-20 8q-31 14 -35 53q-2 4 -2 15q0 49 -3 99z" />
<glyph unicode="L" horiz-adv-x="593" d="M-2 702q0 47 2 92.5t2 92.5q-2 27 -2 52.5t4 49.5l8 117q2 47 6.5 91t8.5 89q0 10 1 17.5t-3 15.5q-4 10 8 16q38 13 80 13q31 0 63 -7q20 -6 35 -24q23 -23 31 -48.5t12 -51.5q4 -16 2 -34t-4 -34q-4 -31 -5 -60.5t1 -62.5q2 -23 2 -43t-6 -43q-2 -6 -2 -18q3 -28 3 -57 v-14q-1 -36 -3 -71v-10q0 -27 1 -52.5t-1 -49.5q-2 -23 -1 -42.5t1 -41.5q2 -25 0 -48.5t-4 -48.5q-4 -12 0 -24q4 -27 -2 -49q-4 -12 0 -25q2 -23 2 -53.5t-2.5 -64t-4.5 -65.5t-6 -52q-12 -74 -18 -140q0 -10 -4 -22q0 -12 2 -15.5t16 -3.5q24 1 48 1q41 0 83 -4 q66 -7 131 -15l41 -6q29 -6 45 -35q10 -20 -8 -27q-23 -8 -45 -18t-49 -6q-12 4 -24.5 3t-24.5 -1v-2h-18.5t-18.5 2q-18 2 -40 2q-27 0 -61 -3q-60 -5 -102 -11q-23 -4 -43 -2t-43 6q-18 0 -37 18q-6 8 -14 15.5t-12 17.5q0 4 -2 4q-16 10 -17.5 23.5t-3.5 27.5 q-2 16 -1 30.5t-1 31.5q-4 25 -3 48t3 46q0 25 -1 49.5t1 48.5v43v54.5t1 53t1 42.5q0 10 -2 14q-2 70 -4 138.5t-2 139.5z" />
<glyph unicode="M" horiz-adv-x="1071" d="M-6 180q-2 23 0 45.5t2 44.5q-1 26 -1 53t1 54.5t1 54t-1 53.5v193q2 57 4 113.5t6 113.5q2 23 2 45q0 28 -3 56.5t-3 56.5q0 23 2 45q4 37 7 73t9 72l9 41q4 10 4 17.5v15.5q0 18 5 25.5t21 13.5q12 4 35 4h35q4 2 6 1t4 -1q14 3 26 3q45 0 79 -38q29 -31 53.5 -64.5 t40.5 -72.5q18 -43 35.5 -87t40.5 -85q14 -23 27.5 -46.5t25.5 -47.5l31 -62q10 -18 18 0q25 47 49.5 94.5t46.5 94.5q31 66 63 128t73 122l24 37q6 14 19 16q16 4 33.5 7t33.5 -1q18 0 27 -8q25 -16 40 -39t17 -55q3 -31 3 -62v-16q-1 -39 -1 -80v-166q0 -41 1 -81t3 -81 v-16q0 -25 -4 -55q-4 -20 -2 -35q2 -18 1 -37t-3 -35q-2 -29 -1 -57.5t-1 -57.5v-27.5t-2 -29.5v-58.5t-2 -58.5v-75q-4 -72 -4 -145t-6 -144q0 -10 -3 -18.5t-3 -18.5q-2 -10 -17 -14q-27 0 -39 10l-33 31q-10 10 -14 24t-4 31q0 39 2 77q1 19 1 37.5t-1 36.5q-2 18 -2 37 q0 23 3 46q4 30 4 59q0 12 -1 24q-1 19 -1 38q0 47 4 93q5 66 5 131l9 156v67.5t2 67.5q0 29 2 56.5t6 56.5q4 23 3 47.5t-3 46.5q-2 27 -3 53.5t-1 53.5q4 16 -4 22q-4 -2 -9 -10q-16 -35 -31.5 -67.5t-31.5 -67.5q-23 -47 -45.5 -95.5t-48.5 -95.5q-41 -74 -92 -141 q-16 -18 -35 -33.5t-37 -32.5q-2 -4 -10 -8q-16 -8 -22.5 -5t-10.5 20q0 10 -6 10q-18 6 -25.5 20.5t-17.5 26.5q-35 47 -62.5 96t-56.5 101q-12 23 -23.5 46t-21.5 46q-4 4 -6 10t-6 10q-6 0 -7 -6q2 -29 0 -55.5t-4 -55.5q-2 -72 -4 -143.5t-6 -142.5q-2 -29 -3 -57.5 t1 -57.5q1 -22 1 -43v-21q-1 -32 -5 -65q-4 -29 -5 -59.5t-3 -59.5q-4 -40 -5 -76v-14q0 -30 3 -61q4 -23 5 -47.5t3 -47.5q0 -6 4 -18q0 -4 2 -7t-2 -5q-8 -8 -7 -16.5t1 -16.5q-6 -41 -41 -59q-6 -4 -12.5 -6.5t-10.5 -6.5q-10 -10 -19 -12t-20 2q-23 6 -44 13.5t-42 23.5 q-23 20 -22 55v107.5t-2 107.5z" />
<glyph unicode="N" horiz-adv-x="944" d="M-2 1100v51v33q0 14 2 22v31q-2 23 1 41t7 37q2 16 17 31q6 6 15 12t19 6q6 0 19 -4q14 -6 29.5 -10t31.5 -9l6 -2q12 -4 20.5 -11t16.5 -17l4 -4q4 -4 4 -9l15 -12q18 -18 29.5 -39.5t19.5 -44.5l33 -78l20 -53q4 -8 6 -15t-2 -18q0 -6 6 -12v-2q23 -35 39.5 -73 t30.5 -72q6 -18 19 -45q20 -47 31.5 -86t15.5 -80q2 -43 30 -105q4 -8 6.5 -15t6.5 -16l10 -26l31 -76q10 -25 21 -51.5t24 -52.5q10 -18 17 -39t13 -41q6 -14 11 -27q14 -39 30.5 -80t38.5 -82v4q2 6 3 11.5t1 11.5q0 14 1 26.5t1 26.5q0 20 1 41t3 41v10q2 29 4.5 58.5 t0.5 58.5q0 43 -7 80l-2 29v4q-2 10 -2 28v38t-2 38t-2 35.5v34.5v51q-9 28 -9 67q0 13 1 27q0 6 -1 11.5t-1 9.5q-4 12 -4 20v123v102.5t2 102.5v31q0 16 1 33.5t-1 35.5v25v27.5t-2 27.5q-2 33 24 45q29 10 54 -16q20 -25 18 -53q-2 -6 -1 -13.5t1 -13.5v-14 q-1 -22 -1 -43v-21q1 -31 3 -61q0 -29 1 -59.5t-1 -61.5q0 -29 2 -57.5t6 -61.5q6 -41 7.5 -80t1.5 -78q0 -16 1 -29.5t3 -29.5q0 -12 1 -25.5t1 -27.5v-21q2 -10 2 -19v-20v-55v-58.5t-2 -58.5v-35.5t2 -35.5q1 -22 1 -43t-1 -43q-2 -8 -2 -16.5v-16.5q0 -6 -1 -12.5 t-1 -12.5q-2 -16 -1 -33.5t1 -33.5q0 -18 1 -38t-3 -40q-2 -14 -2 -31.5t2 -38.5q2 -10 1 -22.5t-1 -22.5q-2 -6 -2 -16q-2 -14 -19 -31l-4 -4q-10 -10 -21.5 -19.5t-27.5 -9.5h-10q-53 12 -74 58q-4 10 -8 21l-8 22l-41 100q-25 53 -49.5 109.5t-47.5 115.5l-16 43l-37 94 q-16 35 -30.5 72t-26.5 74l-19 49l-8 20q-10 27 -18.5 52.5t-16.5 52.5q-10 41 -24.5 79t-28.5 77l-37 100v-49l4 -56q2 -23 3 -45t1 -45q2 -29 3 -56.5t6 -51.5q1 -24 1 -45t-1 -41q0 -14 -1 -27.5t-1 -25.5v-24.5t-3 -25.5q8 -23 8.5 -44t0.5 -44q-2 -10 -2 -22v-23 q4 -27 -2 -53q-4 -8 -3 -16.5t3 -18.5q0 -6 1 -12t1 -12v-17v-21t-4 -22q-2 -8 -1 -16t1 -19q2 -2 2 -10v-45v-30.5t2 -28.5q6 -47 6 -90q0 -14 1 -27.5t1 -26.5q0 -10 4 -22q4 -16 2 -28.5t-6 -26.5l-2 -2q-4 -12 -13 -13q-2 0 -4 2q-8 0 -14 -1t-14 -3q-10 -2 -20.5 -3 t-20.5 1h-6q-12 -4 -19 -4q-12 0 -21.5 5t-19.5 11l-4 2q-35 23 -35 60q-2 23 -3 42t-5 40q-2 14 -3 26.5t-1 24.5l-4 41q0 14 -1 28.5t-3 28.5q-2 16 -2 32.5v33.5v30.5t-2 28.5l-6 80q0 20 -1 39.5t-4 40.5l-2 23q-4 32 -6 64q-1 16 -1 32t1 33q1 24 1 47.5t-1 47.5 q-2 48 -4 95l-2 10q-2 29 -2 59.5v59.5v8q0 6 1 12.5t1 12.5t1 13t1 15l-2 33l-6 99q-2 27 -2 53z" />
<glyph unicode="O" horiz-adv-x="888" d="M-25.5 696.5q0.5 18.5 0.5 36.5q2 70 19 141q6 29 8 60t10 59l15 49q14 53 34.5 102.5t44.5 96.5q16 31 35 59.5t45 53.5q20 20 50 26q12 2 23 5.5t24 7.5q35 14 63 14q4 0 6 2q31 10 60.5 7t60.5 -11q18 -4 37.5 -7t38.5 -9q31 -10 56.5 -29t49.5 -37q23 -16 35 -39.5 t23 -48.5q4 -10 8 -18.5t12 -16.5q20 -25 25 -65q2 -25 6 -48.5t2 -50.5q20 18 36.5 38t26.5 42q12 29 22.5 55.5t25.5 53.5q6 12 9 24.5t7 26.5q4 16 23.5 26.5t39.5 6.5q14 -4 21.5 -18.5t3.5 -33.5q-8 -35 -19.5 -66.5t-27.5 -62.5q-8 -10 -12 -21t-9 -24 q-6 -20 -17 -36.5t-24 -32.5q-12 -16 -16 -25q-27 -43 -72 -76q-16 -10 -14 -26q6 -25 0 -53q-4 -18 -2 -38t0 -40q0 -23 1 -47.5t1 -49.5q0 -10 -2 -16q-8 -23 -8 -46.5v-45.5q0 -55 -4 -109.5t-13 -109.5q-4 -35 -13 -68t-19 -67l-11 -64q-4 -39 -22.5 -71.5t-40.5 -65.5 q-16 -23 -35.5 -44.5t-38.5 -43.5q-14 -16 -32.5 -24.5t-36.5 -18.5q-4 -2 -6.5 -2t-6.5 -4q-25 -18 -53.5 -21.5t-56.5 -5.5q-43 0 -95 10q-16 4 -30.5 13.5t-30.5 15.5q-31 16 -57.5 37.5t-48.5 48.5q-14 16 -23.5 34.5t-19.5 39.5q-51 115 -70 241l-10 103q0 12 -2 24.5 t-2 24.5q-6 56 -6 112q0 5 -1 11q0 51 5 102v13q-6 16 -5.5 34.5zM176 473q4 -41 7 -82t10 -82q4 -37 11 -73.5t7 -73.5q4 -35 16 -60q8 -14 11 -28q10 -31 30 -51q8 -10 16.5 -17.5t12.5 -19.5q8 -18 22.5 -28.5t30.5 -16.5q23 -8 45 -2q25 6 47.5 18t44.5 23q8 2 12.5 8 t8.5 12q10 18 23.5 34.5t25.5 33.5q18 23 27 41q23 47 31 97t16 101q4 14 -2 25v10q10 18 8 38.5t2 41.5q8 41 10 82t6 82q0 14 1 27.5t-3 27.5q-2 18 -2 35.5t4 34.5q0 8 2 14t2 14v109q0 18 -16 18q-18 0 -36.5 3t-35.5 5q-12 0 -21 4.5t-20 8.5q-14 8 -26 15t-27 13 q-10 4 -18 11.5t-17 15.5q-14 12 -23 27.5t-20 31.5q-10 14 -18 31t-12 35q-7 43 -11 86q-1 10 -1 21q0 33 8 65q4 14 6 28.5t6 30.5q-45 -47 -77 -104t-53.5 -133t-34.5 -171t-24 -216q-2 -20 -2 -40v-42q-2 -29 -7 -58.5t-3 -60.5zM465 1128q2 -20 6 -39.5t16 -37.5 q12 -16 26.5 -28.5t31.5 -27.5q12 -10 26 -12q16 0 33 -1t33 -3t14 16q-4 27 -8 52.5t-8 52.5q-6 45 -27 82l-24 49q-6 16 -21 24q-10 4 -17 10.5t-11 16.5q-4 14 -17 14q-16 0 -22 -14q-10 -16 -11 -33q-4 -41 -14 -73q-6 -25 -6 -48z" />
<glyph unicode="P" horiz-adv-x="632" d="M-6 1264q0 25 2 49t6 51q0 16 -4 25q-10 27 18 28h11q39 0 77 -12q14 -4 28.5 -7t31.5 1q6 4 16 -2q29 -14 64 -15q16 0 31.5 -2t31.5 -6q43 -10 80 -27.5t72 -41.5q68 -47 104 -117q16 -27 23.5 -56.5t9.5 -58.5q2 -10 1 -19.5t1 -19.5q0 -10 -2 -16t-6 -17 q-8 -16 -12.5 -33.5t-14.5 -33.5q-16 -27 -31.5 -51.5t-39.5 -44.5l-5 -4q-23 -35 -54.5 -58.5t-63.5 -46.5q-10 -8 -20.5 -12t-20.5 -10l-103 -43q-18 -6 -18 -25q0 -16 1 -31.5t-1 -32.5q-1 -18 -1 -35q0 -31 4 -61q7 -47 11 -96q2 -23 1 -46t-1 -48q0 -45 4 -89t8 -89 q2 -16 0 -33t0 -33q0 -29 -1 -54.5t-1 -53.5q0 -8 1 -15.5t-1 -13.5q-2 -16 -8 -30.5t-28 -18.5q-6 0 -12.5 -3t-12.5 -6q-14 -5 -27 -5q-28 0 -53 22q-20 16 -26.5 36.5t-10.5 43.5q-4 43 -7 86t-7 86q-4 45 -6 89t-6 89q-3 26 -3 51q0 13 1 25t1 25q0 25 -3 51 q-4 40 -4 80q0 5 0.5 10t0.5 10q0 40 -4 80q-2 35 -5 70.5t-7 70.5q-2 23 -2 44.5v43.5q0 20 1 40t-1 40q-4 63 -4 125.5t-2 124.5q0 18 -1 37.5t-1 38.5zM193 1237q-1 -16 -1 -31q0 -31 3 -61t3 -61q0 -15 -1 -31v-20.5t2 -20.5q4 -45 5 -89t5 -89v-66q33 16 62.5 27.5 t54.5 33.5l51 43q39 33 61 70q10 16 18.5 34.5t18.5 35.5q17 32 19 64q1 7 0 14q0 26 -7 53q-8 23 -28 47q-16 16 -33.5 28.5t-36.5 24.5q-25 20 -51 21q-12 0 -16 6q-4 8 -10.5 9t-12.5 3q-23 4 -45.5 7t-44.5 9q-10 4 -12 -2t0 -10q2 -12 0 -24.5t-4 -24.5z" />
<glyph unicode="Q" horiz-adv-x="880" d="M-39 596q0 45 6 114.5t18.5 149.5t32 163t50.5 159q43 109 108.5 182.5t161.5 77.5q10 0 17 2t18 4q31 6 61 6h14q37 -2 72 -20q4 -2 9.5 -4.5t11.5 -4.5q41 -6 72.5 -28.5t58.5 -53.5q14 -16 23.5 -36.5t17.5 -40.5q25 -61 43 -123q4 -16 6 -34.5t6 -35.5v-19.5t4 -19.5 q4 -23 5 -43t5 -43q8 -59 14 -116q4 -41 4 -84q0 -15 -1 -31q0 -37 2 -74q1 -12 1 -25q0 -24 -3 -49q-4 -33 -7.5 -64.5t-7.5 -64.5q-4 -47 -9 -95t-15 -95q-4 -18 -9.5 -35.5t-9.5 -36.5q0 -4 -1 -6t-1 -6q0 -25 -11 -46.5t-21 -41.5q-8 -12 -15 -33q-4 -18 -14 -32.5 t-25 -28.5q-10 -10 0 -25l45 -65q12 -14 9 -37q-2 -12 -10.5 -16.5t-18.5 1.5q-20 10 -34.5 25.5t-31.5 32.5l-6 8q-12 12 -16 13t-19 -9q-27 -16 -55.5 -25.5t-56.5 -19.5q-10 -4 -21.5 -4t-21.5 -4q-16 -4 -30.5 -1t-31.5 3q-18 0 -36.5 5t-34.5 11q-70 27 -125 68 q-14 8 -27 24q-8 10 -18.5 19.5t-20.5 19.5q-23 25 -36 54.5t-23 58.5q-39 104 -57 225q-15 109 -15 224v26zM223 463.5q0 -25.5 2 -49.5l4 -90q2 -16 1 -34t1 -34q4 -33 9 -64q5 -22 5 -47q0 -9 -1 -18v-8q0 -42 20 -77q21 -38 53 -73q8 -8 13 -10q37 -21 73 -21 q30 0 60 15l31 16q10 4 16 9.5t12 11.5q12 12 2 22l-55 80q-12 18 -23.5 36.5t-21.5 41.5q-10 18 -3 31.5t30 15.5h4q32 0 51 -31q14 -18 26.5 -37.5t24.5 -39.5q4 -8 10 -14.5t17 -10.5l45 109q6 18 10 38.5t14 38.5q16 37 17 68q4 47 10 93t10 93q0 33 3 66t5 67 q3 39 3 78q0 19 -1 39q-2 57 -4 117q0 10 -1 22.5t-3 22.5q-2 25 -6 50.5t-6 51.5q-6 102 -43 201q-4 6 -6 10t-10 4q-4 0 -6.5 3.5t1.5 7.5q8 6 6.5 12t-6.5 10q-14 23 -32.5 39t-44.5 23q-14 6 -33 0q-12 -4 -24.5 -7.5t-22.5 -7.5q-33 -12 -57.5 -32.5t-34.5 -55.5 q-2 -6 -11 -18q-16 -35 -30.5 -70t-22.5 -74q-6 -35 -14 -69.5t-17 -69.5q-4 -18 -8 -35.5t-4 -38.5l-4 -79q-2 -23 -7 -46.5t-9 -46.5q-2 -25 -4.5 -48t-6.5 -48q-4 -20 -5 -39.5t3 -40.5q4 -4 0 -8q-4 -25 -4 -50.5z" />
<glyph unicode="R" horiz-adv-x="720" d="M-11 135.5q1 24.5 3 48.5q3 54 3 109v27.5v27.5q0 55 3 109q4 55 4 110.5v110.5q2 53 2 107.5t4 107.5l4 125q2 41 6.5 83t4.5 83v70.5t2 70.5q0 10 -9 27q-10 16 11 22q8 4 15 8t15 9q25 14 56 12q23 0 45 2t45 0q41 -4 81 -10t76 -23q29 -12 59 -24.5t56 -30.5 q37 -29 70 -59.5t49 -73.5q16 -46 16 -93v-10v-41q0 -25 -7 -47t-17 -45q-12 -29 -24.5 -55.5t-29.5 -52.5q-25 -43 -73 -78q-8 -4 -15.5 -9t-15.5 -12q-27 -25 -70 -41l-14 -6q-16 -10 -6 -24q31 -43 48 -92.5t40 -96.5q10 -23 21.5 -43t27.5 -41q16 -20 27.5 -41.5 t23.5 -44.5q25 -47 44.5 -97t41.5 -99l11 -19q25 -41 45 -85t43 -87q4 -10 3 -21.5t9 -19.5q-4 -8 -7 -16t-7 -17q-4 -4 -9.5 -2t-9.5 2q-29 -2 -48 14.5t-36 37.5q-25 33 -42 68.5t-34 70.5q-16 35 -32.5 65.5t-34.5 61.5q-18 35 -34.5 69.5t-33.5 69.5q-35 74 -73 148 q-14 23 -24.5 45t-21.5 45q-10 23 -26.5 37t-28.5 30q-2 4 -5 3t-5 -5q-4 -8 0 -14q1 -24 1 -49q0 -37 -2 -75q-3 -62 -3 -126q0 -32 2 -64q1 -16 1 -32t-1 -33q-4 -55 -5 -110.5t-5 -110.5q-2 -29 -5.5 -57.5t-11.5 -57.5q-2 -8 -4 -15t-10 -11q-8 -8 -12 -17.5t-15 -15.5 q-20 -14 -46.5 -14.5t-49.5 14.5l-10 8q-39 16 -39 58v8q2 23 -1 47t-3 47v98q-4 23 -3 47.5zM206 806.5q3 -13.5 5 -28.5q0 -18 16 -10q47 23 91 48.5t85 60.5q25 23 46 55q35 59 55 131q4 18 4 36q0 30 -12 58q-31 61 -86 105q-37 25 -84 38q-18 4 -38 5.5t-38 5.5 q-8 4 -12.5 -1t-1.5 -14q0 -23 -1.5 -43t-3.5 -43q-4 -33 -5 -64.5t-5 -62.5q-4 -23 -8 -43t-2 -41q0 -41 -4 -81q-2 -20 -2 -40t2 -40q-4 -18 -1 -31.5z" />
<glyph unicode="S" horiz-adv-x="665" d="M-51 226q-1 18 -1 36t1 35q4 31 9 59.5t9 57.5q0 8 4 20q8 25 37 19q4 0 6 -2q45 -9 45 -53v-7q-4 -29 -6 -58.5t-2 -58.5q0 -10 -2 -14q-8 -29 -3 -55.5t11 -52.5q6 -29 18.5 -54.5t28.5 -52.5q35 -61 95 -96q25 -14 55 -19q14 -2 23.5 4.5t19.5 14.5q18 14 27 31 q10 18 20 34.5t21 32.5q12 20 12 45q1 16 1 32q0 87 -28 177q-12 47 -31.5 90t-42.5 86q-20 37 -40.5 73t-42.5 73q-16 27 -33 51t-33 51q-20 33 -36.5 67.5t-33.5 69.5q-8 20 -19 38t-20 36q-12 31 -24 60.5t-17 64.5q-4 29 -3 54.5t10 51.5q10 33 16 58t18 43 q23 29 44.5 54.5t50.5 43.5q14 8 26.5 14t28.5 11q16 4 32.5 11t32.5 11q40 12 77 12q14 0 28 -2q20 -2 38.5 -4t37.5 -12q29 -12 49 -32.5t39 -45.5q16 -20 25.5 -41.5t9.5 -46.5q1 -18 1 -35q0 -18 -1 -34q-2 -34 -15 -66q-4 -10 -6 -17.5t-10 -13.5q-14 -14 -29 -2 q-27 20 -26 51v103q0 16 2 24q4 16 -2 29q-12 43 -58 49q-10 2 -20.5 6t-22.5 2q-20 -4 -39.5 -6t-40.5 -6q-16 0 -27.5 -9t-23.5 -18q-16 -10 -28.5 -21t-22.5 -28q-12 -18 -12 -37q2 -10 1 -19t1 -19v-8q0 -36 16 -76q8 -18 15.5 -38t11.5 -42q2 -14 7 -25.5t11 -23.5 l84 -156q18 -31 35.5 -62.5t40.5 -60.5q18 -23 33.5 -47.5t31.5 -50.5q16 -29 36 -57.5t34 -63.5q10 -25 20.5 -48.5t18.5 -47.5q9 -35 21 -70q9 -26 9 -53q0 -9 -1 -19q0 -10 -4 -26q-6 -25 -7 -47q-6 -66 -26.5 -123.5t-65.5 -106.5q-14 -20 -30 -28q-20 -8 -39 -16.5 t-39 -14.5l-45 -13q-20 -8 -41 -6q-10 2 -20.5 3t-20.5 1q-29 2 -52.5 13.5t-46.5 27.5l-47 37q-41 31 -65 78q-23 37 -41.5 74t-30.5 78q-10 34 -12 70z" />
<glyph unicode="T" horiz-adv-x="690" d="M-68 1350q2 23 25 20q17 -1 34 -1q33 0 67 3q50 4 102 4q23 0 42 2t40 6q20 4 39.5 6.5t42.5 4.5q36 2 68 4q11 1 21 1q22 0 46 -3q29 -2 58.5 -4t57.5 -7q4 0 9.5 -1t9.5 1q20 6 41 3q18 -4 36.5 -3.5t35.5 3.5q8 0 15 1t13 -1q18 0 32.5 -13.5t18.5 -32.5q2 -16 -7 -26 t-27 -6q-12 2 -24 2q-20 0 -40 -6h-14q-8 4 -15 0q-31 -12 -61.5 -11.5t-60.5 0.5q-23 -2 -42.5 -5t-39.5 -1q-14 4 -11 -10v-16q2 -29 0 -56q-2 -16 -3 -33.5t3 -33.5q4 -20 2 -40t-6 -40q-2 -14 -4 -28.5t-6 -28.5q-4 -16 -4 -34t2 -36q4 -37 6 -74v-18q0 -28 -4 -56 q-4 -23 -4 -43t4 -41q4 -25 4 -49t-2 -49q-2 -35 -6 -70.5t-8 -70.5q-6 -80 -6 -161v-40q0 -25 2 -48.5t-2 -47.5q-2 -35 -3 -66.5t-6 -64.5q-4 -33 -6 -64.5t-12 -62.5q-4 -18 -20 -21q-10 0 -21.5 -4t-21.5 0q-6 4 -10.5 -3t-12.5 1q-4 4 -11 3t-14 1q-16 2 -31.5 11.5 t-25.5 23.5q-18 18 -14 45q2 10 2 17.5v15.5q2 23 1 46.5t-1 47.5q-1 22 -1 43t1 43q2 43 6 86q2 16 2 32.5v33.5q3 26 3 52v13.5v13.5q0 26 3 52l12 182q3 67 5 131q1 28 1 55q0 37 -1 74q-1 18 -1 35t1 34l4 68q2 23 1 44.5t1 43.5l8 86v52q2 18 -17 14q-31 -7 -62 -7h-7 h-10q-30 0 -60 -5q-6 0 -18 -4q-24 -11 -45 -11q-41 0 -70 43q-6 10 -16 17q-16 14 -13 37z" />
<glyph unicode="U" horiz-adv-x="804" d="M-1 1013v24q0 24 1 46q1 30 1 59v29q-1 43 -1 89v48t4 48q0 16 8 18q10 6 13.5 21.5t23.5 11.5q14 -2 26.5 5t26.5 3q12 -2 23.5 -1t21.5 -3q27 -8 41.5 -27.5t22.5 -42.5q10 -29 11 -56.5t3 -55.5q7 -164 7 -324q0 -63 -1 -127q-1 -42 -1 -85q0 -181 14 -365 q2 -31 7 -78t15 -96.5t26 -94.5t42 -69q24 -23 55 -23h5q34 2 81 47q55 53 82 147.5t36 200.5q7 80 7 160q0 26 -1 52q-3 106 -9 184q-2 4 -2 16q2 20 2 39t-2 38q-4 38 -6 77q0 35 -3.5 70.5t-3.5 70.5q0 29 -2 54.5t5 52.5q2 12 -3 28q-4 20 -2 41t2 41q-2 20 0.5 41 t-0.5 43q-2 20 13.5 34.5t29.5 20.5q25 6 39 -22q4 -8 6.5 -15.5t4.5 -17.5q8 -59 8 -117.5v-117.5q0 -41 -1 -84v-17q0 -34 3 -67q0 -29 3 -55.5t5 -55.5q2 -51 4 -100t6 -101q3 -31 3 -64q0 -16 -1 -32t-1 -32q0 -32 3 -64q2 -20 0 -38.5t-4 -37.5q-4 -23 -2 -42t0 -40 v-10q-12 -29 -12 -56.5t-10 -56.5q-14 -43 -36 -95t-52.5 -99t-70.5 -81t-91 -38q-20 -2 -41 -2h-41h-8q-76 0 -142 37q-68 39 -104.5 105.5t-53 146.5t-19.5 161.5t-5 151.5q-2 47 -4 91q-1 22 -1 45t1 46q0 20 2 40t2 40l-8 209q0 37 -1 73z" />
<glyph unicode="V" horiz-adv-x="796" d="M6 1276q-6 14 1 26.5t18 22.5q29 23 56.5 17.5t53.5 -15.5q16 -8 33.5 -14t32.5 -23q18 -27 24 -49q8 -33 10.5 -63.5t4.5 -63.5q2 -25 5 -50.5t7 -51.5q0 -4 1 -10.5t1 -12.5q-2 -27 2 -51.5t8 -50.5q4 -29 11.5 -57.5t9.5 -57.5q2 -59 15 -116.5t26 -114.5 q6 -33 15 -65t13 -66q4 -45 14.5 -88t14.5 -86q4 -41 11 -79t9 -77q0 -4 0.5 -8.5t6.5 -8.5q8 25 15 49.5t11 49.5l17 90q6 31 14 60.5t14 58.5q18 102 49 204q8 29 12.5 59t8.5 58q4 35 11 69t16 68q14 61 25 124t26 122q12 53 26.5 103.5t32.5 101.5q6 25 31 25 q29 4 43 -19q10 -16 10 -33q0 -15 -8 -30q-6 -12 -10 -24.5t-2 -29.5q0 -4 -4 -12q-16 -37 -19 -74q-2 -20 -7 -39.5t-11 -37.5q-4 -12 -4 -15q-2 -39 -12.5 -74.5t-18.5 -70.5q-8 -37 -16.5 -73t-18.5 -71q-8 -29 -11 -57.5t-9 -56.5q-4 -20 -8.5 -41t-8.5 -41 q-12 -72 -27.5 -140.5t-35.5 -136.5q-4 -20 -7.5 -39.5t-7.5 -42.5q0 -4 -4 -20q-14 -33 -19 -67.5t-14 -69.5q-6 -25 -13 -49.5t-19 -46.5q-10 -16 -26.5 -23.5t-35.5 -5.5q-41 0 -86 20q-47 23 -59 68q-10 35 -17.5 70.5t-13.5 70.5l-33 148q-12 55 -23 110.5t-22 108.5 q-12 63 -24.5 124.5t-22.5 125.5q-8 49 -14 97t-17 97q-8 37 -14 75t-10 75l-23 164q-2 14 -3 28.5t-7 28.5z" />
<glyph unicode="W" horiz-adv-x="1056" d="M-49 1327q-2 14 12 27q25 18 55 16q16 0 37 10q16 5 31 5q27 0 53 -15q18 -10 22.5 -25.5t4.5 -31.5q0 -14 1 -26.5t3 -26.5q8 -35 12 -70t11 -70l10 -92q8 -41 12 -80t10 -80q8 -41 13.5 -82t9.5 -81q4 -37 10 -73t12 -73q4 -20 2 -35q-2 -29 4 -55q10 -37 14.5 -75 t8.5 -75q2 -18 4 -36.5t6 -36.5q2 -10 2 -17.5t4 -15.5q10 0 11 12q12 61 25.5 122t23.5 122q10 59 22.5 117.5t20.5 118.5q8 66 23.5 128t27.5 125q10 39 14 78t9 78q4 33 12 62.5t14 60.5q4 23 9 43t12 43q6 29 36 23q10 -2 22.5 -5.5t23.5 -5.5q27 -8 30 -35q2 -6 4 -13 t0 -15q0 -10 7 -17q16 -14 15 -29.5t-3 -31.5q0 -4 -2 -8t-2 -8q2 -18 2 -37q0 -23 -3 -47q-2 -14 -2 -29q0 -29 7 -57v-2q-6 -23 -4 -43.5t6 -42.5q4 -29 0 -57.5t0 -57.5q2 -20 3 -40t7 -40q2 -10 3 -18.5t-3 -16.5q-2 -8 0 -16q6 -14 7 -28.5t1 -29.5q0 -23 3 -45t8 -45 q4 -29 5 -55.5t3 -54.5l10 -109q4 -20 6 -38.5t0 -41.5q-2 -10 0 -20t6 -21q4 -23 7 -42t-1 -40q-4 -8 2 -14q6 8 4 16.5t1 16.5q4 41 15 82t17 82q6 37 10.5 74.5t12.5 74.5q8 43 11 86t11 84t13.5 83t9.5 83q6 53 12 103.5t8 103.5q0 20 4.5 40.5t8.5 41.5q10 47 17 95 t11 95l9 39q6 33 40 51q12 8 25.5 1t17.5 -19q4 -14 2 -26.5t-4 -22.5q-4 -20 -8 -37.5t-8 -36.5q-4 -10 -3 -19.5t1 -19.5q2 -25 -2 -47t-8 -45q-4 -16 -5 -33.5t-3 -34.5l-7 -90q0 -10 -8 -30q-6 -23 -5 -44.5t-3 -43.5q-4 -25 -8 -49.5t-8 -49.5q-4 -32 -10 -64 q-4 -23 -4 -48q0 -9 1 -17q0 -16 -2 -33.5t-6 -33.5q-4 -23 -6 -45.5t-6 -44.5q-6 -41 -10 -83t-15 -83q-8 -33 -12 -65t-10 -64q-4 -29 -9.5 -53.5t-13.5 -51.5q-2 -12 -10 -22q-8 -12 -8 -19q0 -20 -11.5 -29.5t-25.5 -19.5q-10 -10 -23.5 -12t-27.5 -6q-23 -6 -35 16 q-29 53 -39 119q-8 49 -11 100t-14 101q-4 18 -4 36.5t-2 36.5q-4 45 -7 90t-7 93q-2 39 -8 76.5t-6 74.5q-2 35 -6 71q-2 23 -2 45q0 13 1 25q0 41 -6 78q-2 10 -1 21.5t-3 21.5q-8 -2 -8 -8q-4 -29 -9 -58.5t-13 -58.5q-12 -55 -19 -114l-8 -37q-8 -33 -16.5 -63.5 t-12.5 -63.5q-6 -43 -14 -86t-14 -86q-4 -12 -7.5 -24.5t-7.5 -24.5q-10 -33 -13 -65t-11 -64q-4 -18 -9.5 -36t-13.5 -36q-8 -25 -14 -49.5t-10 -50.5q-4 -20 -18.5 -37t-35.5 -21q-10 -4 -22.5 -7t-22.5 -7t-19 -5t-20 5q-8 4 -8 2q-6 -10 -12 -8t-12 6t-19 4 q-27 0 -41 31q-10 27 -15 52t-9 54l-27 152l-12 110l-21 156q-4 35 -7 66.5t-9 64.5q-8 41 -12.5 81t-8.5 81q-4 47 -11 95t-13 95q-4 23 -6 47.5t-4 46.5q-4 31 -8.5 62t-8.5 61l-10 129q0 8 -1 15.5t-1 15.5z" />
<glyph unicode="X" horiz-adv-x="759" d="M-44 1308.5q1 2.5 11 10.5l33 24q25 14 50.5 13.5t49.5 -8.5q53 -18 82 -70q14 -23 22.5 -47.5t18.5 -48.5q16 -47 36 -91t40 -90q16 -39 32.5 -76.5t30.5 -78.5l37 -94q4 10 8.5 17t6.5 15q8 31 19 58.5t26 56.5q6 10 10 21.5t8 21.5q25 63 50.5 125.5t47.5 126.5 q14 39 34 74t40 69q4 10 6 11q14 2 26.5 6t29.5 0q20 -8 27 -22.5t-3 -33.5q-20 -37 -31.5 -75.5t-27.5 -77.5q-14 -35 -28.5 -71t-33.5 -70q-14 -31 -16 -60q-4 -20 -8 -29q-14 -20 -21.5 -41.5t-17.5 -44.5q-14 -35 -28.5 -69.5t-33.5 -69.5q-8 -10 -12 -23.5t-12 -23.5 q-6 -14 0 -33q10 -23 19.5 -43t19.5 -43t19 -44t16 -46q4 -18 10 -35.5t14 -33.5q16 -41 31.5 -82t32.5 -82l41 -113q6 -20 11 -40.5t15 -41.5q4 -10 1 -18t1 -17q10 -27 -2 -43t-22 -34q-8 -12 -19 -7q-12 8 -21 4t-20 -8q-19 -11 -42 -11q-10 0 -20 2q-36 7 -48 42 q-10 25 -20.5 48.5t-20.5 49.5q-14 35 -25.5 71t-27.5 71q-18 37 -26.5 75.5t-23.5 75.5q-4 12 -8 25.5t-14 23.5q-8 -12 -12.5 -25.5t-12.5 -25.5q-27 -41 -40 -86t-27 -90q-20 -66 -60 -131q-8 -14 -11 -28.5t-9 -26.5q-4 -10 -9 -21.5t-12 -21.5q-18 -29 -53 -19 q-8 4 -14 6t-15 4q-39 6 -26 46q4 18 12 36.5t16 34.5q18 39 36 76t34 76q20 49 43 97t45 95v4q-4 23 9.5 39.5t17.5 36.5q4 16 13 28.5t15 28.5q8 20 0 41q-14 41 -31.5 77t-33.5 75q-29 66 -57.5 130.5t-51.5 129.5q-10 31 -21 60.5t-26 58.5q-37 88 -61 182 q-4 16 -10.5 29.5t-18.5 25.5q-10 8 -9 10.5z" />
<glyph unicode="Y" horiz-adv-x="745" d="M-68 1382q-6 14 7 23q12 12 20 14q16 4 33 6.5t37 4.5q10 0 26 -7q10 -6 23.5 -7t25.5 -9q47 -29 72 -80q10 -20 20.5 -39.5t22.5 -38.5l39 -71q8 -16 18.5 -34t20.5 -34q29 -49 58.5 -95t56.5 -95q8 -14 12 -28.5t14 -27.5q10 -10 12.5 -10t10.5 10q35 43 62.5 87 t56.5 91t57.5 94.5t54.5 94.5q20 33 39 64.5t41 62.5q4 8 10 13t13 11q10 10 22 11q10 -2 19.5 -3t19.5 -1q14 0 14 -19q0 -12 -2 -18q-6 -27 -17 -51.5t-28 -47.5q-16 -25 -32.5 -49t-30.5 -51q-10 -16 -16.5 -31.5t-18.5 -31.5q-23 -27 -35 -59t-31 -62 q-16 -27 -31.5 -52.5t-35.5 -50.5q-18 -23 -33.5 -47t-34.5 -47q-4 -4 -7 -9t-9 -7q-16 -8 -16 -29q2 -25 3 -49.5t-1 -48.5l-5 -35q-4 -31 -6 -61.5t-4 -61.5q-2 -25 -6 -49.5t-6 -50.5q0 -23 -3 -47.5t-3 -49.5q-2 -6 5 -13t3 -13q-6 -12 -6 -24.5t-2 -26.5v-22.5 t-2 -24.5q-2 -10 -1 -23.5t1 -26.5q0 -41 -1 -80.5t-12 -80.5q-2 -10 -4 -18.5t-6 -18.5q-4 -14 -18.5 -17.5t-28.5 -1.5q-12 2 -18 -6q-4 -8 -7.5 -8h-9.5q-27 6 -47 27q-10 10 -19 18t-16 20q-4 16 -4 27q1 21 1 41t-1 40q-2 40 -2 81q-1 35 -1 70v35q1 51 3 104l4 215 q2 43 3 86t10 86q4 23 -13 33q-6 4 -14 20q-23 47 -50.5 89t-55.5 85q-33 55 -64 110.5t-59 112.5q-18 39 -35 78t-35 78q-6 16 -14 28.5t-13 28.5z" />
<glyph unicode="Z" horiz-adv-x="647" d="M-10 1268q-10 14 10 18q23 8 51 8q63 2 126 6q34 2 68 1l58 -1q25 -2 48.5 0.5t47.5 2.5q10 0 19.5 -1.5t17.5 9.5h6q14 -4 27.5 -5t28.5 -6q33 -6 55 -23t41 -40q20 -23 26.5 -46.5t4.5 -47.5q0 -12 -11 -27q-16 -20 -22 -43.5t-12 -48.5q-6 -31 -19 -61 q-12 -29 -24.5 -59t-26.5 -58q-8 -18 -13 -38t-12 -38q-16 -41 -24 -83t-25 -83q-20 -53 -33.5 -105.5t-35.5 -105.5l-41 -104q-10 -23 -20.5 -43.5t-20.5 -42.5l-15 -37q-14 -33 -26.5 -64.5t-14.5 -68.5q18 -2 37 -2h37q41 -2 84 -3h17q34 0 67 3q23 2 44.5 -1t39.5 -16 q20 -10 14 -24q-4 -6 -6 -10.5t-8 -6.5q-16 -4 -30.5 -12t-30.5 -6q-31 3 -61 3h-15q-37 -1 -76 -5q-23 -4 -46.5 -2t-47.5 6q-12 2 -23.5 2t-23.5 -4q-6 -4 -17 0q-16 4 -34.5 1t-34.5 1q-27 4 -53.5 10t-43.5 35l-8 12q-18 29 -12 52q4 29 14.5 56.5t20.5 55.5 q10 27 15 52.5t13 52.5q10 35 25.5 68.5t26.5 68.5q10 35 22 69.5t23 69.5q8 29 13 56.5t15 56.5q18 55 31.5 111.5t32.5 111.5q14 37 25.5 75t25.5 74q12 37 25.5 74t33.5 72q8 12 9 20q-10 4 -16.5 2t-14.5 -2q-18 -2 -35.5 -1t-34.5 -5h-4q-18 6 -36.5 5t-37.5 -1l-59 6 q-16 4 -34.5 3.5t-37.5 3.5q-23 6 -39 18t-30 29z" />
<glyph unicode="[" horiz-adv-x="464" d="M-15 84q-1 6 1 14q2 18 2 37t4 37q6 31 6 61v265l-10 155q-2 23 0 46.5t2 45.5q-2 41 -4 80t0 80l6 154q0 4 1 9t1 9q6 33 6 66q0 39 6 76q2 18 5 36.5t1 36.5q0 59 13 115q10 35 32.5 55.5t55.5 10.5q31 -6 55 -5q25 4 49 2t49 -2q29 2 57.5 -2t57.5 -8q12 -2 23.5 -5 t21.5 -13q12 -10 11 -22.5t-13 -18.5q-16 -10 -31 -10q-31 -4 -60.5 -4.5t-58.5 -0.5q-23 0 -43 1t-43 4q-12 0 -15 -4.5t-3 -16.5q0 -10 1 -17.5t1 -15.5v-84q0 -49 -1 -98t-3 -98l-6 -109q-2 -27 -1 -52.5t-1 -51.5q-2 -25 -1 -49.5t-3 -47.5q-2 -35 -5.5 -70.5 t-0.5 -70.5l4 -215q2 -35 1 -69.5t-3 -69.5q0 -66 1 -132.5t-3 -131.5q-4 -37 -6.5 -74t-6.5 -72q-2 -10 -2 -28q0 -16 17 -15h16q41 0 79 -8t79 -8q12 0 30 -14q8 -8 7 -14.5t-5 -16.5q-10 -14 -30 -19q-25 -6 -49.5 -9t-47.5 -9q-4 0 -5 -1t-5 1q-39 2 -77 2t-74 8l-52 12 q-12 0 -6 13q2 6 -4 12q-8 8 -2 14q6 10 -2 23l-4 8t-2 8l-8 131q-2 35 -1 70t-3 70q0 8 -1 14z" />
<glyph unicode="\" horiz-adv-x="540" d="M-27 1320.5q2 6.5 17 18.5q2 2 5 4.5t1 6.5q-4 10 3 14t13 6q14 6 28.5 1t22.5 -17t14.5 -25.5t8.5 -30.5q0 -12 4 -23l8 -22q8 -14 14.5 -28.5t6.5 -30.5q2 -16 10 -35l8 -31q8 -49 25 -100q12 -41 20 -81t21 -81q10 -33 16 -65.5t17 -65.5l53 -205l53 -206 q16 -53 26.5 -106.5t28.5 -104.5q16 -45 27.5 -91.5t28.5 -93.5q6 -16 10 -33.5t2 -33.5q-2 -31 -29 -27h-28q-45 0 -54 45q-10 51 -25.5 100.5t-29.5 100.5q-10 29 -19.5 56.5t-15.5 56.5l-26 116q-6 27 -15.5 51.5t-13.5 53.5q-4 39 -14.5 75.5t-22.5 71.5q-8 29 -13 58.5 t-16 58.5q-8 27 -15 53.5t-13 52.5q-12 47 -27.5 92.5t-26.5 92.5q-6 29 -13 57.5t-11 56.5q-4 23 -13.5 44.5t-7.5 46.5l-4 8q-4 6 -5 13t-5 15q-10 23 -14 44.5t-11 43.5q-6 16 -4 22.5z" />
<glyph unicode="]" horiz-adv-x="524" d="M-44 1426.5q-1 11.5 11 21.5q10 10 21.5 13t23.5 5q29 4 57.5 6.5t57.5 0.5q25 -4 49.5 -3.5t48.5 -3.5q14 -2 27.5 -1t28.5 3q35 8 56 -13t30 -56q12 -51 8 -115q-2 -18 1 -36.5t5 -37.5q2 -18 3 -36.5t-1 -38.5v-33t4 -33q0 -6 1 -11t1 -9v-154q0 -41 -2 -80t-6 -80 q-2 -23 -1 -45t-1 -45l-14 -158q-2 -10 -2.5 -22t-0.5 -23q-2 -55 -4 -109t-2 -108q-2 -16 -1 -30.5t3 -30.5q4 -18 3 -36.5t1 -37.5q2 -8 1 -15t-1 -16q-4 -35 -5 -68.5t-5 -68.5q-2 -33 -5 -65.5t-7 -65.5q0 -4 -2 -8l-4 -8q-8 -14 -2 -23q4 -6 -2 -12q-8 -8 -4 -12 q2 -10 -9 -15l-51 -8q-39 -6 -76.5 -6t-76.5 2h-9q-23 8 -47 12t-49 11q-18 4 -31 20q-8 18 5 31q18 14 30 14q41 -4 80 3t78 5q4 0 9 -1t9 -1q14 -2 17 15q0 18 -2 28q-6 74 -6 148q-4 66 -1 131t5 131q2 35 1 69.5t3 69.5q4 53 6 107.5t6 107.5q2 35 0 71t-4 70v97 q0 27 2 52.5t0 51.5q-2 29 -2 55.5v53.5q0 49 -1 98t3 98q2 23 2 43.5v40.5q0 10 1 17.5t1 15.5q2 12 -1 16t-15 4q-23 2 -43.5 1t-42.5 2q-29 0 -58.5 2t-58.5 6q-16 2 -31 10q-12 8 -13 19.5z" />
<glyph unicode="^" horiz-adv-x="700" d="M-8 918q-6 12 0 26q4 10 8 20.5t8 20.5q16 25 27.5 51.5t25.5 53.5l76 147q16 35 32.5 67.5t39.5 65.5l2 4q16 29 38.5 43t53.5 10q8 4 14.5 2t12.5 -2q4 0 8 -1t8 -1q33 6 55.5 -5t42.5 -36q45 -53 72 -116.5t55 -126.5q16 -35 26.5 -69t25.5 -68l16 -60q2 -10 -3 -21.5 t-11 -21.5q-4 -10 -16.5 -10t-22.5 10q-29 25 -39 49q-27 57 -54.5 111.5t-52.5 112.5q-12 27 -22 53t-21 53q-4 8 -6 15.5t-8 11.5q-18 14 -27 -4q-6 -10 -11 -22.5t-9 -25.5q-8 -25 -19.5 -48t-21.5 -50q-10 -25 -23.5 -48.5t-25.5 -45.5q-10 -23 -20.5 -43.5t-18.5 -42.5 q-6 -16 -17 -27q-14 -16 -25 -32.5t-24 -32.5q-16 -23 -42.5 -30t-53.5 3q-23 8 -33 24.5t-20 35.5z" />
<glyph unicode="_" horiz-adv-x="552" d="M-84 -221q-23 23 4 35q8 4 25 4q31 0 61.5 1t61.5 -1q43 -2 94 4q10 0 18 1t17 -1q43 -6 85 -5t85 5q35 2 70.5 3t72.5 1q23 0 43 -2t43 -6q12 -4 22.5 -8.5t14.5 -20.5t-4 -29.5t-27 -15.5l-108 -10q-31 -4 -62 -4t-61 -4q-10 -2 -20.5 -1t-20.5 -1q-18 2 -36 2t-34 4 q-29 4 -56.5 3t-56.5 -3q-33 0 -63.5 3t-63.5 1q-14 -2 -27 -2t-28 4q-12 6 -23.5 12t-17.5 21q0 4 -3 6t-5 4z" />
<glyph unicode="`" horiz-adv-x="249" d="M1 1597.5q5 10.5 28 6.5q6 0 12 1t12 -3q12 -8 23.5 -16.5t21.5 -20.5q29 -37 54.5 -76t54.5 -76q18 -23 -4 -45q-12 -16 -27 -4l-16 8t-13 8q-10 10 -21 20.5t-22 20.5q-20 25 -38.5 50.5t-38.5 48.5q-10 10 -15.5 22t-9.5 25q-6 20 -1 30.5z" />
<glyph unicode="a" d="M-63 -147q10 39 14 76.5t14 74.5q6 27 12.5 53.5t10.5 53.5l30 145q4 20 9.5 38.5t9.5 39.5q4 43 16.5 83t22.5 81q10 43 20 85t17 87q4 25 10 50t14 48q12 41 23.5 82t21.5 82l31 98q10 37 19.5 76t19.5 78q4 16 9 31.5t13 31.5q8 14 13.5 29.5t7.5 32.5q2 23 10 41 t14 41q2 6 6.5 8t8.5 6q12 4 23.5 6t21.5 10q4 4 14 0q2 0 15.5 -5t29.5 -11l2 8l11 -4q12 -6 26.5 -9t28.5 -7q49 -16 67 -66q8 -23 12.5 -45t8.5 -45l22 -131q8 -53 15.5 -103.5t13.5 -103.5q4 -35 12.5 -68.5t14.5 -68.5t12 -71t14 -70q10 -43 18.5 -86t18.5 -89l6 -38 q0 -18 6.5 -36t4.5 -34q0 -39 6 -75t10 -70q6 -33 10 -65t8 -65l15 -96q2 -16 4 -32.5t2 -32.5l6 -39q2 -8 0 -21q-4 -12 -8 -13t-14 9t-19 8q-16 -10 -24.5 2.5t-20.5 16.5q-8 4 -11 11t-5 18q-2 27 -9.5 51t-11.5 49q-10 47 -19 91t-18 89q-10 68 -22.5 134.5t-24.5 131.5 q-4 29 -10 32t-31 -3q-29 -6 -55.5 -11t-52.5 -7q-29 0 -53.5 -5.5t-51.5 -9.5q-10 -4 -19 -3t-20 3q-16 4 -22 -1t-10 -27q-4 -20 -9.5 -40t-11.5 -40q-6 -23 -9 -42.5t-7 -41.5q-4 -23 -10.5 -44.5t-12.5 -43.5q-10 -35 -17 -69t-18 -69q-4 -16 -8 -30.5t-10 -28.5 q-4 -10 -6 -18.5t-6 -18.5q0 -4 -8.5 -16t-17.5 -25.5t-18.5 -26t-11.5 -14.5l-24 -18q-12 -8 -19 -6q-6 4 -11 2t-11 -4t-17 -2l2 4q-20 0 -38.5 -1t-22.5 -1q-29 4 -22 39zM322 569q0 -14 12 -14q14 2 27.5 2h27.5q45 4 89 8q18 2 35 2q27 0 54 -4q16 -2 15 19l-15 90 q-10 47 -17 95t-15 95q-4 33 -8.5 63.5t-14.5 61.5q-6 16 -11 35.5t-9 38.5q-6 23 -11.5 44t-9.5 44q0 10 -6 10q-6 2 -10 -10l-11 -39q-8 -29 -15 -58.5t-13 -60.5l-17 -84q-35 -133 -61 -264q-4 -18 -8 -36.5t-8 -37.5zM791 -137q0 -4 4 -8q4 0 4 4q0 6 -4 8q-4 0 -4 -4z " />
<glyph unicode="b" horiz-adv-x="866" d="M11 484.5q-3 25.5 1 54.5l4 96q2 31 1 62.5t-5 62.5q-2 14 0 27.5t4 25.5q4 31 0 59q0 104 6 208q3 60 3 120q0 44 -2 88q0 16 3 32.5t1 33.5q0 14 14 20q16 6 29.5 15.5t29.5 13.5q16 6 29 0q10 -6 31.5 -6t32.5 2q27 4 50 -2t48 -11q47 -6 93 -21t89 -36 q31 -14 59.5 -30.5t53.5 -38.5q6 -6 12 -12.5t14 -10.5q23 -14 37 -43q15 -34 27 -66q7 -18 6 -37q0 -16 -4 -32q-6 -27 -25 -45q-39 -43 -80 -84t-88 -76q-12 -10 -26.5 -18.5t-28.5 -16.5q-10 -4 -12 -8q0 -4 8 -8q41 -10 77 -32.5t75 -41.5q29 -16 54 -36.5t52 -43.5 l18 -20q29 -45 53.5 -90t41.5 -97q16 -43 16 -86q0 -30 -8 -59q-4 -14 -10.5 -25.5t-8.5 -25.5q0 -4 -1 -6t-1 -4q1 -7 0 -13q0 -29 -14 -52q-18 -28 -41 -52q-10 -12 -18.5 -24.5t-16.5 -24.5q-16 -31 -36.5 -56.5t-41.5 -52.5q-14 -14 -26 -33q-8 -14 -18.5 -25.5 t-26.5 -17.5q-33 -10 -62.5 -26.5t-58.5 -32.5q-25 -14 -45 -16q-12 -4 -25.5 -7.5t-25.5 -7.5q-23 -10 -47 -6q-35 4 -83 10t-81 25q-39 20 -66 53q-10 16 -14 39q-2 47 -5 91t-5 91q-4 47 -4 93.5t-3 93.5l-4 145q-2 29 -5 54.5zM229 -41q4 -18 6.5 -35.5t4.5 -34.5 q2 -18 20 -18h13.5t13.5 2q27 4 49 14.5t45 22.5q29 14 54.5 31.5t49.5 38.5q49 41 91 86t73 100q14 23 21.5 47.5t15.5 48.5q10 35 16 70q2 10 2 19q0 25 -12 50q-4 8 -5 18.5t3 20.5q4 6 0 15q-10 23 -15 47t-22 43l-20 28q-25 33 -58 58l-86 51q-23 12 -42 25.5t-46 15.5 q-6 0 -14 4t-25 4l-88 12q-16 4 -21 -1t-5 -21q-1 -16 -1 -33q0 -25 2 -50q1 -18 1 -36q0 -24 -2 -47q-3 -31 -3 -62q0 -15 1 -30q1 -22 1 -45.5t-1 -46.5q0 -16 -1 -30.5t3 -31.5q6 -34 6 -69v-17q-4 -39 -5 -76.5t-3 -78.5q0 -12 -2 -17q-10 -23 -7.5 -46t-7.5 -46z M240 1270q8 -20 8 -41t2 -41q3 -36 3 -71t-3 -70q-2 -27 -3 -52.5t-5 -48.5q2 -23 4 -43t0 -41q0 -16 18 -8q8 2 15.5 6t15.5 6q59 12 104 45t86 70q39 35 54.5 78t25.5 90v8t-4 8q-23 27 -48.5 49.5t-57.5 32.5q-25 8 -48.5 15.5t-50.5 9.5q-12 2 -23 4t-24 6 q-14 4 -27.5 7t-27.5 -1q-20 0 -14 -18z" />
<glyph unicode="c" horiz-adv-x="661" d="M-21 496q1 38 1 79q0 43 2 88.5t6 92.5q4 55 12 111.5t25 109.5q23 86 55.5 163t81.5 146q4 6 9 12.5t9 10.5q31 29 60 59q47 47 107 47h5q20 0 41 1t43 -9l45 -18q8 -2 15 -13q16 -18 29.5 -38.5t21.5 -47.5l18 -51q8 -18 7 -37.5t-5 -38.5q-4 -16 -8 -34.5t-10 -34.5 q-8 -23 -24.5 -30t-32.5 9q-10 8 -11 25q0 25 -2 49t0 49q2 23 -1 46.5t-7 45.5q-4 16 -14 19q-10 4 -20.5 7t-20.5 -1h-15q-23 4 -38 -5.5t-29 -29.5q-35 -55 -55 -117q-10 -27 -20.5 -54.5t-14.5 -55.5q-2 -16 -7.5 -31.5t-9.5 -32.5q-21 -83 -29 -185q-7 -78 -6 -160 q0 -24 1 -48q2 -106 12 -207.5t26 -185.5q8 -41 18.5 -78t31.5 -70q6 -10 14 -18t16 -19l8 -10q12 -25 43 -20q23 4 45.5 11t41.5 28q14 12 20 32l25 80q6 23 17 41.5t32 26.5q14 4 30 -10q10 -10 9.5 -20.5t-0.5 -22.5q-4 -29 -12.5 -53.5t-14.5 -51.5q-6 -39 -25 -67 q-33 -49 -67 -84q-33 -37 -86 -50q-16 -4 -32.5 -9t-33.5 -7q-41 0 -78 18q-23 12 -45 23.5t-43 32.5q-33 35 -60.5 74.5t-47.5 87.5q-29 78 -37 161q-4 47 -10 96.5t-10 98.5q-1 25 -1 50v24z" />
<glyph unicode="d" horiz-adv-x="919" d="M-16 1386q-8 8 0 15q12 10 27.5 18.5t33.5 10.5h16.5t14.5 -5q18 -10 38.5 -11t43.5 -5q16 -2 32.5 -4t32.5 -6q31 -8 61.5 -12.5t61.5 -14.5q27 -8 49.5 -18.5t44.5 -20.5q35 -14 63.5 -36.5t63.5 -41.5l8 -6q35 -33 69 -64.5t61 -68.5q4 -6 8 -11t14 -3q8 0 4 -4 q-4 -18 7.5 -32.5t19.5 -31.5q16 -29 28.5 -58.5t22.5 -60.5q4 -10 3 -22t3 -23q6 -31 11 -61.5t10 -60.5q2 -16 1 -32t-1 -32q-2 -20 -3.5 -38.5t-1.5 -37.5q-2 -23 -6 -42t-8 -40q-4 -10 -3 -19t-3 -20q-14 -35 -21.5 -70.5t-29.5 -68.5q-4 -6 -4 -11t-4 -9 q-14 -35 -27.5 -68t-26.5 -67q-10 -27 -27.5 -48.5t-37.5 -42.5q-10 -8 -15.5 -16t-9.5 -18q-14 -25 -37 -52q-10 -14 -21 -27.5t-24 -25.5q-16 -16 -32.5 -29.5t-38.5 -23.5q-23 -10 -43.5 -21.5t-42.5 -21.5q-27 -10 -53.5 -21.5t-57.5 -15.5l-12 -6q-18 -8 -35 -4 q-12 4 -23 -6q-4 -6 -11 -6.5t-13 2.5q-12 4 -24.5 7t-26.5 7q-23 4 -23 24q2 25 -7 47.5t-13 45.5t-4 46t-3 46q0 63 -6 129q-2 14 -1 26.5t-1 24.5q-2 53 -8 103.5t-12 101.5q-8 57 -11.5 113.5t-7.5 111.5q0 31 -2 61.5t-2 59.5q0 23 3 45t1 45l-14 98q-2 29 -4 57.5 t0 57.5q2 16 1 32.5t-1 33.5q-2 33 -4 64.5t-2 64.5q-2 25 -2 50v50q-2 6 -2 12t-4 12zM245 1152.5q1 -28.5 3 -56.5q0 -31 2 -60.5t4 -60.5q2 -35 4 -68t8 -67q2 -16 4 -31.5t-2 -32.5q-2 -16 -2 -29.5v-29.5q2 -29 4 -56.5t-2 -56.5q0 -12 -1 -23.5t1 -21.5q6 -43 9.5 -87 t11.5 -87q4 -16 3 -32.5t1 -33.5q4 -23 2 -43t-4 -43t-1 -45t5 -45q8 -41 12 -82q2 -16 2 -33q0 -24 -4 -48q0 -13 4 -19q10 0 15 4q25 14 48 30.5t42 39.5q18 18 35.5 37.5t33.5 42.5q16 25 32.5 48t33.5 50l53 98q10 16 20.5 32.5t16.5 33.5q10 31 19.5 60.5t21.5 58.5 q4 12 4 14q8 27 9 53.5t5 52.5q4 23 7.5 45.5t3.5 45.5v19q1 35 -5 70q-8 44 -22 87q-14 41 -33.5 77.5t-38.5 77.5q-6 14 -13 27.5t-19 28.5q-18 23 -41 41t-48 36q-29 23 -62.5 41.5t-66.5 36.5q-10 4 -19 10.5t-24 6.5h-38q-16 0 -17 -13q0 -10 -3 -21t-7 -22 q-8 -29 -7 -57.5z" />
<glyph unicode="e" horiz-adv-x="692" d="M14 347q-2 27 -2 54t2 54q3 58 3 116v29.5v29.5q0 58 3 115l11 193q4 37 6 74t4 73l14 148q4 23 2 42t2 40q2 6 0 12t-2 12q-6 27 19 31q27 2 52.5 3t49.5 -13q10 -6 21.5 -7t23.5 -5q29 -4 58.5 -6.5t58.5 -4.5q31 -2 61.5 -4t63.5 0h86q27 -2 51 -20q14 -8 10 -29 q0 -8 -8 -8q-27 -6 -52.5 -11t-53.5 -10q-31 -3 -62 -3q-16 0 -30 1q-22 1 -45 1t-46 -1q-25 0 -24 -24q2 -18 1 -36.5t-1 -37.5q4 -27 -2 -49q-2 -6 -2 -21q2 -29 2 -58q0 -22 -1 -43q-3 -50 -5 -99q-2 -18 -5.5 -37t-1.5 -37q1 -10 5 -16q33 4 63.5 9t63.5 9q29 4 58.5 5 t57.5 3q18 2 29.5 -16.5t5.5 -36.5q0 -4 -8 -8l-17.5 -7t-17.5 -5q-29 -10 -56.5 -22.5t-56.5 -23.5l-28 -6q-18 0 -37 -1t-37 -3h-10q-23 -2 -23 -24l-6 -97q0 -16 -2 -31.5t-2 -31.5q0 -53 -6 -98q-2 -31 -1 -62t3 -61q0 -20 -1 -39t-3 -39q0 -29 2 -56.5t2 -56.5 q0 -25 -2 -48t-8 -46q-4 -10 -4 -17.5v-15.5q-2 -18 14 -14l57 12q41 10 80 20.5t80 18.5q16 4 31.5 4t32.5 2q18 2 36.5 2t36.5 4q23 4 37 -13t8 -40q-4 -12 -15 -17t-22 -5q-25 -2 -49 -5.5t-49 -9.5q-33 -6 -64.5 -14t-64.5 -18q-41 -12 -81 -24.5t-81 -23.5 q-16 -4 -28.5 -12t-28.5 -14q-39 -14 -68 -15q-8 0 -13 2.5t-11 6.5q-27 20 -37 45.5t-12 58.5q-2 29 -1 55.5t1 55.5q0 53 -3 104t-6 105q-2 53 -6 107z" />
<glyph unicode="f" horiz-adv-x="690" d="M-8 707q-2 34 -2 67.5t2 67.5q3 47 3 93q0 23 -1 46.5t-1 46.5q0 46 3 92l10 189q0 14 17 20q35 15 69 15q20 0 39 -5q25 -4 49 0q28 3 57 3h14h24q24 0 47 1q22 1 43 1h21h11q27 0 54 4q14 2 28.5 1t28.5 -3q33 0 64.5 -1.5t64.5 -1.5q23 0 43 -4t37 -18q4 -4 10 -9 t2 -14q-4 -12 -24 -16q-43 -4 -84 -7t-82 -13q-45 -10 -89 -11.5t-90 -7.5q-29 -4 -58 -4t-60 2q2 -29 -1 -52.5t-8 -47.5q-2 -4 -1 -9.5t1 -9.5q6 -49 7 -98q-2 -23 2 -43t6 -41q2 -10 12 -6q45 2 89 3t89 7q16 2 33.5 3t34.5 1q20 0 36.5 -9t32.5 -19q12 -6 3 -23 q-14 -16 -43 -20q-18 0 -36 -4.5t-34 -10.5q-14 -4 -28.5 -5t-28.5 -1q-35 0 -69 -6t-69 -10q-14 0 -17 -4.5t-3 -16.5q-2 -23 -1 -46t-3 -46q-4 -49 -5 -97t-5 -95q0 -29 3 -55.5t3 -55.5v-68.5t-2 -68.5q-1 -27 -1 -54v-26v-26q0 -27 -1 -54q-2 -23 -5.5 -46.5t-7.5 -45.5 q0 -8 1 -14.5t5 -14.5q8 -14 -6 -26q-10 -8 -12 -16.5t0 -18.5q2 -27 -23 -33q-10 -4 -16 -2t-14 6q-16 8 -27 10q-14 4 -22 -4q-16 -10 -31 0l-45 23q-12 6 -15 14q-18 46 -18 91q0 16 2 32q2 20 3 39.5t-1 40.5v90q1 33 1 66v33q-1 50 -5 102q-2 23 -1 47t-1 47z" />
<glyph unicode="g" horiz-adv-x="878" d="M-7 543q1 37 3 71q0 29 2 55.5t0 55.5q-1 10 -1 20q0 26 4 52q5 37 9 73q2 27 6 51.5t9 51.5q4 27 13 51.5t19 46.5q12 29 21.5 55.5t19.5 55.5q14 41 40 74.5t57 66.5q31 35 68.5 52.5t84.5 25.5q14 4 17 6q31 15 63 15h4q33 -1 68 -3q29 -2 57.5 -12t56.5 -21 q53 -23 62 -75q2 -12 16 -27q23 -23 10 -45q-6 -14 -10 -28.5t-16 -26.5q-15 -15 -28 -15q-17 0 -32 23q-18 33 -24 74q-4 20 -19 26q-31 16 -57 15q-16 -2 -30.5 -2h-28.5q-16 -2 -30.5 -8.5t-31.5 -10.5q-43 -8 -63 -51q-41 -74 -53 -148q-8 -51 -15.5 -101t-9.5 -101 q0 -25 -3 -50.5t-7 -50.5q-4 -16 -2 -30.5t2 -30.5q-2 -29 1 -55.5t1 -55.5q0 -59 2 -117.5t2 -117.5q2 -96 12 -193q2 -29 9.5 -56.5t17.5 -55.5l20 -58q10 -27 31 -39l16 -12q14 -14 37 -20t46.5 -5t45 8t35.5 19q16 14 29.5 28.5t30.5 26.5q16 12 26 27.5t23 32.5 q4 8 7 19.5t5 21.5q6 53 13.5 104t7.5 105q0 49 5 97t7 97q2 23 0 46.5t-2 45.5q-2 23 -3 44.5t1 44.5q0 12 -3 16t-18 4q-18 0 -36.5 -1t-37.5 1q-29 2 -56 2t-56 10q-8 4 -14 0q-16 -6 -27.5 -1t-22.5 14l-30 26q-10 10 -9.5 13.5t11.5 11.5q20 12 55 16q33 4 63.5 1 t61.5 -7q25 -2 49.5 -2t48.5 4q23 2 45.5 2t44.5 -6q33 -10 45 -47q22 -56 22 -119q0 -14 -1 -29q-2 -8 -1 -16t1 -16q0 -23 -1 -46.5t3 -46.5q2 -17 2 -33t-2 -32q-4 -31 -12 -62q-4 -20 -2 -38.5t4 -36.5q2 -25 0 -47l-17 -99q-4 -10 -7 -19t-7 -20q-6 -16 -12 -31.5 t-9 -31.5q-6 -39 -40 -66q-12 -8 -15 -14q-10 -23 -27.5 -37t-35.5 -26q-41 -27 -85 -36.5t-89 -21.5h-4q-29 8 -60 12.5t-59 14.5q-16 6 -28.5 15t-27.5 20q-35 20 -66.5 41.5t-60.5 50.5q-53 53 -77 125q-20 51 -33.5 104t-24.5 109q-6 35 -9 69.5t-7 69.5q-3 30 -3 59v15 z" />
<glyph unicode="h" horiz-adv-x="860" d="M1 1345.5q5 8.5 22 12.5l77 16q25 8 54 -10q20 -14 37.5 -31.5t25.5 -46.5q4 -12 8 -16q16 -23 21.5 -48.5t3.5 -52.5q-2 -33 -3 -65.5t-5 -65.5q-3 -47 -4 -96q0 -12 1 -24v-41q0 -40 -1 -80q0 -8 -1 -14.5t-1 -14.5q-2 -27 20 -20q53 6 103.5 14t101.5 24 q29 8 58.5 13.5t58.5 11.5q12 2 14 5t2 13q-4 98 -4 193.5v191.5q0 37 -2 72t-6 70q-2 14 -1 27.5t-3 27.5q-4 16 14 21q16 4 34.5 6t37.5 -2q16 -2 26 -19q4 -8 9.5 -15t11.5 -13q6 -8 10 -29q10 -37 13 -75t5 -79q6 -55 6 -108q-3 -27 -3 -55q0 -14 1 -28q2 -42 2 -83 q0 -25 -6 -45q-4 -8 -3 -10q0 -23 1.5 -27t24.5 0q16 4 32.5 7t32.5 7q0 -23 1 -43t1 -43q-8 -4 -15 -7t-15 -7q-10 -4 -17.5 -8t-17.5 -8q-20 -6 -21 -31q-3 -38 -3 -75v-18v-18q0 -37 -3 -76q-2 -33 -1.5 -63.5t-4.5 -63.5q-4 -23 -3 -46t3 -46q4 -25 3 -48t2 -48 q2 -37 2.5 -75t0.5 -74l6 -50q4 -31 4 -62q-1 -4 -1 -8v-13q0 -28 2 -56q0 -14 -2 -20q-4 -10 -8.5 -19.5t-20.5 -7.5q-8 2 -14.5 -3t-16.5 -1q-27 10 -26 37q0 12 -3.5 22.5l-7.5 22.5q-10 23 -13 45t-5 45l-10 141q-4 63 -5.5 125t-3.5 123q0 29 -3 54.5t-5 52.5 q-4 33 -6 63.5t-2 63.5q0 18 -2 36.5t-2 34.5q0 18 -12 15q-31 -10 -63 -18.5t-60 -24.5l-76 -41q-20 -10 -39.5 -15.5t-40.5 -11.5q-10 -4 -21.5 -7t-23.5 -5q-12 -4 -15 -9.5t-3 -19.5q0 -41 2 -80t4 -80l6 -153q0 -39 -3 -77q-2 -23 -2 -47q0 -16 1 -32q0 -41 -4 -81 t-6 -81l-9 -57l-4 -35q0 -25 -24 -25q-6 0 -15 5q-16 8 -35.5 13t-35.5 17q-10 6 -24.5 3t-24.5 -13q-6 8 -12.5 15.5t-16.5 13.5q-18 10 -23 41q-3 46 -3 92t3 92q2 12 1 24.5t-3 26.5q-2 29 -3 56.5t1 56.5t1 56.5t-3 55.5q-3 39 -3 79v21q1 50 1 99t1 99v34q0 33 -1 66 q0 52 -2 106q-1 18 -1 36q0 36 3 71q2 29 2 57.5t4 56.5q3 33 3 66v16v27q0 27 1 55q0 33 -12 68q-8 18 -3 26.5z" />
<glyph unicode="i" horiz-adv-x="448" d="M77 349q-1 5 1 9q4 29 2 54.5t-2 54.5q0 51 6 104q4 27 4 51.5v51.5q0 37 1 74.5t9 74.5q2 8 0 15.5t-2 15.5q-2 20 0 39.5t6 38.5q2 12 2 23.5v23.5q-2 20 0 45q3 29 3 57q0 14 -1 29q-2 43 -6 86v45q0 20 -1 39.5t-7 38.5v20q0 43 41 45q14 2 26 2q30 0 56 -10 q29 -10 49.5 -37.5t20.5 -56.5q0 -25 3 -50.5t1 -49.5q0 -10 -1 -20.5t1 -20.5q0 -10 1 -21.5t-1 -21.5q-2 -25 2 -49.5t4 -47.5q0 -25 2 -48t0 -48t1 -49.5t5 -48.5q4 -35 4 -71t-12 -70q-4 -10 -4 -33q2 -14 0 -28.5t-4 -29.5q0 -16 1 -29.5t5 -27.5q6 -26 6 -49 q0 -18 -4 -33q-2 -6 -2 -13v-13q-2 -31 0 -63t-8 -62q-6 -18 -5 -37t-1 -39q-2 -35 -4.5 -67.5t-8.5 -67.5q-4 -16 -4 -31.5v-32.5q-2 -10 -1 -22.5t-3 -22.5q-4 -6 0 -16q4 -4 3 -9.5t-1 -9.5q-11 -39 -45 -39q-9 0 -20 3q-31 6 -52 4q-27 -6 -49 16q-8 6 -12 25 q-4 29 -4 55t4 55q2 18 2 37.5t-4 38.5q-2 25 2 49.5t4 48.5v58.5t-8 58.5q0 4 -1 9z" />
<glyph unicode="j" horiz-adv-x="802" d="M-16 334l4 100q2 23 7 26t32 -3q14 -4 19 -8.5t9 -18.5q2 -4 2 -7t4 -7q6 -10 7.5 -18.5t3.5 -18.5q2 -31 4 -61.5t2 -61.5q0 -33 6 -64.5t14 -64.5q4 -16 10.5 -34.5t14.5 -35.5q8 -20 15 -39.5t14 -40.5q8 -18 24 -34t33.5 -26.5t36.5 -20.5q31 -14 55.5 -9.5 t46.5 23.5q27 23 43.5 50.5t16.5 64.5q2 10 3 21t5 22q6 23 8 45t4 45q2 45 6 88t8 88q2 45 3 89v18q0 35 -3 71q-2 29 -1 54.5t-1 54.5v25t-2 26q-4 31 -5 62.5t-3 62.5q-4 39 -6 76.5t-2 76.5l-4 82t-6 82q-2 23 -2 43.5v42.5q0 10 -1 21.5t-3 21.5q0 8 -13 12q-8 0 -15 1 t-16 1q-41 0 -78.5 3.5t-78.5 5.5l-72 8q-16 4 -32.5 16.5t-20.5 28.5q-4 8 6 12q23 10 47.5 12.5t50.5 4.5q49 1 98.5 1t100.5 -1q27 0 53.5 -1t52.5 -4h23.5t22.5 3q25 6 59 2q18 -3 34 -3t31 3q25 6 49.5 7t49.5 1h39.5t40.5 2q16 2 34.5 1t34.5 -9q4 -2 6 -1t7 1 q8 4 14 -2q8 -8 0 -17q-4 -8 -4 -10q8 -18 -3.5 -23.5t-21.5 -9.5q-23 -9 -50 -9q-9 0 -19 1q-10 2 -18.5 0t-18.5 -2q-20 -2 -40 1t-42 -1q-20 -4 -41 -7t-43 -3h-8t-7 -4q-4 -4 -0.5 -7.5t3.5 -7.5l-7 -67q-2 -25 -1 -49.5t1 -49.5v-51t2 -51q0 -29 2.5 -59.5t2.5 -59.5 q0 -37 4 -74q3 -24 3 -48q0 -13 -1 -25q-1 -15 -1 -30q0 -22 2 -44q1 -16 1 -32q0 -21 -2 -42q-2 -20 -1 -41.5t1 -44.5q2 -35 3 -71v-25q0 -24 -1 -49q-3 -36 -3 -71v-18v-18q0 -35 -3 -71q-4 -23 -6.5 -42.5t-10.5 -37.5q-6 -16 -6 -29q-4 -43 -19.5 -81t-39.5 -72 q-8 -10 -17.5 -20.5t-23.5 -14.5l-11 -6q-14 -16 -33.5 -23.5t-37.5 -15.5q-27 -10 -49 -4q-14 2 -26.5 2h-27.5q-20 -2 -39.5 2t-39.5 8q-78 14 -142 72q-49 47 -67 106q-16 53 -27 113q-4 18 -6 36.5t-4 43.5q-4 29 -5 65.5t-1 73.5z" />
<glyph unicode="k" horiz-adv-x="774" d="M3 1076q3 36 7 73q2 16 2 31q0 20 -3 40q-4 25 -4 50q0 10 1 20q2 16 4 31.5t6 32.5q4 10 13.5 14t19.5 8q2 2 6 2v4q61 0 107 -39q6 -6 12 -10l12 -8q16 -14 20.5 -32.5t4.5 -39.5q2 -16 1 -29.5t-3 -29.5q-2 -27 -2 -53q0 -20 1 -39q3 -45 7 -92q4 -35 6 -72t6 -72 q0 -10 2 -20t-2 -21q-4 -10 4 -20q8 0 13 8l159 193q23 29 47.5 55t49.5 53q23 23 43 48.5t41 51.5q49 61 110 111q16 14 40 13t40 -17q8 -11 12 -25q2 -8 -4 -12q-37 -37 -67.5 -79t-61.5 -87q-6 -12 -16 -18q-14 -14 -23 -29q-14 -18 -32 -33q-31 -29 -56.5 -61.5 t-48.5 -67.5q-6 -12 -13 -23.5t-15 -21.5q-53 -66 -107 -125q-20 -23 -38.5 -45t-41.5 -41q-8 -8 -2 -16q29 -41 53.5 -83t44.5 -89l11 -25q12 -31 28.5 -59.5t32.5 -56.5q20 -31 37.5 -62t38.5 -61q27 -41 53.5 -82t54.5 -84q16 -27 34 -54.5t34 -56.5l45 -71 q16 -25 -10 -31q-6 -2 -12.5 -5t-10.5 -5q-23 -2 -43 0t-37 22l-63 84q-41 59 -79 122.5t-77 127.5q-4 10 -9 19.5t-9 19.5q-29 59 -65 109.5t-70 103.5l-4 8t-7 2q-4 -2 -4 -5t-2 -7q-6 -23 -2 -49q2 -16 4 -34t6 -34q4 -12 0 -29q-6 -29 -6 -58.5v-57.5q-1 -16 -1 -32.5 t1 -32.5q2 -32 2 -64q0 -35 -2 -68t-8 -68q-10 -49 -39 -81q-10 -10 -14 -10.5t-14 10.5l-29 -27q-10 -10 -19 2l-2 2q-16 -10 -31.5 -5t-29.5 17q-4 4 -9 9.5t-9 9.5q-12 10 -14.5 23.5t1.5 29.5q4 10 4 18.5v18.5q-2 25 -3 49.5t-1 46.5q2 31 2 61.5v61.5q1 23 1 47v23.5 v23.5q0 24 1 47q0 25 -1 49.5t-5 47.5v22q0 63 1 125v42q0 42 -1 85v270v48.5t-4 48.5q-2 20 -2 40q0 15 1 30z" />
<glyph unicode="l" horiz-adv-x="624" d="M8 172l4 223q4 47 9.5 94.5t7.5 94.5q0 51 5 101t5 101v213q0 23 -1 43.5t-1 42.5q0 23 2 44.5t4 44.5q2 25 4 48t-2 46q-4 16 4 24q4 10 12 11q12 -2 28.5 2t27.5 4q29 2 60.5 -8.5t53.5 -28.5q23 -18 28 -40t7 -46t2 -49t-2 -49q-4 -50 -8 -99q-2 -20 0 -40.5t2 -41.5 q-2 -33 -1 -63.5t3 -63.5q0 -31 -9 -61.5t-13 -59.5q-3 -23 -3 -46q0 -11 1 -23l4 -68q0 -4 -1 -6t-1 -6q-4 -26 -4 -50v-16q0 -45 -2.5 -89t-6.5 -89q-2 -31 -8 -60.5t-2 -60.5q4 -23 3 -44t-3 -44q0 -10 2 -21l4 -22q0 -18 21 -18q16 2 30.5 2h30.5q23 -2 44.5 -3t43.5 -1 q4 0 8.5 1t8.5 1h27.5t27.5 -4q10 -4 20.5 -3t20.5 3q31 6 53 -19l23 -24q18 -33 -19 -43q-23 -6 -44 -7t-44 -3q-29 -4 -55 0v4l-21 2q-23 2 -45 0t-45 -4q-20 0 -39.5 -2t-40.5 -2q-27 -2 -52 3t-50 15q-20 4 -31 2q-25 -4 -47 8t-26 29q-6 18 -6.5 36.5t-2.5 37.5 q-4 43 -5 81.5t-1 65.5z" />
<glyph unicode="m" horiz-adv-x="1052" d="M3 573.5q1 24.5 5 49.5q2 18 2 35.5v35.5q0 31 4 61.5t6 61.5q2 33 0 63.5t-2 63.5q-2 43 -2 87t4 87q2 29 1 59.5t4 59.5l10 84q2 12 17.5 26.5t29.5 16.5l86 8q10 0 16 2q29 10 49.5 1t36.5 -25q18 -23 32.5 -45.5t31.5 -47.5q35 -57 55.5 -118.5t40.5 -122.5l51 -142 q8 -23 15.5 -44t19.5 -46l21 52q33 66 58.5 135t59.5 137q27 53 52.5 105.5t58.5 103.5q23 35 63 41q10 0 17.5 2t15.5 6q23 6 44.5 -4t29.5 -31q23 -53 27 -109q1 -15 1 -29q0 -41 -8 -83q-6 -47 -6 -92q0 -39 -2 -77t-2 -79q0 -20 -1 -40.5t3 -43.5q2 -27 1 -52.5 t-3 -53.5q-2 -41 -3 -84t-5 -86q-2 -33 -4 -64.5t-6 -64.5q-4 -29 -7 -57.5t1 -57.5q1 -22 1 -44v-22q-1 -32 -5 -67v-64q2 -23 -3.5 -43t-3.5 -43q0 -6 -10 -16q-14 -10 -24.5 -22.5t-10.5 -28.5q0 -12 -14 -8q-10 4 -20.5 5t-20.5 9l-15.5 15.5t-17.5 11.5q-6 4 -6 16 q2 17 2 34q0 29 -6 60q-4 27 -5 53.5t-1 55.5q0 47 -1 93v31q0 31 1 62q2 66 4 129.5t6 128.5q4 61 7 121.5t12 120.5q4 49 6 97t6 95q2 25 6 48.5t4 48.5q0 4 1 9t-3 9q-8 -4 -11 -10t-7 -13q-16 -25 -26.5 -50t-23.5 -50q-23 -51 -45 -101t-49 -102q-18 -35 -37.5 -69.5 t-46.5 -67.5q-6 -8 -12 -14t-16 -10l-23 -15q-25 -25 -49 0q-23 23 -43.5 47.5t-30.5 55.5q-10 27 -24.5 50t-24.5 50q-29 74 -54.5 149.5t-43.5 153.5q0 8 -6 12q-6 -6 -7 -22q3 -22 3 -44q0 -11 -1 -21q-2 -32 -2 -66v-60.5t5 -58.5q2 -16 -3.5 -33.5t-3.5 -36.5 q3 -22 3 -44.5t-3 -45.5q-4 -27 -4 -54q0 -18 2 -36q2 -22 2 -45q0 -17 -1 -33q-3 -39 -3 -80v-22t2 -23q4 -23 4 -45t-4 -45q-9 -57 -9 -114v-12v-13q0 -56 -7 -113q-2 -16 -1 -32.5t-1 -32.5q-2 -57 -25 -113q-2 -12 -18 -22q-10 -6 -20.5 -10.5t-20.5 -12.5 q-6 -4 -16.5 -4t-16.5 4q-10 4 -18 5t-15 5q-37 12 -53 39q-2 2 -2 13q3 42 3 85v21q-1 53 -3 107q0 53 1 107t1 108q0 41 -1 78.5t-1 76.5q-2 25 -1 49.5z" />
<glyph unicode="n" horiz-adv-x="870" d="M-18 1286v19.5t2 19.5q4 25 20 29l39 12q10 4 33 0q23 -8 46 -15.5t42 -25.5q10 -10 26 -10t21.5 -4t9.5 -19q6 -16 15.5 -31.5t19.5 -31.5q41 -66 53 -139q10 -59 24.5 -114.5t37.5 -111.5q8 -16 11 -34.5t7 -36.5q12 -39 27.5 -75t29.5 -73q8 -18 14.5 -38.5 t12.5 -41.5q16 -57 43 -119q25 -55 48.5 -109t49.5 -108q7 -10 11 -12q4 4 4 12v420v21.5t-2 23.5q-2 6 0 13.5t0 13.5q0 35 2 71q1 12 1 23q0 24 -3 47q-4 23 -4 44.5t2 43.5v80q0 25 2 50.5t4 49.5q6 25 2 54q-4 27 -2 50t6 48v14q-3 20 -3 39t3 37q6 37 10 74q2 16 6 19 t21 3h10q14 0 17.5 -2t7.5 -14q4 0 6 4t6 4q4 -4 0 -14q0 -4 -2 -9t8 -7q4 0 3 -2.5t-1 -4.5q-1 -22 -1 -43.5t1 -42.5q2 -43 6 -86q0 -31 -2 -61.5t-4 -61.5q-2 -29 -2 -57.5v-56.5q0 -29 1 -56.5t-3 -56.5q-2 -4 -1 -8t1 -8q6 -41 6 -78l6 -356q1 -25 1 -49v-25 q-1 -37 -1 -74q0 -12 1 -23.5t3 -21.5q4 -31 1 -62.5t1 -62.5q2 -25 5.5 -50.5t5.5 -49.5q2 -37 10 -73t10 -73q4 -27 -2 -51q-18 8 -36.5 9t-37.5 10q-33 14 -51 39q-18 23 -32.5 47t-24.5 51q-33 70 -62.5 140.5t-56.5 141.5q-23 59 -43 118t-39 118q-18 53 -35.5 106.5 t-36.5 106.5q-14 41 -29.5 78t-27.5 78q-2 8 -4 18t-10 21v-68l6 -80l12 -86q2 -14 4 -28.5t-2 -28.5q0 -6 1 -10.5t1 -8.5q8 -25 9.5 -48t3.5 -48q2 -31 -1.5 -61.5t-5.5 -63.5q0 -55 7 -113q4 -35 4 -71.5v-73.5l-9 -182q-4 -74 -51 -121q-16 -12 -32 -12q-20 0 -43 -17 q-4 -4 -11.5 -7t-15.5 1q-12 8 -26.5 13.5t-26.5 15.5q-20 16 -23 39q-4 25 -5 48t-3 46q0 49 -6 98q-2 12 -2 23.5v21.5l-13 160q-4 59 -5 116.5t-3 114.5q-4 47 -5 94.5t-7 94.5q-4 18 -3 36.5t1 39.5q0 70 -6 143q-3 33 -3 66v16v16q0 33 -3 66q0 12 1 24.5t1 26.5 q1 15 1 30q0 30 -3 58.5t-3 57.5q0 15 1 30z" />
<glyph unicode="o" horiz-adv-x="866" d="M9 513q1 46 1 93q0 41 -1 80v26q0 26 1 52q2 82 15.5 181t47 191.5t91 166t147.5 106.5q23 8 39 2q10 -4 27 0q36 10 74 9q23 0 47 -3q41 -6 74.5 -26.5t64.5 -49.5q23 -23 36 -49t23 -55q6 -20 12.5 -39.5t14.5 -38.5q10 -25 13 -49.5t7 -48.5q12 -72 19 -150 q4 -29 6 -56.5t-2 -55.5q-2 -23 -1 -45.5t-1 -44.5q0 -49 1 -97q0 -10 1 -20q0 -39 -4 -78q-2 -23 -2 -43t-4 -43q-4 -27 -6 -53.5t-9 -52.5q-4 -12 -5 -24.5t-3 -25.5q-4 -23 -11 -43t-15 -43l-13 -41q-10 -35 -22.5 -67.5t-40.5 -57.5q-14 -10 -24.5 -24t-20.5 -31 q-18 -25 -45 -39q-12 -8 -26.5 -15t-27.5 -17q-12 -8 -28 -13l-74 -12q-14 -4 -27.5 2t-27.5 6q-31 -4 -54 8l-36 15q-23 8 -42.5 23.5t-35.5 35.5q-27 27 -45.5 57.5t-34.5 65.5q-14 33 -25.5 66.5t-17.5 70.5q-8 49 -15.5 99.5t-11.5 101.5q-3 38 -3 75v18zM228.5 742.5 q-3.5 -29.5 0.5 -60.5l4 -170q2 -41 5.5 -80t9.5 -80q4 -31 8 -61.5t12 -59.5q4 -23 7.5 -43t13.5 -41q4 -8 3 -16t3 -16q8 -16 17.5 -39t21.5 -43.5t26.5 -38t34.5 -25.5q25 -10 49.5 -3t46 24.5t40 40t28.5 45.5q23 43 41 88t29 94q12 61 21 122.5t14 123.5q2 49 6 97 q3 32 3 64q0 16 -1 33v52v92t-4 90v36.5t-9 37.5q-8 20 -10 40.5t-4 43.5q-2 33 -11 74.5t-26.5 79.5t-46.5 64.5t-69 28.5h-13q-47 -1 -83 -25q-40 -28 -67.5 -76t-45 -108.5t-26.5 -122t-14 -114.5t-7 -88q-4 -31 -7.5 -60.5z" />
<glyph unicode="p" horiz-adv-x="768" d="M13 807q1 31 3 61q0 33 -1 64t-1 61q0 92 6 185q2 39 2.5 76.5t0.5 76.5q-2 23 5 30t29 11q16 4 31 4h31t31.5 2t31.5 6q29 4 54.5 1t54.5 -5q8 0 14 -1t14 -3q25 -2 52 -16q23 -12 46 -19.5t46 -21.5q33 -20 61.5 -44t53.5 -52q74 -84 104 -197q20 -73 20 -146 q0 -40 -6 -81q-14 -94 -61 -175t-133 -135q-16 -10 -31.5 -18t-36.5 -8q-12 -4 -18 -8q-27 -14 -66 -21q-12 0 -24 -6q-18 -10 -38 -15t-42 -3q-14 2 -17 -15q0 -51 -7 -100q-4 -31 -4 -63q0 -18 1 -37q2 -20 1 -41t3 -41q4 -10 1 -19.5t-3 -19.5l-14 -146q-2 -16 -8 -27.5 t-17 -21.5q-12 -12 -30 -10q-6 0 -12.5 -2t-14.5 4q-6 6 -15.5 6t-19.5 -2q-23 -4 -33 2t-20 27q-8 10 -4 20q4 6 3 13.5t-3 13.5q-6 18 -2 45q2 27 0 52.5t-6 51.5q-2 16 -2 34v34q-4 57 -7 112q-1 31 -1 62q0 25 1 49v254q2 25 1 50.5t-3 49.5q-2 31 -1 62zM215 1054 q2 -36 2 -73l6 -115q1 -29 1 -57v-29v-17q0 -35 3 -69q2 -18 1 -36.5t-1 -36.5q2 -16 1 -31t-3 -31v-41q2 -18 21 -18q6 0 18 4l60 16q23 4 42 11.5t40 17.5q90 47 131 114.5t51 149.5q4 30 4 61q0 70 -19 148l-14 57q-6 23 -15 41.5t-20 38.5q-18 29 -43.5 49.5t-52.5 38.5 q-12 10 -27.5 15.5t-31.5 1.5q-12 0 -19 2q-23 10 -45 11t-45 1q-10 0 -27 -8q-8 -2 -10 -13q0 -10 -1 -18t-1 -18q-4 -23 -3 -46.5t-1 -46.5q-3 -25 -3 -49q0 -12 1 -25z" />
<glyph unicode="q" horiz-adv-x="989" d="M4 487q-2 27 -2 53.5t2 53.5q4 55 4 108q0 135 35 280.5t107 262.5q49 82 122 141q33 25 76 40.5t89 20.5q26 3 51 3l41 -2q46 -4 85 -14q41 -12 75 -36t63 -55q12 -10 21 -24t13 -31q4 -8 9 -12q23 -27 38 -73t24 -96t14.5 -100.5t9.5 -82.5q4 -47 6 -93.5t2 -93.5 q0 -31 -3 -60.5t-7 -58.5l-17 -145q-4 -18 -8 -36.5t-4 -39.5q0 -6 -2 -11t-4 -11q-4 -10 -7 -20.5t-3 -20.5q-2 -23 -8.5 -43.5t-14.5 -42.5l-18 -55q-4 -10 -8.5 -21.5t-18.5 -17.5q-6 -2 -8 -8.5t-4 -12.5q-23 -57 -66 -113q-8 -10 -6 -16t6 -12l45 -78q4 -10 9.5 -18.5 t5.5 -20.5q0 -4 2 -8l4 -8q-6 -4 -13.5 -4t-11.5 -11q0 -2 -8 -2q-55 18 -86 68l-21 35q-8 14 -20 4q-27 -18 -55.5 -29.5t-59.5 -21.5q-35 -10 -68 -10t-65 10q-133 39 -203.5 136t-101.5 230q-14 55 -22.5 110.5t-14.5 112.5zM244 612q0 -66 4 -128t10 -126q2 -23 4 -44 t8 -44q12 -53 29.5 -109.5t46.5 -96t74 -54.5q13 -4 28 -4q37 0 84 25q14 6 15.5 12t-6.5 18q-20 41 -38 84t-38 84q-4 10 2 19q14 27 43 18q23 -8 42 -21.5t30 -35.5q8 -16 17 -33t17 -33q6 0 8.5 3.5t4.5 5.5q6 10 11 18t15 16q10 6 14.5 15.5t8.5 19.5q16 35 26.5 70 t24.5 69q10 25 13 50.5t8 50.5q4 41 9 80t9 80q4 35 9 70.5t7 70.5q2 29 -1 54.5t-5 53.5q-2 53 -5 94.5t-13 94.5q-8 39 -10 75.5t-25 71.5q-20 31 -29 58q-18 45 -50 66.5t-70 24.5q-7 1 -14 1q-32 0 -63 -12q-38 -15 -69 -41q-49 -43 -76.5 -89.5t-43 -96.5t-23.5 -103 t-21 -111q-6 -27 -11 -53.5t-7 -52.5q-4 -47 -4 -92.5v-92.5z" />
<glyph unicode="r" horiz-adv-x="811" d="M2 -10l6 248q4 78 4 156.5v156.5q0 18 3 35.5t-1 36.5q-5 35 -5 73q0 28 3 58q3 50 3 101v25.5v25.5q0 51 3 102q2 18 5.5 36.5t3.5 38.5q0 31 2 62t2 61q0 47 3 92t17 91l8 24t23 14q6 0 6 11q4 14 14.5 20t20.5 10q35 12 68.5 19.5t68.5 7.5q53 0 107 -6q18 -4 37.5 -4 t37.5 -2q55 -8 102.5 -28.5t88.5 -57.5q10 -10 23.5 -19.5t23.5 -19.5q51 -49 68 -117q4 -18 8 -36.5t6 -37.5q2 -4 2 -12q-10 -41 -15.5 -80t-23.5 -76q-16 -29 -32.5 -53t-41.5 -47q-23 -20 -42 -41.5t-42 -38.5q-47 -35 -102 -61q-63 -35 -127 -53q-16 -4 -6 -17 q37 -49 63 -110q6 -16 14.5 -28.5t16.5 -27.5q23 -43 44.5 -86t37.5 -90l14 -27q16 -29 27.5 -58.5t28.5 -57.5q14 -29 25 -56.5t26 -54.5q4 -10 7 -18t7 -19q8 -27 19.5 -50t23.5 -48q14 -29 25 -66q2 -8 2 -13t-11 -7q-8 0 -8 -6t-10 -8q-27 -4 -47.5 5t-42.5 19 q-10 4 -14 17q-23 51 -51.5 100t-57.5 98q-25 43 -46.5 87t-43.5 89l-117 254q-27 55 -43 107q-4 16 -14 16q-4 -2 -5 -8t-1 -10q0 -29 1 -54.5t3 -54.5q2 -45 3 -89v-8q0 -40 -9 -81q-2 -10 -2 -29v-157q1 -11 1 -22q0 -30 -4 -60q-6 -41 -10 -82q-4 -25 -9 -49.5t-5 -48.5 q2 -20 -20 -33q-18 -10 -39 -17.5t-43 -3.5q-33 6 -47.5 22.5t-18.5 51.5q-2 18 -2 37t2 37zM213 1163q0 -41 2 -80t6 -79q2 -26 2 -52q0 -20 -1 -40q-3 -46 -7 -93v-14q-2 -16 0 -17.5t18 5.5q41 16 78 34.5t78 34.5q147 63 244 180q33 43 33 95q0 24 -7 51 q-8 31 -26.5 54.5t-40.5 45.5q-20 18 -42 31.5t-50 21.5l-213 48h-6q-10 -4 -21.5 -3.5t-21.5 0.5q-14 2 -17 -12q-6 -23 -7 -47t-1 -47q-4 -33 2 -57q4 -16 1 -29.5t-3 -30.5z" />
<glyph unicode="s" horiz-adv-x="686" d="M-31 239.5v32.5q0 47 15.5 95.5t40.5 93.5q8 16 26 10q37 -10 68 -31q25 -20 18 -53q-15 -74 -15 -155q0 -18 1 -37q2 -59 29 -117q6 -14 8 -28.5t10 -29.5q12 -23 27 -38q20 -25 47.5 -34t58.5 -14q16 -2 27.5 4.5t21.5 14.5q6 4 11.5 9t9.5 9q25 18 34 41t13 49 q2 25 6 49.5t2 49.5v13t-4 13q-23 61 -48.5 121t-53.5 119q-37 72 -71 142.5t-69 142.5q-20 41 -35.5 82t-29.5 81q-4 10 -7.5 21.5t-7.5 22.5q-16 33 -21 66.5t-7 68.5q-2 29 1 55.5t7 54.5q4 16 7 31.5t9 32.5q25 59 82 98q37 27 78 44t88 17q68 -2 125 -23.5t92 -80.5 q20 -31 15 -57q-4 -25 -5.5 -48.5t-5.5 -48.5q-2 -12 -8 -22t-10 -23q-8 -16 -25 -12q-16 0 -22 16q-15 39 -15 70l1 53q-1 24 -1 47q-4 23 -22 31q-26 14 -49 14q-8 0 -15 -2q-18 -2 -35.5 -6t-33.5 -8q-41 -14 -51 -47q-8 -20 -11.5 -41.5t-7.5 -44.5q-3 -26 -3 -51 q0 -13 1 -25q2 -37 14 -71q8 -27 16.5 -51.5t18.5 -49.5q12 -29 27.5 -55.5t32.5 -54.5l24 -54q18 -35 35.5 -69.5t32.5 -69.5q10 -29 24.5 -57.5t30.5 -57.5q4 -6 8 -14q10 -33 26.5 -62.5t29.5 -62.5q10 -29 19 -59.5t13 -61.5v-12q0 -37 -10 -76q-6 -20 -10 -40.5 t-10 -43.5q-4 -20 -11.5 -38.5t-23.5 -34.5l-82 -80l-14 -8q-23 -10 -44.5 -18.5t-46.5 -12.5q-29 -4 -60.5 -4t-59.5 10q-14 4 -27.5 6t-26.5 6q-37 16 -62.5 41t-45.5 53q-39 53 -63.5 112.5t-41.5 121.5q-4 16 -4 30.5z" />
<glyph unicode="t" horiz-adv-x="858" d="M-49 1390q2 9 31 17t54 12t54 0q66 -7 131 -8l53 2q44 0 88 1h12q38 0 75 -5q23 -4 44 -3t44 3q29 0 57.5 -1t56.5 3q23 4 43.5 3t42.5 -5q10 -2 19.5 -1t17.5 3h29q12 4 21.5 -6t13.5 -23q2 -12 -11 -22q-20 -10 -41.5 -18.5t-44.5 -0.5q-14 4 -26.5 2t-24.5 -4 q-31 -4 -61.5 -5t-59.5 -5h-14q-23 -10 -47 -12t-51 0q10 -27 10 -53q0 -9 -1 -18q-5 -34 -7 -68q0 -31 -3 -62t-3 -63q2 -25 -1 -49.5t-3 -49.5q0 -31 -1.5 -61.5t-1.5 -61.5q1 -19 1 -37q0 -28 -2 -55q-3 -45 -3 -92q0 -23 3.5 -45t-1.5 -45q-6 -36 -6 -72v-18v-18 q0 -36 -6 -72q-4 -18 -3 -36.5t1 -37.5q-1 -25 -1 -49v-24.5v-24.5q0 -24 -1 -47q0 -29 -3 -55.5t-7 -55.5q-2 -23 -4 -44t-6 -44q-2 -12 1 -23.5t-1 -23.5q-2 -4 -2 -8t-7 -4q-2 0 -2 -2t-2 -2q-2 -4 0 -9.5t-2 -7.5q-20 -8 -31 -4q-18 8 -20 -10q0 -6 -8 -2t-12 8 q-10 12 -24.5 17.5t-29.5 11.5q-35 12 -28 45q4 10 1 21t-3 22q0 16 2 33.5t0 33.5q-2 25 -2 48.5v46.5q2 41 2 82.5t4 82.5l10 146q2 39 3 78v16q0 31 -3 61q-4 18 0 37q2 10 2 19.5v19.5q-4 25 -2 48.5t6 45.5q2 16 1 30.5t1 31.5q0 18 -1 36.5t3 35.5q2 10 0 21t-2 22 q-2 23 0 44t6 44q0 12 1 24t1 25q0 29 2 57.5t2 56.5q2 18 1 38t-1 38q0 12 -3 15.5t-15 -0.5q-16 -2 -33.5 -4.5t-34.5 -2.5q-47 0 -96 2.5t-96 10.5q-10 0 -14 2q-10 4 -18.5 10t-8.5 20q0 4 -1 5.5t-1 5.5q-4 27 -2 36z" />
<glyph unicode="u" horiz-adv-x="847" d="M4 767q4 132 14.5 262t26.5 251q2 23 6 42t8 40q6 20 29 33q23 9 49 9q8 0 17 -1q20 -2 41 -17q29 -16 48 -36.5t23 -55.5q4 -18 6 -35.5t-6 -35.5q-2 -6 -1 -12.5t-1 -12.5q0 -39 -6 -76q-2 -2 -2 -8q2 -20 -1 -39.5t-1 -40.5v-19t-4 -20q-4 -25 -1 -48t-1 -48 q-4 -10 -1 -22.5t3 -24.5q0 -31 -1 -60.5t-3 -60.5q-4 -47 -4 -94t2 -94q0 -23 2 -46.5t4 -45.5v-64q-1 -28 -1 -56.5t1 -56.5q2 -56 8 -112l8 -53q8 -49 32 -92.5t56 -61.5q19 -10 40 -10q15 0 32 5q39 13 80 75q20 33 36.5 73.5t27 79.5t15.5 71t7 48q10 68 18.5 134 t12.5 136q2 14 2 26.5v27.5q2 29 6 57.5t4 56.5q2 119 5 241t15 241q4 20 5.5 39.5t-1.5 41.5q0 14 1.5 28.5t1.5 29.5q2 18 18 14q57 -4 74 -63q10 -31 10 -62t-4 -63q-2 -18 -2 -37t2 -37q0 -16 -1 -32.5t-1 -33.5q-2 -39 -4 -76.5t-6 -76.5q-2 -18 -1 -38t1 -38 q-2 -31 -3.5 -60.5t-5.5 -60.5q-4 -23 -4 -44t-2 -44q-4 -39 -5 -78t-5 -77q-10 -63 -17.5 -126t-21.5 -126q-8 -49 -25 -101q-20 -55 -49.5 -109.5t-71.5 -92.5t-98 -56q-30 -10 -65 -9q-30 0 -62 7q-63 14 -119.5 53t-87.5 99q-33 59 -51 127.5t-28 136.5q-15 121 -21 252 q-3 76 -4 152q0 55 2 111z" />
<glyph unicode="v" horiz-adv-x="727" d="M18 1329q0 10 11 17q27 16 54.5 23t57.5 -3q29 -8 54 -43q16 -27 21 -54.5t9 -56.5q4 -37 5 -73.5t8 -73.5q4 -20 2 -40.5t0 -41.5q4 -29 7 -56.5t7 -56.5q6 -25 2 -55q-2 -23 -2 -46q0 -17 1 -33q3 -38 9 -74q6 -25 6 -50q-1 -21 -1 -41q0 -51 7 -100q4 -35 4.5 -69.5 t2.5 -69.5q0 -18 6 -37q4 -31 5 -61.5t5 -61.5q0 -8 4 -12q8 6 12 18q23 66 43.5 131.5t32.5 132.5q4 33 14.5 65t16.5 64l16 103q10 43 22.5 84t22.5 82q4 18 9.5 36.5t7.5 36.5q2 29 8 55.5t10 53.5q10 59 24.5 115.5t30.5 113.5l21 64q8 29 28.5 37t47.5 6q16 0 22 -17 q4 -12 6 -24t-4 -25q-16 -41 -23 -83t-20 -83q-10 -35 -20 -69.5t-21 -69.5q-4 -16 -7 -29.5t-5 -29.5q-2 -29 -8 -57.5t-15 -57.5q-8 -27 -12 -53.5t-10 -54.5q-6 -35 -12 -68t-17 -68l-12 -32q-4 -14 -8 -28.5t-4 -31.5q0 -23 -5.5 -43t-9.5 -43q-10 -47 -23 -95t-24 -95 q-6 -39 -24 -72q-8 -14 -12.5 -29.5t-10.5 -31.5q-4 -14 -9 -26.5t-15 -25.5q-4 -4 -7.5 -10t-5.5 -10q-4 -18 -15 -31.5t-22 -27.5q-4 -8 -8 -9q-23 -10 -44 -18t-46 -2q-4 0 -9 1t-9 1q-16 2 -23 16q-4 6 -9 12.5t-13 10.5q-16 4 -23.5 15t-11.5 24q-23 57 -23 114 q0 35 -3 72t-5 72q-2 23 -5 43t-7 43q-4 12 -4 24.5v24.5q-2 35 -3 67.5t-5 67.5l-11 131q-4 39 -8 77t-8 77q-2 18 -1 36.5t-3 36.5q-4 27 -3 53.5t-1 53.5q-2 16 -1 31.5t1 31.5l-11 220q0 16 1.5 32.5t-3.5 32.5z" />
<glyph unicode="w" horiz-adv-x="1130" d="M-25 1341q-4 23 13 35q18 12 37.5 23.5t46.5 7.5l18 -4q16 -6 39 -2q29 6 59 -15q18 -14 23 -40q4 -29 7 -54.5t1 -54.5q-1 -9 -1 -17q0 -34 13 -67q4 -18 5.5 -36.5t3.5 -37.5q12 -78 18 -153q2 -18 4 -38t2 -38q0 -37 8 -64q6 -23 8.5 -48t4.5 -50q2 -31 5 -61.5 t7 -61.5q0 -14 1 -28.5t5 -28.5q8 -37 10 -75t13 -73q6 -25 9 -49t5 -49q0 -18 8 -33q6 2 6 11q10 61 21.5 121.5t25.5 121.5q10 37 15.5 75t11.5 77q10 47 15.5 93t13.5 93l22 131q4 23 5 47.5t5 47.5q8 39 13.5 77.5t13.5 79.5q6 35 15.5 69t19.5 68q8 23 31 23 q33 -2 47 -31q10 -23 17 -46t11 -48q4 -27 4.5 -51.5t4.5 -48.5q4 -29 3 -59.5t1 -59.5q4 -29 6 -55.5t6 -55.5q6 -35 11 -69.5t9 -69.5q4 -33 9.5 -63.5t9.5 -61.5q4 -35 7 -69.5t7 -69.5l19 -135q4 -35 8 -71t6 -73q2 -20 6 -39.5t8 -42.5l4 -4q8 31 14.5 60.5t10.5 58.5 q4 35 7 71t7 70q4 25 7.5 50.5t9.5 48.5q4 23 6 43t4 43q4 39 10 74.5t12 72.5q2 16 4.5 29.5t2.5 30.5q0 12 2 24t6 23q12 51 18 104q4 41 14.5 80t18.5 80q4 23 10 46.5t8 45.5q2 16 8.5 32.5t12.5 33.5q8 18 12 36q2 18 7.5 37t9.5 35q8 27 36 21q16 -2 26.5 -11.5 t21.5 -21.5q4 -6 4 -14.5t-2 -16.5q-10 -41 -18.5 -81t-20.5 -81q-10 -35 -15.5 -68.5t-15.5 -68.5q-8 -27 -11 -52.5t-7 -51.5l-15 -76q-4 -33 -10 -63.5t-6 -61.5q2 -14 -1 -26.5t-7 -24.5q-20 -59 -23 -113l-8 -51l-33 -217q-4 -27 -6 -51.5t-6 -49.5q-4 -16 -6 -29.5 t-6 -27.5q-12 -37 -19 -76q-2 -23 -9 -41t-13 -39q-4 -10 -6.5 -20t-2.5 -20t-2 -19.5t-12 -13.5q-29 -10 -45 4l-17.5 14t-17.5 10q-16 8 -22 33q-12 74 -24.5 147.5t-22.5 147.5q-12 78 -22.5 153.5t-22.5 151.5q-10 72 -21.5 140.5t-19.5 140.5l-9 88q-12 -16 -10 -27 q4 -14 -1 -26.5t-7 -24.5q-4 -29 -9 -54.5t-7 -53.5q0 -8 -5 -25q-4 -16 -2 -32.5t-2 -33.5q-2 -16 -5 -33.5t-5 -33.5l-18 -117q-2 -14 -3 -27.5t-5 -25.5q-4 -23 -7.5 -45.5t-7.5 -44.5l-18 -76q-4 -16 -6 -32.5t-4 -33.5q-4 -29 -4.5 -57.5t-12.5 -56.5q-4 -8 -4 -16.5 v-18.5q4 -35 -20 -51q-6 -10 -7 -21q-2 -8 -3 -16t-5 -17q-10 -20 -26.5 -27t-34.5 -9q-20 -2 -40 0t-40 6q-35 4 -46 16t-20 45q-16 59 -25 118.5t-20 119.5q-4 14 -5 27.5t-3 27.5q0 35 -6 66.5t-10 66.5l-23 162q-10 53 -15 104.5t-16 102.5q-6 31 -10 62.5t-8 64.5 q-4 39 -12 76.5t-13 76.5l-20 126t-16 126q-2 12 -3 24.5t-6 24.5z" />
<glyph unicode="x" horiz-adv-x="798" d="M-29 -57q-4 8 4 20q29 31 46.5 67t37.5 70q33 57 63 115.5t56 118.5q14 33 31.5 60.5t32.5 60.5q6 20 2 37q-20 57 -40 114.5t-38 114.5q-23 61 -40 121.5t-36 122.5q-16 59 -33.5 117.5t-36.5 117.5q-10 37 -16 74t-14 72q-4 20 12 26q14 4 27.5 9t27.5 1h19q25 8 47 -1 t45 -17t35 -26.5t18 -41.5l25 -92q2 -20 18 -39q14 -18 21 -49q14 -49 27.5 -99t23.5 -104q4 -16 8 -31.5t12 -31.5q8 -18 14.5 -37.5t12.5 -38.5q8 -18 18 -4q4 4 6.5 8t4.5 8q12 33 28.5 63t32.5 60l64 133l122 242q6 14 14.5 25.5t18.5 21.5q18 16 37 8q10 -4 18.5 -7 t14.5 -13q14 -16 4 -33q-14 -29 -24.5 -58.5t-26.5 -58.5l-33 -47q-16 -31 -29.5 -62.5t-23.5 -66.5q-4 -12 -10.5 -25.5t-14.5 -25.5q-20 -31 -31.5 -65.5t-27.5 -67.5q-23 -47 -41.5 -94t-46.5 -90q-16 -18 -6 -41q10 -25 15 -49.5t11 -51.5q6 -25 17 -57q0 -4 2 -7t4 -7 q12 -16 19 -34t11 -34l68 -211q16 -43 29.5 -85t29.5 -83q4 -10 3 -17t4 -16q8 -23 11 -43t13 -41q4 -10 -4 -16q-18 -12 -37.5 -21.5t-42.5 -7.5q-18 2 -36.5 1t-37.5 -3q-37 0 -51 33q-23 51 -41 101.5t-39 101.5q-23 53 -41 107.5t-34 107.5l-17 45q-4 8 -6 16.5 t-10 16.5q-31 -66 -68 -123l-6 -10q-16 -16 -26.5 -35t-16.5 -41q-12 -57 -39 -96l-67 -115q-12 -20 -37 -25.5t-47 13.5q-14 12 -13 28q0 4 1 8.5t-1 8.5z" />
<glyph unicode="y" horiz-adv-x="831" d="M-37 1315q-14 33 17 41q20 6 39.5 8t39.5 -6q12 -4 17 -10l24 -33q18 -35 45 -62.5t48 -62.5q8 -12 14 -25.5t12 -27.5q6 -12 13.5 -25.5t11.5 -26.5q10 -27 26.5 -48t30.5 -44q14 -20 28.5 -37.5t28.5 -35.5q12 -16 20.5 -33t18.5 -33q4 -6 7.5 -12t9.5 -13l18 52 q16 49 32.5 99t39.5 97q20 41 36.5 84t32.5 86q10 29 23.5 58.5t26.5 58.5q6 14 15 26.5t13 28.5q10 20 31 17q27 -2 52.5 -3t49.5 -12q20 -6 30.5 -24.5t6.5 -36.5q-4 -12 -5 -23.5t-3 -21.5q-4 -29 -14 -47q-12 -25 -21.5 -51.5t-21.5 -51.5q-14 -29 -20.5 -59.5 t-14.5 -61.5q-4 -16 -12.5 -27t-12.5 -28q-14 -41 -24 -81t-27 -81q-12 -33 -20.5 -66.5t-18.5 -68.5l-61 -188q-12 -39 -26.5 -78t-31.5 -78q-8 -20 -15 -38.5t-13 -39.5l-31 -118q-12 -43 -24.5 -86t-28.5 -84l-74 -166q-4 -6 -8 -19q-6 -12 -13.5 -22.5t-23.5 -12.5 q-4 0 -8 -4q-6 -4 -11.5 -7t-11.5 3q-4 2 -10 -2q-2 -2 -8 -2q-10 -4 -14.5 6.5t-14.5 1.5q-10 -8 -17 -3t-16 9q-12 4 -19 18.5t-3 27.5q10 41 17 82.5t24 80.5q14 31 20 64t17 65q14 47 27.5 93.5t23.5 93.5q10 37 19.5 72.5t15.5 72.5q4 16 9 29.5t9 28.5q16 47 32.5 93 t33.5 93q6 16 -9 27q-57 43 -96 102q-20 29 -41.5 57.5t-44.5 57.5q-35 47 -62.5 95t-56.5 97q-16 29 -28.5 58.5t-26.5 58.5l-39 78q-4 4 -4 6z" />
<glyph unicode="z" horiz-adv-x="647" d="M-6 39q8 37 18 76q18 59 36 120.5t40 120.5q23 59 40 116.5t36 117.5q23 82 50.5 163t55.5 160q27 70 51.5 138.5t57.5 136.5l12 26q8 18 -10 17q-12 -4 -24.5 -3t-24.5 1q-31 -2 -61.5 1t-61.5 7q-33 4 -59 18q-8 4 -15.5 6.5t-17.5 4.5q-55 8 -99 51q-10 12 -14 26.5 t-6 28.5q-4 23 25 23q10 0 18 -4.5t16 -8.5q47 -31 98.5 -41t106.5 -12q35 -2 67.5 -2t65.5 4q29 2 54.5 1t52.5 -1q31 -2 50 -15t32 -36q8 -14 14 -27.5t12 -27.5q4 -12 2 -19q-4 -10 -3 -22.5t1 -24.5q-4 -55 -26 -102q-10 -20 -16.5 -42t-12.5 -44q-4 -23 -13.5 -42.5 t-13.5 -39.5q-6 -23 -17 -42.5t-17 -41.5q-10 -35 -23.5 -64.5t-24.5 -64.5q-4 -16 -11 -30.5t-15 -31.5q-10 -25 -18.5 -49t-18.5 -49q-12 -35 -24.5 -69.5t-28.5 -69.5q-4 -8 -1 -15.5t-1 -15.5q-10 -23 -16.5 -47.5t-16.5 -46.5q-20 -51 -45 -101.5t-49 -99.5 q-2 -4 -4 -7t2 -7q10 -2 22 -3t27 -1q59 -8 120.5 -13.5t120.5 -13.5q20 -4 38 -10t32 -23q14 -20 -4 -36q-14 -10 -29.5 -11.5t-31.5 -3.5h-18q-38 0 -76 6q-46 8 -93 13q-16 2 -32.5 0t-32.5 -4h-66q-12 0 -23.5 -1.5t-21.5 -3.5q-25 -4 -48.5 -5t-47.5 1q-31 2 -39 33 q-6 23 -6 44q0 18 4 34z" />
<glyph unicode="{" horiz-adv-x="339" d="M10 143q0 72 17 148q10 41 26.5 76.5t36.5 70.5q16 27 21.5 55.5t1.5 59.5q-4 23 -13 41q-14 18 -30.5 35.5t-40.5 25.5q-18 8 -19 29q6 33 29 43q25 10 44 25.5t40 31.5q20 16 23.5 33t-7.5 43q-10 25 -25.5 47.5t-27.5 44.5q-12 27 -21.5 53.5t-13.5 55.5 q-4 27 -4 52.5v53.5q2 88 49 166q23 37 54.5 67t68.5 54q16 10 31.5 19.5t36.5 13.5q57 8 43 -45q-4 -10 -11.5 -20.5t-23.5 -10.5q-8 0 -21 -8q-6 -6 -13 -11.5t-15 -11.5q-16 -12 -29.5 -25.5t-19.5 -31.5q-16 -41 -27.5 -82t-15.5 -84q-2 -16 -4.5 -31.5t2.5 -31.5 q4 -25 9 -50.5t11 -50.5q4 -16 12 -26q18 -29 30.5 -62t8.5 -67q-4 -68 -55 -111q-20 -21 -49 -33q2 -6 4 -7t4 -3q31 -27 49.5 -58.5t18.5 -72.5q-4 -57 -19 -109q-6 -18 -15 -35.5t-14 -35.5q-8 -33 -13 -65t-9 -64q-4 -47 1 -94.5t11 -94.5q6 -41 10.5 -83t13.5 -82 t28.5 -74.5t58.5 -61.5q16 -10 26.5 -23.5t6.5 -35.5q-6 -39 -37 -21q-12 8 -23.5 17.5t-25.5 13.5q-27 12 -49.5 35.5t-42 53.5t-34 60.5t-24.5 59.5l-22 78q-16 78 -13 151z" />
<glyph unicode="|" horiz-adv-x="307" d="M61 -47q0 41 5 82q2 29 4 58.5t6 58.5q2 10 1 22t-1 23v94t1 174t1 214v214t-1 174t-1 94q0 29 1 57.5t3 57.5q2 16 5 19t19 3q35 0 60 -26q16 -16 12 -39q-4 -18 -3 -36.5t1 -37.5v-87v-168v-207.5t1 -208t1 -168v-87.5q-2 -29 -1 -59.5t1 -58.5q0 -41 -1 -79t-3 -77 q-2 -23 -2 -42v-42q2 -29 1 -56.5t3 -56.5q2 -16 -3 -30.5t-9 -28.5l-6 -18q-2 -8 -2 -16.5t-13 -8.5q-2 -2 -2 -4v-4q-4 -10 -10 -4q-8 6 -25 10q-25 4 -28 33q-2 16 -4 34.5t-6 34.5q-4 29 -3.5 56t-1.5 43v94z" />
<glyph unicode="}" horiz-adv-x="397" d="M-27 1440q-18 55 41 45q20 -2 37 -11.5t33 -19.5q35 -25 67.5 -53.5t55.5 -67.5q23 -37 37 -78t16 -86q0 -29 1 -54t-3 -52q-4 -29 -13 -55.5t-22 -53.5q-10 -25 -24.5 -46t-24.5 -48t-7 -43t23 -33q20 -16 41 -30.5t43 -24.5q14 -6 20.5 -17.5t8.5 -23.5q4 -20 -16 -31 q-25 -10 -40.5 -26.5t-29.5 -36.5q-12 -16 -12 -41q-6 -63 22 -113q23 -35 40.5 -70.5t27.5 -76.5q10 -35 13 -72t7 -74q4 -78 -12 -151q-4 -20 -9 -39.5t-11 -40.5q-10 -29 -23.5 -60.5t-32 -60t-41 -53.5t-49.5 -37q-14 -6 -25.5 -14t-23.5 -17q-31 -18 -37 19 q-4 23 6.5 36t24.5 23q37 27 56.5 62.5t28.5 75.5t12 82t9 83q4 47 8.5 94.5t0.5 94.5q-4 35 -10.5 66.5t-14.5 62.5q-4 20 -13 36.5t-16 34.5q-16 49 -20 107q-2 43 16.5 74.5t46.5 58.5q9 4 9 10q-29 12 -50 33q-51 43 -57 109q-2 70 39 131q6 14 10 26q6 25 11.5 50.5 t9.5 50.5q2 16 0 31.5t-6 31.5q-4 43 -15.5 84t-27.5 80q-8 20 -21.5 33.5t-30.5 23.5q-8 6 -15 11.5t-13 11.5q-12 8 -21 8q-16 0 -23.5 9t-11.5 22z" />
<glyph unicode="~" horiz-adv-x="653" d="M6 457q-2 39 17 67q47 86 120 123q16 10 35 11t37 -3q72 -14 117 -98q12 -23 26.5 -41t34.5 -31q23 -14 42.5 -10t39.5 19q29 18 46.5 48.5t31.5 65.5q4 10 8 18.5t8 18.5l6 12q4 6 13.5 8.5t15.5 -1.5t7 -12.5t3 -16.5q0 -2 -2 -4q4 -35 -7 -62.5t-23 -54.5 q-10 -23 -20.5 -43t-24.5 -39q-12 -18 -29 -29q-20 -10 -39.5 -16t-42.5 -2q-16 -2 -32.5 2t-31.5 21q0 2 -10 6q-12 6 -24.5 15t-22.5 24l-6 8q-16 10 -26.5 27.5t-20.5 35.5q-14 23 -37 39q-8 6 -17.5 4t-17.5 -6q-20 -10 -38.5 -24.5t-35.5 -36.5q-10 -16 -22 -28.5 t-23 -27.5q-14 -18 -28 -18q-25 4 -27 31z" />
<glyph unicode="&#xa1;" horiz-adv-x="342" d="M16 901q0 4 1 7t1 7q10 25 33 43.5t47 16.5q18 -2 35 -5t33 -14q10 -6 12 -14q20 -31 21 -61q-2 -16 -10.5 -33t-18.5 -29q-10 -14 -27.5 -22.5t-40.5 -3.5q-42 -6 -65 41q-8 16 -12.5 33.5t-8.5 33.5zM41 268q0 33 2 63.5t4 63.5q0 37 6 74q4 37 6 76t9 76q2 14 18 17 t29 -1q10 -2 18 -4t19 0q10 0 12 -8q4 -8 8 -14.5t4 -16.5q2 -23 7 -45.5t1 -44.5q-4 -23 0 -45q6 -41 11.5 -82t13.5 -82l31 -164q6 -23 10 -45.5t8 -44.5q8 -41 12 -82t9 -82q6 -49 7 -99t-5 -100q-4 -29 -13.5 -55t-19.5 -51q-16 -37 -51 -47t-64 -2q-10 0 -12 6 q-6 14 -13.5 27.5t-11.5 29.5q-10 70 -16 139.5t-14 139.5q-2 14 -5.5 27.5t-1.5 25.5q2 31 -1 60.5t-5 58.5q-4 57 -7 114.5t-5 116.5z" />
<glyph unicode="&#xa2;" horiz-adv-x="598" d="M-30 462q-1 25 3 52q2 16 1 31.5t1 32.5q4 51 13.5 98t29.5 94q14 35 36 65.5t50 59.5q12 14 24.5 27.5t29.5 23.5q23 14 44 27.5t46 19.5q10 4 10 17q-2 29 1 56.5t3 55.5q-4 0 0 4q0 27 14 27q16 0 31 -14q8 -10 10 -21.5t5 -21.5v-76q0 -16 16 -16q25 0 46.5 -9.5 t41.5 -25.5l25 -19q51 -45 49 -104q-4 -27 -17 -41q-10 -10 -22 -4q-37 23 -39 59v10q0 25 -21 41q-14 8 -26.5 17.5t-30.5 11.5q-12 2 -15 0t-3 -14v-52q-4 -55 -3 -111t5 -114q2 -27 2 -51.5t-4 -48.5q-2 -23 -5.5 -46.5t-1.5 -45.5q4 -23 1 -43.5t-1 -42.5v-52.5t5 -52.5 q0 -6 -1 -12t-1 -12q-2 -27 -3.5 -53.5t-1.5 -53.5q-2 -23 21 -16q18 6 35.5 13t29.5 24q4 6 11.5 10t11.5 10q27 29 29 62q4 31 14 59q8 27 31 22q25 -6 20 -32q0 -10 1 -21.5t1 -21.5q-2 -12 -4 -25.5t-8 -25.5q-4 -6 -5 -13.5t-5 -15.5q-10 -27 -24.5 -49.5t-41.5 -38.5 l-43 -23q-14 -8 -27.5 -9t-29.5 -1q-14 2 -17.5 -1t-5.5 -17q-4 -23 -5 -46.5t-5 -48.5q-4 -27 -18 -39q-20 -20 -29 9q-2 8 -3 15t-1 17q-2 12 -2 24.5t-4 25.5q-4 14 -4 26t2 27q2 10 0 13t-13 7q-47 16 -85 45t-72 60q-16 16 -26.5 33.5t-18.5 37.5q-18 43 -31 93 q-6 23 -10 44t-9 44q-6 25 -7 50zM144 378q-1 -44 1 -89q0 -59 25 -117q2 -4 4 -7t6 -7q29 -20 51 -29q14 -4 17 10v19.5t2 19.5q6 39 2 82q-2 23 -3 43.5t-1 42.5q2 37 5 73t1 73q0 16 -1 33.5t1 33.5q4 29 7 59.5t1 59.5q-4 47 0 92t4 92v62q-2 12 -14 10q-20 -6 -31 -21 q-35 -49 -47 -98q-10 -41 -16 -80t-6 -80l-7 -190q0 -43 -1 -87z" />
<glyph unicode="&#xa3;" horiz-adv-x="784" d="M-33 625.5q2 11.5 13 15.5q8 6 22 6q16 0 34.5 1t35.5 3h24.5t24.5 -2q14 0 17 3t5 20q2 25 -1 48t-3 48l-4 106q-2 25 -1 49.5t3 49.5q0 16 1 31.5t1 31.5q-2 37 13 70q4 10 6 22.5t4 24.5q4 41 19.5 75t35.5 66q10 14 18.5 28.5t20.5 25.5q35 29 73 49t83 24 q18 2 35.5 1t35.5 -3t35 -10t33 -16l29 -19q23 -14 37 -36.5t28 -45.5q6 -10 6 -26v-60q-2 -18 0 -35.5t2 -35.5q-4 -43 -30 -64q-12 -12 -21 -4q-8 8 -8 25q4 12 4 18q6 29 2 49q-10 29 -15 57.5t-16 57.5q-12 33 -37 47q-29 16 -69 22q-18 4 -29 0q-16 -4 -30.5 -11 t-30.5 -13q-16 -10 -17 -31q2 -18 -3 -36.5t-9 -34.5q-6 -23 -7 -43.5t-3 -43.5q0 -23 -3 -46t-3 -46l-4 -46t0 -48q4 -31 3 -62.5t-5 -64.5q-2 -12 -2.5 -24.5t-0.5 -24.5q0 -23 -2 -47.5t-4 -46.5q-2 -16 15 -19q33 -2 63.5 4.5t61.5 14.5q14 4 27.5 4h27.5q6 0 10 -4 q16 -4 17 -19q0 -20 -15 -26q-6 -4 -16 -4q-14 -2 -25.5 -6.5t-23.5 -8.5q-27 -10 -66 -14q-14 -4 -27.5 -6t-27.5 -4q-16 -2 -15 -21q2 -23 1 -44t-1 -44v-72.5t-2 -70.5q-2 -16 0 -34.5t0 -37.5q-4 -45 -6 -91t-12 -91l-16 -68q-8 -18 8 -16q43 4 83 -8.5t81 -26.5 q55 -23 108 -24q6 0 10.5 -1.5t8.5 -3.5q37 -14 65 7q14 10 26.5 19t22.5 22q6 8 11.5 15t13.5 11q6 4 15 5t14 -5q12 -12 8 -31l-10 -47q-6 -23 -19.5 -35t-30.5 -22q-35 -18 -72.5 -21.5t-74.5 3.5q-72 12 -152 30q-61 12 -123 11q-18 -4 -36.5 -8.5t-36.5 -14.5 q-12 -6 -24.5 -10t-22.5 -21q-23 -4 -42.5 -13t-41.5 -5q-25 6 -15 28q10 23 17.5 45.5t19.5 45.5q16 23 23.5 50t11.5 56q14 80 18 160q0 23 -3 45t-3 45l-4 106q-4 74 0 148q0 14 -10 14q-14 0 -26.5 -1t-26.5 1q-16 2 -30.5 5t-31.5 12q-10 4 -19 8t-18 14 q-10 10 -8 21.5z" />
<glyph unicode="&#xa4;" horiz-adv-x="833" d="M29 1432q8 18 22 18q16 2 32.5 -4t31.5 -14q23 -12 41 -30t34 -36l7 -8q16 -16 21 -16.5t24 10.5q27 14 55.5 25.5t56.5 17.5q29 4 56.5 -1t54.5 -16q10 -4 21.5 -8t23.5 -8q10 -4 19.5 -7t17.5 -12q12 -8 14 -7t10 12q68 72 146 118q23 12 37 0q16 -12 8 -26 q-2 -6 -10 -15q-23 -33 -49.5 -57.5t-55.5 -48.5l-6 -4q-6 -8 -15.5 -13.5t-13.5 -15.5q-2 -10 3.5 -18t9.5 -19q8 -25 10 -50t6 -50q6 -53 2 -104.5t-14 -102.5q-4 -18 -15 -29l-10 -18q-6 -12 4 -18q25 -23 44.5 -48.5t41.5 -50.5q10 -16 17 -37q6 -23 -21 -22 q-10 0 -26 8q-16 10 -32 24.5t-28 30.5q-10 12 -23.5 23.5t-23.5 23.5t-22 0q-18 -18 -43 -27t-48 -20q-35 -14 -82 0q-25 6 -49 13.5t-47 19.5q-14 6 -18 5t-15 -11q-18 -20 -39.5 -38.5t-41.5 -37.5q-10 -10 -23.5 -19t-26.5 -20q-16 -10 -36 -6q-27 4 -13 27q16 29 39 50 t45 44l58 53q-49 39 -66 84q-14 39 -25.5 79t-7.5 81q6 90 54 158l6 6q8 8 -2 18q-23 23 -46.5 44.5t-48.5 41.5q-10 6 -15 14.5t-13 16.5q-10 10 -2 27zM268 999q-2 -35 15 -71q8 -20 22 -25q27 -10 52.5 -14t54.5 6l45 10q29 6 49 19.5t33 40.5l10 18q16 23 24.5 45.5 t4.5 50.5v2q2 41 -5.5 79t-27.5 73q-14 23 -31 33q-12 6 -25.5 12t-23.5 16t-24.5 12.5t-26.5 0.5q-31 -4 -62 -19q-41 -14 -53 -55q-4 -10 -9 -20.5t-7 -22.5q-10 -47 -11.5 -95t-3.5 -96z" />
<glyph unicode="&#xa5;" horiz-adv-x="727" d="M-25 1352q2 27 31 24q84 -10 121 -84q14 -27 29.5 -51t27.5 -53q23 -57 48.5 -112.5t48.5 -112.5l28 -58q12 -25 20.5 -51.5t24.5 -50.5q2 -2 3 -4t5 -4q10 16 18.5 31.5t16.5 31.5q23 43 41.5 86t40.5 84q41 82 82 162t88 158q4 10 10.5 16t14.5 14q29 27 65 8 q4 -4 6 -4q18 2 24.5 -9t10.5 -23q16 -33 11 -64q-2 -14 -8.5 -26.5t-10.5 -26.5q-10 -25 -22.5 -46.5t-28.5 -43.5q-10 -16 -17.5 -33.5t-15.5 -34.5q-23 -43 -44 -86t-44 -84t-46.5 -80t-43.5 -80l-16 -32q-6 -16 10 -13q10 0 26 5q33 6 66 8t66 2q12 0 20 -6.5t16 -12.5 q10 -10 2 -20q-8 -12 -8 -21q0 -6 -8 -6q-18 0 -34.5 -8t-33.5 -12q-33 -8 -63.5 -14.5t-63.5 -10.5q-16 0 -16 -18q-2 -25 -4 -50.5t-2 -50.5q-2 -10 -3 -20t-1 -21q0 -16 2 -19t18 -1q23 2 43.5 3t42.5 5q66 6 127 -12q20 -8 23 -21q2 -10 -2 -18t-8 -19q-2 -4 -6.5 -3 t-8.5 1q-29 4 -57.5 -1t-56.5 -11q-27 -4 -52.5 -9t-50.5 -11q-14 -4 -16 -7.5t-4 -19.5q0 -39 -3 -77t-5 -79q-2 -10 -5.5 -17t-3.5 -17q2 -20 1 -39t-1 -39l-6 -107q-2 -10 2 -30q2 -8 -4 -23q-14 -27 -36.5 -28t-45.5 -3q-4 0 -7 1t-7 1q-20 -4 -33.5 4.5t-26.5 24.5 q-12 18 -12 39q2 27 -1 51.5t-1 50.5q4 59 4 117.5t8 118.5q2 10 1 22.5t-1 22.5q0 23 -18 16q-27 -6 -52.5 -5t-53.5 1q-23 2 -42.5 9.5t-39.5 17.5q-12 4 -16.5 15t-6.5 24q0 16 16 22q20 8 31 8q37 0 74 4.5t76 6.5q29 4 35 9t10 34q4 31 7 61.5t-3 63.5q-2 6 0 11t2 11 q-4 16 -6 19.5t-19 1.5l-75 -13q-47 -6 -93 4q-12 4 -23 17.5t-14 25.5q0 18 23 25q23 4 44.5 7t43.5 1q27 0 52.5 5.5t56.5 11.5q-23 31 -35 64.5t-33 62.5q-4 6 -6 13t-6 15q-16 35 -34.5 68t-39.5 65q-20 35 -34.5 70t-31.5 72q-16 45 -35.5 90t-41.5 86q-4 10 -8.5 18 t-2.5 19z" />
<glyph unicode="&#xa6;" horiz-adv-x="307" d="M61 -47q0 41 5 82q2 29 4 58.5t6 58.5q2 10 1 22t-1 23q0 59 2 117.5t-2 117.5q0 29 1 57.5t3 57.5q2 18 5 21t19 3q35 0 60 -26q14 -18 12 -41q-4 -16 -3 -34.5t1 -37.5q-2 -51 0 -100t2 -99q-2 -29 -1 -59.5t1 -58.5q0 -41 -1 -79t-3 -77q-2 -23 -2 -42v-42 q2 -29 1 -56.5t3 -56.5q2 -16 -3 -30.5t-9 -28.5l-6 -18q-2 -8 -2 -16.5t-13 -8.5q-2 -2 -2 -4v-4q-4 -10 -10 -4q-8 6 -25 10q-25 4 -28 33q-2 16 -4 34.5t-6 34.5q-4 29 -3.5 56t-1.5 43v94zM70 750q-2 23 0 42t2 42q4 37 4 72.5v72.5q0 39 3 77t3 74q0 47 4 92.5t8 92.5 q2 23 1 43t3 43q4 16 -2 31v14q2 14 21 14q67 1 71 -67q0 -12 -1 -25.5t1 -26.5q2 -31 1 -61.5t-5 -58.5q-4 -35 -6 -71t-6 -71q-2 -20 -2 -39.5v-38.5q0 -14 -2 -27t0 -28q4 -33 3 -64.5t-1 -64.5q-2 -18 -2 -35.5v-36.5q0 -18 -6 -33.5t-15 -31.5l-4 -4q-8 -4 -22.5 0 t-18.5 12t-8 10q-14 10 -18 22.5t-6 29.5z" />
<glyph unicode="&#xa7;" horiz-adv-x="575" d="M-29 1077q0 43 7.5 82t21.5 64l27 53q33 68 96 100l29 19q35 23 77 16q20 -4 40 -6t40 -6q47 -16 72 -50t39 -77q2 -4 1 -7t1 -8q10 -23 -1 -39t-30 -32q-16 -14 -37 6q-27 29 -28 65q-2 31 -20.5 47.5t-49.5 20.5q-39 8 -65.5 -7t-51.5 -40q-45 -43 -43 -100.5 t28 -113.5t66.5 -108.5t71.5 -85.5q41 -43 76 -91t63 -101q8 -16 14.5 -33.5t10.5 -34.5q4 -18 9 -35.5t14 -35.5q8 -16 10 -34t4 -34q2 -37 -1 -74t-3 -73q-2 -23 -4 -45.5t-13 -45.5q-6 -16 -8 -30.5t-8 -30.5q-10 -25 -25.5 -45.5t-38.5 -36.5q-14 -10 -15 -18.5t9 -24.5 l62 -82q18 -27 31.5 -55.5t17.5 -61.5q4 -29 6 -57.5t4 -56.5q2 -14 -2 -26.5t-8 -24.5q-14 -29 -21 -64q-12 -59 -59 -102q-10 -8 -18.5 -16.5t-18.5 -16.5q-23 -20 -45 -23q-29 -6 -58.5 -10t-58.5 6q-8 4 -15 6t-13 7l-58 34q-31 18 -51 52q-25 41 -41 86t-22 94 q-2 6 -1 13t1 15q0 27 5 51.5t21 47.5t45 20.5t43 -26.5q14 -18 0 -33q-6 -8 -8 -17.5t-2 -19.5t-4 -31q-2 -31 5 -58.5t18 -53.5q4 -8 6 -14.5t4 -12.5q8 -23 22.5 -38t32.5 -28q35 -18 68 -16q4 2 7 1t5 1q18 10 37.5 20.5t30.5 30.5q33 59 27.5 128t-34.5 128 q-14 29 -34.5 52.5t-42.5 46.5q-68 74 -129 153q-20 25 -38 51.5t-34 55.5q-59 111 -51 231q4 39 9 77t21 75q33 70 76 121q16 16 16.5 19t-12.5 24q-27 45 -52.5 89t-47.5 91q-12 25 -19.5 64.5t-7.5 82.5zM142.5 430.5q19.5 -98.5 66.5 -190.5q14 -29 33.5 -53.5 t42.5 -47.5q18 12 24 29q6 18 12.5 36.5t10.5 39.5q6 35 3 68.5t-11 68.5q-29 129 -111 233q-12 12 -20 17q-14 4 -19 -4q-51 -98 -31.5 -196.5z" />
<glyph unicode="&#xa8;" horiz-adv-x="313" d="M-10 1513q0 23 18.5 44.5t40.5 21.5q18 0 35.5 -19t19.5 -42t-14 -43.5t-39 -18.5t-42 18.5t-19 38.5zM152 1513q0 23 18 44.5t41 21.5q18 0 35.5 -19t19.5 -42t-14 -43.5t-39 -18.5t-42 18.5t-19 38.5z" />
<glyph unicode="&#xa9;" horiz-adv-x="1284" d="M-10 458q-4 38 0 77v49t2 49q2 14 1 26.5t-1 26.5q-4 57 10 105q10 35 10 63q0 29 9.5 54.5t23.5 49.5q6 12 12 24.5t11 25.5q12 35 32 63q37 53 71 98t74 81t91 60.5t121 37.5q41 8 81 14t80 10q16 2 35 1t37 -3h35q33 4 62.5 -5t60.5 -15q12 -4 26 -11q35 -20 70 -39.5 t66 -44.5q39 -31 72.5 -65.5t54.5 -81.5q4 -12 11 -22.5t13 -20.5q18 -27 27.5 -56.5t15.5 -60.5q6 -29 12.5 -55.5t14.5 -52.5q6 -16 7 -32t1 -26q-4 -41 -7 -73.5t-7 -63.5q0 -4 -2 -9t2 -9q10 -18 7 -36t-5 -34q-4 -49 -16.5 -96t-16.5 -94q-4 -23 -13.5 -41.5 t-19.5 -36.5q-4 -8 -8 -14.5t-8 -14.5q-10 -29 -27.5 -50.5t-34.5 -43.5q-12 -18 -27.5 -35.5t-33.5 -34.5q-14 -12 -25.5 -27.5t-27.5 -27.5q-20 -16 -42 -26.5t-48 -14.5q-35 -2 -66 -25q-23 -16 -49 -16q-33 -4 -63.5 -7t-61.5 -13q-6 -2 -11 -1t-12 -1h-33.5t-33.5 -3 q-51 0 -94 15q-23 8 -47.5 14t-47.5 19q-16 8 -33.5 17t-35.5 19l-10 7q-25 8 -45.5 23t-36.5 32q-37 37 -71 75t-60 83q-10 16 -16.5 34.5t-14.5 36.5q-4 12 -10 19q-10 10 -15.5 23.5t-9.5 29.5q-8 39 -12 77zM215 616q-6 -33 2 -86t6 -92q-2 -53 7.5 -113.5t34 -113.5 t64.5 -95t99 -59l51 -16q59 -18 129 -14q76 6 140 32q6 2 11 6.5t11 8.5q51 37 84 63.5t53.5 53t33.5 59.5t26 80q14 43 23 87t22 89q10 37 15 73.5t7 73.5q2 94 -6 191q-4 45 -10 89t-12 91q-6 49 -25 94q-14 29 -35.5 51.5t-44.5 44.5q-49 47 -125 66q-29 8 -57.5 7 t-56.5 -5q-23 -4 -52.5 -1t-56.5 -1q-31 -6 -55.5 -8t-48 -11.5t-48 -29t-57.5 -55.5q-35 -39 -53.5 -92.5t-22.5 -104.5q-2 -16 -5 -29.5t-7 -27.5q-4 -20 -9 -39t-5 -39q0 -23 -11 -35q-12 -18 -6 -47q4 -12 3 -24.5t-1 -24.5q-2 -47 -12 -97zM381 737q-4 57 3 112.5 t22 108.5q6 20 13 40t17 36q20 33 49 56.5t70 27.5q12 0 29 6q18 6 37 0q20 -6 39.5 -8t39.5 -6t37 -15.5t33 -23.5q10 -6 10 -18q2 -14 6.5 -26.5t8.5 -25.5q8 -35 8 -67.5t-12 -67.5q-4 -10 -5.5 -19t-5.5 -20q-6 -14 -12 -16t-20 6q-20 12 -25 45q-2 23 0 42.5t4 41.5 q2 14 2 27.5v30.5q2 23 -10 34t-29 19q-29 14 -64.5 3t-50.5 -46q-12 -31 -18 -62.5t-10 -66.5q-2 -14 -3 -28.5t-9 -27.5q-2 -4 -3 -14q2 -16 1 -31.5t-3 -31.5q-4 -23 -3 -44.5t-3 -43.5q-2 -10 0 -19.5t2 -19.5v-154q0 -20 4 -31q10 -20 17.5 -40.5t11.5 -43.5 q6 -27 31 -32q2 0 14 -5q20 -10 42 -6t38 21l55 61q8 10 9 27q2 12 4 23.5t6 23.5q4 6 4 20t8 17q6 2 13.5 1t11.5 -7q6 -14 13 -25.5t5 -30.5q-4 -49 -27 -94q-4 -6 -8 -13t-8 -15q-29 -47 -76 -66q-12 -4 -24.5 -4t-24.5 -2q-6 0 -12 1t-12 1q-53 -2 -103 18 q-41 16 -66.5 48t-39.5 73t-18.5 83t-8.5 85q-2 45 -1 89t-3 89z" />
<glyph unicode="&#xaa;" horiz-adv-x="804" d="M17 1034q1 49 16 92q25 80 69 142q8 10 15.5 16t15.5 12q33 25 65.5 43.5t73.5 24.5q29 6 58.5 10t58.5 -6q41 -14 76 -55q4 -4 4 -6q6 -6 9 -13.5t14 -7.5q8 0 8 8.5t4 14.5q10 18 18 36.5t19 36.5q10 16 16 18.5t23 -7.5q2 0 2 -1t2 -1q25 -8 37 -26.5t18 -41.5 q6 -25 23 -41q16 -12 12 -39q-4 -35 -11.5 -67.5t-17.5 -67.5l-31 -109q0 -4 -2 -6q-10 -23 -16 -46t-12 -48q-4 -12 -6.5 -24.5t-4.5 -24.5q-4 -8 -3 -16.5t1 -16.5q6 -37 35 -22q25 12 42.5 30.5t31.5 40.5q16 33 22 68q2 20 13 39q8 12 16 0q14 -20 22.5 -41t2.5 -47 q-2 -10 -5 -17.5t-1 -17.5v-4q-12 -18 -21.5 -38t-26.5 -36l-22 -18q-29 -23 -58.5 -27t-64.5 0q-12 2 -23.5 6t-23.5 6q-16 4 -25.5 13.5t-17.5 19.5q-16 16 -22.5 32.5t-22.5 24.5q-12 4 -25 5q-20 -2 -44.5 -24t-45.5 -30q-41 -16 -85 -14t-85 25q-43 25 -69.5 63.5 t-39 84.5t-11.5 95zM182.5 984q-4.5 -42 3.5 -75q10 -43 45 -56t105 36q12 8 23.5 16t21.5 17q16 10 26.5 22t6.5 35v6q4 45 14 89t27 85q8 20 4 51q0 14 -13 25q-41 29 -72.5 31t-59 -14.5t-49 -46t-40.5 -66.5q-10 -16 -16 -36t-12 -38q-10 -39 -14.5 -81z" />
<glyph unicode="&#xab;" horiz-adv-x="438" d="M0 655q4 8 16 21q27 29 50.5 59.5t50.5 59.5l8 8l8 8q12 12 29 6q14 -4 16 -8t6 -18q4 -25 -10 -35q0 -4 -2 -4q-6 -20 -18.5 -35t-28.5 -29l-45 -35q-14 -6 -6 -18q6 -18 18 -31q23 -23 42.5 -45t33.5 -51q4 -4 7 -9t7 -12q4 -4 4 -14q0 -14 -16 -14q-6 2 -14.5 4 t-16.5 8q-10 10 -21.5 16.5t-21.5 12.5q-27 16 -47 47q-4 8 -8 15t-8 16q-4 8 -9.5 14t-11.5 12q-23 23 -12 51zM170 631q-4 14 4 20q12 8 19.5 18.5t15.5 20.5q29 33 58.5 62.5t62.5 58.5l8 8t10 0t12.5 -7t8.5 -13v-11q0 -23 -11 -32q-2 0 -2 -2q-14 -29 -36.5 -48.5 t-45.5 -41.5l-26 -27q-10 -10 0 -21l43 -41q25 -27 47 -53q6 -4 11 -10t9 -10l4 -6q4 -6 6.5 -13.5t-1.5 -11.5q-8 -10 -23 -2q-39 16 -68 39q-10 10 -21 18.5t-22 20.5q-8 10 -17 17t-19 16q-12 10 -17.5 23t-9.5 28z" />
<glyph unicode="&#xac;" horiz-adv-x="704" d="M-4 702q-2 33 20 46q31 12 62 18t63 10q23 4 44.5 3t43.5 3q8 2 14.5 0t14.5 -2q10 -2 22.5 1t22.5 1q33 -4 63.5 0t63.5 0q29 -4 59.5 -5t59.5 -9q4 -2 10 -2q33 0 45 -37q14 -37 17 -70q4 -37 0.5 -73.5t-3.5 -75.5q2 -16 -2 -32.5t-8 -33.5q0 -2 -1 -3t-1 -3v-2 q-10 -4 -10 -12t-2 -18q-4 4 -7 10t-7 8q-4 -4 -4.5 -8t-4.5 -6q-31 57 -24 137q4 25 4 49.5t2 50.5q0 12 -2 15.5t-10 1.5q-29 -4 -55.5 -4.5t-55.5 -2.5q-31 -4 -61.5 -7t-61.5 1q-23 2 -47 -1t-47 -7q-27 -4 -53.5 -6t-53.5 -2q-16 2 -33.5 1t-35.5 1q-12 0 -23 14 q-12 25 -18 51z" />
<glyph unicode="&#xad;" horiz-adv-x="2048" />
<glyph unicode="&#xae;" horiz-adv-x="1247" d="M6 506q-4 51 0 104q0 31 2 60.5t6 60.5q2 33 7.5 64.5t9.5 64.5q25 188 132 318.5t294 167.5q12 4 23.5 6t21.5 2q29 0 56.5 2t55.5 4q129 12 231.5 -41t173.5 -143.5t104.5 -207t21.5 -233.5q-2 -16 -3 -34.5t1 -36.5v-110.5t-8 -111.5q-2 -16 -4.5 -30.5t-12.5 -30.5 q-4 -10 -5 -21.5t-3 -23.5q-4 -37 -18 -74q-4 -4 -5 -8q-10 -43 -33.5 -78t-52.5 -67q-23 -27 -46 -48.5t-52 -42.5q-12 -10 -24.5 -21t-26.5 -22q-16 -12 -32.5 -22t-37.5 -14q-20 -4 -39.5 -9.5t-37.5 -13.5q-27 -12 -60 -8q-14 -2 -27.5 -2t-25.5 8q-2 2 -8 2 q-45 -10 -87 0t-83 21q-25 4 -47.5 10t-44.5 16q-29 14 -60 35q-27 16 -46 36.5t-40 41.5q-8 8 -15 13t-16 11q-29 27 -46 61t-29 68q-6 16 -12.5 31.5t-14.5 30.5q-14 23 -19.5 47t-5.5 51q-2 29 -5 58.5t-7 58.5zM193 469q-4 -47 1 -96t11 -97q0 -6 1 -12t-1 -10 q-8 -16 6 -37q4 -8 4 -14q10 -23 20.5 -44.5t30.5 -37.5q4 -2 5 -4t5 -6q20 -27 54 -43q16 -8 30.5 -14.5t28.5 -16.5q8 -6 16.5 -8t18.5 -6l31 -7q72 -23 137 -22q8 0 15 1t18 3q25 4 48 12t48 13q8 0 14 6q16 8 32.5 18t33.5 21q31 18 57.5 43.5t48.5 54.5q8 12 13 29 l6 20q10 29 18 56.5t8 58.5q2 35 5.5 69.5t3.5 69.5q0 57 3 113.5t3 111.5v71t-6 71t-8.5 69.5t-6.5 69.5q-4 23 -6 45t-10 45q-16 49 -37 90q-14 27 -32.5 47.5t-47.5 30.5q-16 6 -30.5 13t-30.5 16q-39 16 -74 16q-33 0 -63.5 -4t-61.5 0q-12 0 -16 -2 q-127 -8 -188.5 -55.5t-86 -120t-31 -160.5t-22.5 -180q-12 -72 -12 -143.5t-4 -143.5zM361.5 595.5q0.5 25.5 0.5 47.5v81t3 81q2 37 4 75t-2 74q-2 39 30 60q20 14 47 18q63 16 125 25q25 4 49.5 3t49.5 -5q18 -4 36.5 -7.5t36.5 -5.5q29 -4 52.5 -25.5t29.5 -49.5 q14 -57 2 -121q-4 -8 -7 -15.5t-9 -13.5q-16 -23 -36.5 -39t-41.5 -35q-8 -6 -15 -11t-14 -11q-10 -10 -19 -17.5t-21 -11.5q-6 0 -13 -6q-28 -27 -61 -29q-2 -8 6 -16q12 -16 24.5 -33.5t28.5 -32.5q4 0 4 -2t2 -4q18 -29 39 -53t35 -55q4 -6 7 -9t7 -8q16 -16 28.5 -34.5 t27.5 -36.5q4 -4 3 -14.5t-5 -14.5t-15.5 -4t-17.5 4l-37 27q-25 18 -33 37q-10 25 -27.5 44t-33.5 40q-16 18 -30.5 37.5t-31.5 39.5q-10 14 -21 26.5t-24 25.5q-4 6 -10 10q-23 12 -22 -13q2 -20 3 -39.5t1 -39.5q0 -23 -1 -45.5t-3 -44.5q0 -14 -1.5 -27.5t3.5 -26.5 q2 -10 1 -20t-3 -21q-2 -16 -8.5 -22t-22.5 -10l-35 -7q-10 -4 -22.5 2.5t-16.5 16.5q-4 12 -9 22.5t-7 22.5q-4 23 -5 44t-1 44q2 20 3 39.5t-3 40.5q-4 23 -3.5 48.5zM490.5 744.5q-1.5 -17.5 1.5 -33.5q0 -10 12 -11q29 2 53.5 12.5t46.5 24.5q29 18 55.5 42t49.5 48 q18 16 28.5 37t18.5 43q6 18 -2 45q-6 18 -27 25q-16 4 -31.5 6t-31.5 4q-10 0 -20.5 5t-20.5 -3q-6 2 -11.5 4t-11.5 -2q-10 -6 -22.5 -6h-24.5q-14 0 -25.5 -3t-21.5 -7q-20 -6 -14 -25q6 -43 6 -86t-4 -86q-2 -16 -3.5 -33.5z" />
<glyph unicode="&#xaf;" horiz-adv-x="546" d="M-4 1493q-6 14 4 20q10 8 27 13q25 6 48 8t48 4q43 2 87 1t87 -1h166q16 0 24 -2q23 -6 17 -29q-4 -12 -10 -26q-2 -8 -17 -8h-74q-23 -2 -47 -3.5t-47 -5.5q-25 -6 -51 -6l-113 -6q-29 -4 -58.5 0t-57.5 14q-25 6 -33 27z" />
<glyph unicode="&#xb0;" horiz-adv-x="522" d="M-4 1186q-6 59 37 112q16 23 35.5 43.5t48.5 34.5q23 10 46 17.5t48 11.5q23 4 45.5 -1t44.5 -11q72 -18 112 -71.5t36 -111.5v-10q2 -27 -9 -65q-12 -33 -43 -58q-8 -6 -15 -14t-13 -14q-12 -14 -31 -21l-12 -6q-29 -16 -61 -21.5t-62 -9.5q-6 -2 -13.5 0t-13.5 4 q-121 23 -162 119q-14 33 -18 72zM163 1179.5q-3 -22.5 3 -44.5q4 -25 15.5 -35t39.5 -13q25 0 49.5 4.5t46.5 16.5q14 10 24.5 20.5t14.5 26.5t6.5 32t2.5 30q-2 14 -1 24t-6 21q-20 39 -47 59q-6 6 -22 10q-14 4 -27.5 1t-28.5 -5q-2 0 -8 -6q-18 -23 -34.5 -45.5 t-20.5 -50.5q-4 -23 -7 -45.5z" />
<glyph unicode="&#xb1;" horiz-adv-x="804" d="M4 420q-6 14 12 20q20 10 41 11q59 -4 119 4t119 4q14 0 17 3t3 15q0 53 5.5 106.5t5.5 106.5v27.5t-4 27.5q-4 16 10 27q16 10 30 -2q16 -14 25.5 -31.5t18.5 -38.5q10 -29 10 -56.5t2 -55.5q2 -27 0 -52.5t0 -52.5q0 -16 3 -20t19 0q57 10 105 2q27 -4 51.5 -1t50.5 9 q27 6 64 -8q12 -4 18 -14.5t12 -20.5q2 -4 -3 -11t-11 -9q-18 -4 -35.5 -9.5t-34.5 -13.5q-10 -4 -22 -1t-25 -1q-84 -16 -166 -18q-4 0 -6 1t-6 -1q-20 -2 -20 -23v-74q2 -25 -1 -51t-5 -55l-5 -90q0 -18 -2 -27q0 -20 -14 -22q-25 -4 -35 10q-6 10 -9 18t-7 19 q-8 35 -9 70.5t-6 70.5q-4 35 -5 68.5t-3 68.5q0 14 -16 15q-18 0 -37.5 2t-40.5 6q-18 4 -36.5 3t-37.5 -5q-25 -4 -49 -1t-49 7q-31 6 -41 43zM23 -127q-10 23 18 29q47 14 90 16q4 0 9.5 -1t9.5 1q29 0 54 -3t54 -1q39 2 77 1t79 -5q12 -2 24.5 0t24.5 4q23 4 45 3t45 1 h55.5t55.5 4q16 0 32 -10q14 -12 13 -29q-2 -14 -21 -20q-12 -4 -25.5 -6t-27.5 -4q-27 -4 -51.5 -6.5t-51.5 1.5q-10 0 -20 -3t-20 -3q-41 -2 -81 -5t-81 1q-33 2 -65 -2t-64 -4q-29 0 -56.5 -1t-56.5 -3q-6 0 -11 1t-11 1q-20 2 -29.5 14.5t-13.5 28.5z" />
<glyph unicode="&#xb2;" horiz-adv-x="499" d="M10 776q4 31 14.5 59.5t28.5 57.5q35 51 69 101l68 100l32 50t34 48q16 20 30.5 39.5t26.5 40.5q4 8 6.5 15t4.5 13q2 10 -11 11l-20 -4t-21 -7q-14 -6 -25 -13t-28 -9q-8 -2 -18 -12q-16 -20 -39 -29.5t-45 -17.5q-14 -8 -25 2q-18 18 -10 34q6 12 12 24.5t17 23.5 q47 51 108 73q59 20 113 4q43 -12 88 -39q18 -14 20 -28q6 -20 12.5 -40t0.5 -40q-4 -12 -6.5 -25.5t-6.5 -25.5q-10 -25 -26.5 -46.5t-34.5 -43.5q-14 -14 -24.5 -29.5t-22.5 -32.5q-18 -27 -49 -57q-23 -23 -43.5 -47.5t-42.5 -48.5q-14 -14 -25.5 -28.5t-24.5 -29.5 l-6 -6t-2 -10q23 2 42.5 2h41.5h56.5t54.5 -8q16 -4 20 -4q33 -4 39 -29q4 -10 -8 -10q-6 0 -6 -4q4 -12 -3 -12.5t-14 -2.5q-16 -4 -29.5 -3t-29.5 1q-31 4 -62.5 1t-62.5 -5q-25 -4 -48.5 -4t-45.5 -2q-25 0 -37 12q-8 8 -18.5 12.5t-14.5 14.5q-4 8 -4 14z" />
<glyph unicode="&#xb3;" horiz-adv-x="454" d="M2 1204q-4 35 11.5 61.5t39.5 49.5q23 23 53.5 36t67.5 17q10 2 21.5 2h21.5q49 2 92 -27q20 -14 41 -22q20 -10 33 -33q12 -23 13 -47t-3 -49q-2 -10 -4 -21.5t-6 -23.5q-4 -20 -17.5 -34.5t-29.5 -25.5q-10 -4 -14 -8q-12 -10 -12.5 -14t12.5 -14q35 -27 53 -64t4 -84 q-6 -23 -16.5 -43t-20.5 -43q-4 -10 -13.5 -17t-19.5 -16q-61 -49 -137 -49q-8 0 -16 4q-16 4 -31.5 10.5t-32.5 10.5q-18 6 -33 22q-10 10 -17 20.5l-15 22.5q-10 12 -9.5 25.5t5.5 30.5q6 14 22 14q10 2 14 -2t9 -10q4 -6 6 -12.5t6 -14.5q6 -25 25.5 -36t46.5 -15 q41 -6 71 29q4 4 8 16q4 18 6.5 36t2.5 34q0 6 -1 10t1 8q4 33 -19.5 52.5t-46.5 29.5q-6 2 -20 2h-37t-37 2q-23 4 -39 16q-14 12 2 23q20 10 37 10q23 0 43 5t43 9q31 6 52.5 21.5t29.5 44.5q16 51 10 98q-6 51 -59 64q-18 4 -29 0q-10 -4 -18.5 -6t-16.5 -6 q-37 -12 -53 -46q-6 -12 -14.5 -24t-12.5 -29q0 -10 -12 -18q-6 -4 -13 -7t-14 1q-14 6 -14 24z" />
<glyph unicode="&#xb4;" horiz-adv-x="249" d="M-4 1390.5q0 12.5 8 22.5q29 37 53.5 76t53.5 76q10 12 21 20t24 17q6 4 12 3t12 -1q23 4 28 -6.5t-1 -30.5q-6 -27 -25 -47q-20 -23 -38.5 -48.5t-39.5 -50.5q-10 -10 -21 -20t-22 -21q-4 -4 -12 -8t-14 -8q-16 -10 -29 4q-10 10 -10 22.5z" />
<glyph unicode="&#xb5;" horiz-adv-x="839" d="M4 -185q-2 42 2 83q4 33 3 65.5t3 65.5q2 10 0 17t-2 17q4 47 4 95.5t4 95.5q4 27 5.5 53.5t3.5 52.5q2 41 7 83t9 83q6 39 6 80q2 37 1 74t1 74q2 10 3 21t5 22q6 16 27 16q33 4 57 -8q6 -2 12.5 -3t12.5 7q6 10 15.5 10t19.5 -4l37 -18q23 -10 27.5 -28.5t6.5 -39.5 q4 -35 3 -69.5t-7 -69.5q-2 -14 -2 -28.5t4 -31.5q2 -12 0 -24q-6 -31 -4 -53q2 -27 4 -51.5t7 -49.5v-51q-2 -27 2 -52.5t6 -51.5q2 -29 3 -55.5t5 -53.5q4 -29 10 -55.5t17 -55.5q8 -20 34 -26q23 -4 42.5 1t35.5 15q41 25 58 58q12 25 24 49t21 51q4 18 8 37.5t8 40.5 l4 14q14 31 16 63.5t2 65.5q-2 23 1.5 42.5t7.5 39.5q10 37 4 72q-4 25 0 47q4 39 2 75.5t2 75.5q2 25 6 48.5t8 48.5q6 33 39 22q41 -10 59.5 -30.5t14.5 -65.5q0 -16 2 -25q4 -31 1 -61.5t-1 -63.5q2 -31 -1 -61.5t-3 -63.5q2 -31 1 -61.5t-5 -62.5q-2 -20 0 -42t2 -44 q2 -20 2 -40v-38q2 -29 5 -58.5t13 -58.5q8 -31 17.5 -60.5t17.5 -60.5q4 -10 7 -21.5t-5 -21.5q-18 -27 -45 -12q-35 16 -53.5 41.5t-30.5 56.5q-8 20 -14 41t-13 39q-8 2 -12 -6q-10 -20 -21.5 -41t-25.5 -41q-10 -16 -22.5 -29.5t-32.5 -21.5q-12 -4 -23.5 -9.5 t-25.5 -9.5q-63 -16 -113.5 1.5t-91.5 64.5q-4 2 -5 4t-7 2q-2 -10 -4.5 -21.5t-2.5 -21.5q-4 -29 -6 -55.5t0 -53.5q0 -12 -2 -24t-2 -25q-4 -29 2 -55q2 -10 0 -22.5t-2 -24.5q-4 -29 -5 -57.5t-5 -57.5q-4 -25 -6 -49.5t-8 -48.5q-2 -8 -4.5 -16.5t-0.5 -16.5 q4 -23 -5 -42t-19 -40q-10 -25 -33 -26q-10 -2 -27 -11q-31 -16 -59.5 -2.5t-32.5 45.5q-6 47 -7 92.5t7 92.5q2 10 1 20t-1 21q-4 43 -4 87t-2 87q-2 41 -4 83z" />
<glyph unicode="&#xb6;" horiz-adv-x="665" d="M-5 1075.5q5 30.5 15 61.5q16 41 37 77.5t49 69.5q16 23 38 38t40 32l31 22q23 16 46 19.5t48 -0.5l51 -4q33 0 63.5 4t61.5 -6q10 -4 18.5 -4.5t18.5 -2.5q16 -2 34.5 -7t31.5 -15q12 -8 11 -26.5t1 -33.5q6 -74 0 -147q-2 -12 -3 -25.5t-1 -25.5v-86v-31.5t-4 -32.5 q-6 -45 -6.5 -90t-0.5 -92q0 -18 -2 -36.5t-6 -37.5q-6 -43 -4 -78q0 -33 -2 -64.5t-4 -64.5q-4 -27 -7 -51t-1 -51q0 -16 1 -30.5t1 -30.5q0 -53 -2 -104.5t-2 -104.5q0 -23 -2 -45.5t-2 -44.5q-2 -25 -4 -49.5t-7 -49.5q-2 -23 -3 -46t-5 -46q-2 -4 -2 -7t-4 -7 q-8 -16 -18 -6q-6 8 -17 8q-8 0 -10 6q-4 12 -11 23.5t-3 27.5q4 23 2 45t-2 47q0 41 2 85t4 87v80l-4 183q0 53 1 104t5 104q2 10 2 22.5v25.5l4 104q2 18 -2 36.5t-2 37.5q0 35 2 69.5t6 69.5q2 10 1 21.5t-1 23.5v65.5t4 65.5q4 35 0 67.5t-8 67.5q-2 16 -5 19.5t-19 3.5 h-33t-33 4h-8q-16 -2 -20.5 -6t-2.5 -21q4 -39 5 -76.5t-1 -78.5q-2 -25 -3 -49.5t-1 -49.5q-2 -14 -1 -26.5t3 -24.5q4 -23 4 -46t-2 -46q0 -43 -2 -86t-2 -84q-2 -47 -3 -94t-7 -94q-2 -10 0 -20.5t0 -20.5q-4 -55 -4 -110.5t-2 -111.5q-2 -59 -3 -120.5t-1 -120.5l-4 -74 t-6 -74q0 -10 -5 -26q-6 -33 -41 -37q-8 -2 -16 10q-16 18 -22.5 41t-8.5 47q-2 16 -1 34.5t1 37.5q2 66 3 133.5t6 132.5q2 45 2 89t4 87q2 14 1 26.5t-1 24.5q-4 37 3 72t9 70q0 4 1 6t1 6q0 14 -2 17t-16 3q-39 0 -64 27q-2 4 -10 8q-59 33 -94 83t-52 116 q-14 55 -24 119q-6 33 -1 63.5z" />
<glyph unicode="&#xb7;" horiz-adv-x="241" d="M18 535q4 16 7.5 33.5t11.5 33.5q10 23 26.5 34t40.5 7q23 6 39.5 -3t28.5 -24q23 -27 27 -61q2 -16 -4.5 -31.5t-14.5 -29.5q-4 -4 -7 -7.5t-7 -5.5q-29 -16 -66 -20q-27 0 -49 17.5t-31 41.5q-4 10 -2 15z" />
<glyph unicode="&#xb8;" horiz-adv-x="198" d="M2 -416q-4 14 6 33q4 10 19 2q8 -8 14 -22q4 -14 8 -16.5t19 -4.5q20 -2 31.5 7t21.5 26q6 10 11 21.5t1 25.5q-6 27 -31 29q-4 0 -5 1t-5 1q-8 0 -13 -2t-11 -7q-41 -25 -58 21q-10 25 0 49q8 14 13.5 28.5t11.5 28.5l6 11q16 23 31 14q10 -6 17 -15.5t1 -23.5 q-4 -10 -8 -17t-8 -18q-6 -14 -5 -16t15 -4q16 -2 30.5 -8.5t30.5 -14.5q16 -10 24.5 -25.5t14.5 -33.5q8 -27 0 -49.5t-22 -44.5q-23 -37 -66 -37q-29 0 -56.5 13t-37.5 48z" />
<glyph unicode="&#xb9;" horiz-adv-x="403" d="M8 1255q-6 14 6 23q45 39 99 68q10 6 18 11t16 13q23 23 58 12q27 -8 53 -24q37 -25 31 -68l-19 -178q-4 -49 -9 -97t-11 -95q-2 -20 -6 -40l-8 -40q-2 -16 -3.5 -30.5t-5.5 -31.5q0 -6 -1 -13t-13 -7q-4 0 -6 -5t-2 -10q0 -16 -17 -12q-23 0 -30 8q-8 10 -11.5 7 t-7.5 -9q-4 -10 -6 -10q-6 0 -10 8q-10 20 -8 35q2 29 -4 59q-2 14 0 28.5t4 29.5q8 57 13 113.5t9 115.5q4 27 4 52.5t2 52.5l9 73q-16 -8 -27.5 -18t-22.5 -19q-8 -4 -13 -10t-13 -10q-16 -10 -37 -5t-31 23z" />
<glyph unicode="&#xba;" horiz-adv-x="526" d="M-14 1030q-4 29 2 56.5t12 56.5q6 20 10 40.5t15 39.5q23 41 52 75.5t77 51.5q37 14 65 8q8 -2 29 -2q96 -6 141 -84q20 -35 28.5 -75t10.5 -81q2 -18 4 -36.5t2 -30.5q2 -29 -1 -49.5t-7 -41.5q-4 -33 -9 -63.5t-20 -58.5q-16 -33 -36.5 -60.5t-51.5 -48.5 q-31 -16 -65 -18q-41 -4 -80 0q-25 4 -46.5 14t-41.5 27q-29 20 -42.5 46.5t-25.5 55.5q-8 23 -13 45.5t-5 46.5q-2 23 -1 43.5t-3 42.5zM147 1024q0 -33 1.5 -63.5t3.5 -61.5l8 -82q4 -16 17 -23.5t26 -5.5q18 2 29.5 5.5t18.5 7.5t14 11t20 19l16 21q8 8 10 14 q23 49 30 101.5t13 105.5q0 27 -4 52.5t-8 50.5q0 8 -4 24q-4 12 -8 25.5t-13 23.5q-20 25 -50.5 32t-53.5 -24q-16 -23 -28.5 -48t-16.5 -54t-12 -55q-4 -18 -6.5 -38t-2.5 -38z" />
<glyph unicode="&#xbb;" horiz-adv-x="444" d="M23 788q0 6 2 11q2 10 7 13t13 7t16 -8q33 -29 63 -58.5t58 -62.5q10 -10 16.5 -20.5t18.5 -18.5q10 -6 6 -20q-6 -31 -26 -51q-10 -8 -19.5 -15.5t-19.5 -17.5q-10 -12 -21.5 -20.5t-21.5 -18.5q-31 -25 -66 -39q-14 -8 -24 2q-8 8 4 25l6 6l18 20q12 14 23.5 27.5 t25.5 25.5l20.5 20.5l20.5 20.5t0 21q-6 8 -13 14t-13 13q-20 23 -44 42t-36 48l-2 2q-12 9 -12 32zM205 473q0 6 4 14l14 21q16 29 34.5 51.5t41.5 44.5q8 6 12 13.5t8 17.5q4 12 -6 18l-45 35q-16 14 -29.5 28.5t-19.5 35.5l-2 4q-14 10 -10 35q4 14 6 18t16 8q18 6 31 -6 l14 -16q27 -29 50.5 -59.5t52.5 -59.5q4 -4 8 -9t6 -12q10 -29 -10 -51q-6 -6 -12.5 -12t-10.5 -14l-14 -31q-20 -29 -49 -47q-10 -6 -21.5 -12.5t-21.5 -16.5q-6 -6 -14.5 -8t-16.5 -4q-16 0 -16 14z" />
<glyph unicode="&#xbc;" horiz-adv-x="1189" d="M-16 1274q2 16 18 22q14 4 27.5 10.5t27.5 12.5q27 10 49.5 26.5t45.5 32.5q8 6 15 13.5t17 5.5q12 -4 24.5 -7.5t22.5 -13.5q18 -14 25 -41q6 -35 6 -67.5t-2 -67.5q-2 -23 -3 -47.5t-1 -46.5q-2 -53 -4 -103.5t-6 -103.5q-4 -39 -10.5 -77t-12.5 -74l-4 -41 q-4 -51 -53 -48q-12 0 -19 -2q-29 -12 -42 -0.5t-17 35.5q-6 16 -2 43q2 63 12 129q4 23 5 46.5t3 45.5q2 39 4.5 77t6.5 77l18 190q-10 0 -22 -8q-20 -10 -39 -20t-39 -19q-18 -6 -35 0q-6 4 -12 8.5t-4 12.5zM84 -82q0 10 10 31q23 39 40.5 78t37.5 79q27 53 50.5 109.5 t49.5 112.5q23 47 45.5 93t38.5 93l68 168q25 57 51.5 111.5t54.5 109.5q27 53 51.5 107.5t49.5 107.5t51.5 105.5t54.5 105.5q8 18 23 35q18 25 49 8q2 0 3 -1t3 -1q16 0 21.5 -11t9.5 -22q4 -10 0 -19t-10 -20q-8 -8 -13.5 -16t-11.5 -16q-23 -29 -38 -59.5t-28 -65.5 q-4 -12 -10 -23.5t-12 -21.5q-23 -43 -45.5 -85t-38.5 -87l-68 -160q-16 -35 -32.5 -66.5t-32.5 -66.5q-29 -72 -61.5 -140.5t-67.5 -138.5q-12 -27 -22.5 -51.5t-22.5 -48.5q-29 -53 -52.5 -107.5t-56.5 -105.5q-16 -25 -26.5 -51.5t-22.5 -55.5q-8 -16 -21.5 -25 t-25.5 -20q-10 -8 -31 0q-14 2 -12 31zM489 309q-2 4 1.5 8.5t7.5 8.5q23 35 48 66.5t52 62.5q12 14 23.5 27.5t21.5 27.5q39 55 81 106.5t87 100.5l25 26q16 16 34.5 15.5t32.5 -17.5q12 -14 27 -20q18 -8 26 -29q23 -49 15 -96v-23q6 -31 6 -61.5t-4 -60.5l-12 -117 q0 -14 3 -17.5t17 -3.5h29q10 0 21 -1t22 3q10 4 22 -3t17 -17q6 -14 -13 -33q-20 -16 -41 -16q-18 2 -36.5 -1t-36.5 -7q-10 0 -11 -13q-4 -61 -10 -123.5t-4 -126.5q0 -14 -2 -27.5t-2 -27.5q0 -6 -2 -11t-4 -9q-8 -16 -8 -25q-4 -18 -17.5 -27.5t-32.5 -5.5q-10 2 -18 3 t-18 1q-35 0 -39 35q-4 18 -5 35.5t-4 36.5q-2 39 1.5 76t3.5 75q2 29 2 60t4 61q0 10 -3 12.5t-10 4.5q-6 0 -12 1t-10 -1q-23 -8 -46.5 -7t-45.5 -4q-16 -2 -33.5 -2t-34.5 7q-25 -6 -44 6t-40 20q-16 6 -21 19.5t-10 27.5zM590 324q10 -4 17 -4.5t16 -2.5q45 -4 92 0h71 q12 -2 15.5 1.5t3.5 15.5q4 31 6 61.5t4 61.5q4 29 6 59.5t4 58.5q0 8 2 15.5t-6 17.5l-76 -96q-18 -25 -37.5 -48.5t-39.5 -47.5q-18 -23 -40 -44t-38 -48z" />
<glyph unicode="&#xbd;" horiz-adv-x="1189" d="M10 1274q4 16 19 22q14 4 27.5 10.5t29.5 10.5q27 12 49.5 28.5t44.5 32.5l13.5 13.5t17.5 5.5q12 -4 24.5 -7.5t22.5 -13.5q23 -18 25 -43q8 -33 8 -66.5t-4 -68.5q0 -23 -1 -46.5t-3 -47.5q-2 -53 -4.5 -104.5t-6.5 -104.5q-4 -39 -10 -76t-10 -76q-2 -10 -3 -20 t-1 -21q-6 -51 -53 -47q-14 0 -21 -2q-29 -12 -42 -0.5t-17 35.5q-2 10 -2 21.5v21.5q4 33 6 65.5t6 65.5q4 23 5 46.5t3 45.5q2 39 4 77t6 79q4 47 9.5 94t11.5 96q-10 0 -15.5 -3t-9.5 -7q-35 -20 -78 -37q-20 -6 -34 0q-6 4 -11.5 7.5t-5.5 13.5zM137 -63 q10 35 23.5 68.5t29.5 68.5q25 55 49.5 111.5t47.5 115.5q16 41 36.5 80t38.5 80q23 47 47.5 95t43.5 97q10 33 23 65t28 64q4 10 7 23.5t7 25.5q16 45 33.5 88.5t38.5 86.5l55 129q6 14 12.5 28.5t14.5 26.5q16 31 27.5 62.5t29.5 60.5q6 10 14.5 19t24.5 5q8 -2 15.5 -2 t13.5 -8q14 -14 6 -31l-23 -79q-4 -10 -6 -17.5t-6 -15.5q-20 -41 -36.5 -84t-35.5 -84l-67 -158l-11 -24q-10 -39 -25 -74t-32 -70q-10 -16 -16 -34.5t-15 -37.5q-20 -45 -40.5 -89t-40.5 -91q-35 -74 -67 -148.5t-65 -152.5q-20 -51 -44.5 -99t-53.5 -95 q-10 -16 -22.5 -25.5t-28.5 -15.5q-12 -4 -29 8q-6 8 -2 27zM621 -76l4 8q10 37 27.5 69t31.5 65q16 37 36.5 70.5t37.5 68.5q16 37 34.5 73.5t36.5 73.5l7 17q8 35 28 67q23 39 36 81t22 85q2 14 5 27.5t-1 25.5q-4 25 -10.5 29t-26.5 8q-43 2 -80 -18q-41 -27 -66 -64 q-10 -14 -17 -29.5t-15 -31.5q-6 -10 -9 -12q-10 -8 -13 -16.5t-7 -18.5q-10 -23 -33 -17q-8 2 -13 11.5t-1 19.5q8 16 12 33.5t12 34.5q16 37 41 67.5t54 57.5q43 39 110 43q10 0 21.5 2t21.5 4q33 2 62 -10q25 -10 49 -25q16 -10 24.5 -23.5t14.5 -29.5q18 -35 18 -72 t-12 -72q-16 -51 -31.5 -101t-40.5 -97q-29 -53 -50 -109.5t-52 -109.5q-4 -8 -9.5 -16.5t-9.5 -14.5q-23 -29 -37 -59.5t-30 -59.5q0 -4 -1 -7t1 -7q25 0 50.5 -1t49.5 -1q59 4 119 0q33 -4 53 -27q8 -12 -8 -18q-10 -4 -6 -9.5t2 -9.5q-33 -6 -65.5 -6t-65.5 2 q-10 0 -17.5 1t-17.5 1q-29 0 -56.5 2t-56.5 2t-59.5 1t-60.5 -3q-23 -4 -43 17q-10 12 0 28z" />
<glyph unicode="&#xbe;" horiz-adv-x="1294" d="M4 1174q-4 41 12.5 72.5t42.5 58.5q49 55 127 65q10 0 22.5 1t24.5 1q49 2 97 -31q20 -16 35.5 -40.5t25.5 -50t15.5 -47t5.5 -27.5t-5.5 -26t-13.5 -42.5t-20.5 -45t-30.5 -36.5q-14 -10 -13 -17.5t13 -17.5q59 -51 60 -127t-37 -139q-31 -47 -78 -79t-103 -30 q-12 0 -18 2l-66 27q-16 4 -34 27q-10 10 -18.5 23.5t-16.5 25.5q-10 16 -9 33.5t7 33.5q4 18 22 19q14 2 23 -14q8 -14 12 -33q8 -31 28.5 -44.5t49.5 -17.5t49 10.5t35 36.5q10 23 15 46.5t7 46.5v22t-4 21q-6 45 -41 73q-18 14 -43.5 20.5t-60.5 -3.5q-6 -2 -20.5 0 t-26 8t-15.5 14t11 19q4 2 18 3t30.5 1h34t29.5 2q35 4 59.5 31.5t37.5 64.5q8 29 10 59.5t-6.5 57t-25.5 47t-44 29.5q-10 2 -16.5 2t-14.5 -4l-37 -13q-39 -14 -55 -53q-8 -16 -16 -31.5t-13 -33.5q0 -12 -14 -23q-6 -4 -12 -7t-15 1q-12 8 -16 29zM152 -55.5 q4 10.5 10 18.5q2 4 29.5 54.5t61.5 113t63.5 121.5t39.5 82l68 158q14 33 31.5 64.5t31.5 66.5q29 70 62 138t65 136q12 25 22.5 50.5t25.5 47.5q27 53 51 112.5t49 115.5l57 118q14 29 43 21q4 4 13.5 1t17.5 -7q14 -4 12 -33q0 -8 -10 -29q-23 -37 -40 -75.5t-36 -79.5 q-29 -53 -51.5 -108.5t-46.5 -108.5q-23 -47 -45.5 -92.5t-40.5 -92.5q-16 -41 -32.5 -83t-33.5 -83q-25 -55 -51 -109t-55 -108q-25 -53 -50.5 -106t-47.5 -107q-25 -53 -51.5 -104t-55.5 -103q-8 -18 -22 -34q-18 -25 -48 -11q-4 4 -8 5q-16 0 -20 10l-8 20t0 20.5z M604 326q-2 4 1 9t7 9q23 33 48.5 64.5t52.5 62.5q12 14 23.5 27.5t21.5 27.5q39 55 82 106.5t88 102.5l22 25q16 16 35 15t33 -17q12 -14 29 -21q16 -8 24 -28q23 -49 14 -97q0 -14 2 -22q4 -31 4.5 -61.5t-4.5 -61.5q-4 -29 -6 -58.5t-4 -58.5q-2 -14 1 -17t20 -3h26 q10 2 21.5 1t23.5 3q8 4 20.5 -4t16.5 -19q6 -16 -12 -32q-20 -16 -41 -15q-18 0 -36.5 -3t-35.5 -5q-12 -2 -12 -14q-2 -61 -9 -124t-5 -124q0 -14 -2 -28.5t-2 -28.5q0 -6 -2 -11.5t-5 -9.5q-4 -6 -6 -11t-2 -14q-2 -18 -16 -27t-33 -5q-10 2 -18 3t-19 1q-33 4 -39 35 q-6 37 -6 71q-4 39 -1 77t5 75v60.5t4 60.5q2 10 -2 12t-10 4q-12 4 -22 0q-23 -8 -45.5 -7t-45.5 -3q-18 -2 -35.5 -2t-33.5 6q-25 -6 -43.5 6t-40.5 21q-16 6 -21.5 19t-9.5 28zM705 342l32 -8q23 -2 46.5 -1t45.5 1h72q14 -2 16.5 1t4.5 15l8 123q4 29 6 59.5t4 61.5 q0 6 2 14t-4 17q-20 -25 -39.5 -48.5t-38.5 -48.5q-16 -25 -36.5 -48t-41.5 -46q-18 -25 -39.5 -46t-37.5 -46z" />
<glyph unicode="&#xbf;" horiz-adv-x="520" d="M-161 -343q1 34 5 69q2 35 15.5 62.5t31.5 55.5q23 31 50.5 56.5t56.5 48.5q23 16 40 35.5t36 40.5q16 20 33.5 39.5t37.5 37.5q25 25 35 68q6 35 14.5 70.5t14.5 70.5q6 37 17.5 73t17.5 71q4 16 19.5 27.5t31.5 9.5q8 0 20 -13q10 -10 18.5 -19t20.5 -14q16 -10 17 -28 q0 -39 5 -79t5 -81q2 -29 -4 -58.5t-15 -60.5q-12 -45 -25 -89t-36 -85l-16 -26q-59 -90 -135 -181q-14 -18 -32 -32.5t-36 -30.5q-31 -27 -48.5 -59.5t-27.5 -69.5q-4 -20 2 -39t12 -37q4 -12 30 -23.5t40 -7.5q31 10 61.5 15.5t59.5 21.5q6 4 13 7t12 8q29 25 59.5 44 t60.5 39q14 10 23.5 21.5t19.5 26.5q10 16 28.5 22t37.5 -2q16 -6 28.5 -24.5t10.5 -34.5q0 -8 -8 -21q-76 -115 -203 -184q-23 -14 -47.5 -20.5t-50.5 -10.5q-20 0 -41 -6q-43 -14 -85 -11t-83 19q-29 10 -50.5 27.5t-41.5 40.5q-8 10 -16.5 20.5t-16.5 22.5q-18 35 -17 74 q0 8 -2 16t-2 18q-2 35 -1 69zM272 719v16h2v13q-4 29 7.5 53t29.5 47q23 25 60 18q37 -10 57.5 -45t9.5 -71q-12 -43 -45 -84q-25 -31 -69 -17q-51 16 -52 70z" />
<glyph unicode="&#xc0;" d="M-63 -147q10 39 14 76.5t14 74.5q6 27 12.5 53.5t10.5 53.5l30 145q4 20 9.5 38.5t9.5 39.5q4 43 16.5 83t22.5 81q10 43 20 85t17 87q4 25 10 50t14 48q12 41 23.5 82t21.5 82l31 98q10 37 19.5 76t19.5 78q4 16 9 31.5t13 31.5q8 14 13.5 29.5t7.5 32.5q2 23 10 41 t14 41q2 6 6.5 8t8.5 6q12 4 23.5 6t21.5 10q4 4 14 0q2 0 15.5 -5t29.5 -11l2 8l11 -4q12 -6 26.5 -9t28.5 -7q49 -16 67 -66q8 -23 12.5 -45t8.5 -45l22 -131q8 -53 15.5 -103.5t13.5 -103.5q4 -35 12.5 -68.5t14.5 -68.5t12 -71t14 -70q10 -43 18.5 -86t18.5 -89l6 -38 q0 -18 6.5 -36t4.5 -34q0 -39 6 -75t10 -70q6 -33 10 -65t8 -65l15 -96q2 -16 4 -32.5t2 -32.5l6 -39q2 -8 0 -21q-4 -12 -8 -13t-14 9t-19 8q-16 -10 -24.5 2.5t-20.5 16.5q-8 4 -11 11t-5 18q-2 27 -9.5 51t-11.5 49q-10 47 -19 91t-18 89q-10 68 -22.5 134.5t-24.5 131.5 q-4 29 -10 32t-31 -3q-29 -6 -55.5 -11t-52.5 -7q-29 0 -53.5 -5.5t-51.5 -9.5q-10 -4 -19 -3t-20 3q-16 4 -22 -1t-10 -27q-4 -20 -9.5 -40t-11.5 -40q-6 -23 -9 -42.5t-7 -41.5q-4 -23 -10.5 -44.5t-12.5 -43.5q-10 -35 -17 -69t-18 -69q-4 -16 -8 -30.5t-10 -28.5 q-4 -10 -6 -18.5t-6 -18.5q0 -4 -8.5 -16t-17.5 -25.5t-18.5 -26t-11.5 -14.5l-24 -18q-12 -8 -19 -6q-6 4 -11 2t-11 -4t-17 -2l2 4q-20 0 -38.5 -1t-22.5 -1q-29 4 -22 39zM283.5 1716q4.5 10 27.5 6q6 0 12.5 1t12.5 -3q12 -8 23.5 -16t21.5 -21q29 -37 54.5 -75.5 t53.5 -75.5q18 -23 -4 -45q-12 -16 -26 -4q-8 4 -16.5 8t-12.5 8q-10 10 -21.5 20.5t-21.5 20.5q-20 25 -38.5 50.5t-39.5 47.5q-10 10 -15 22.5t-9 25.5q-6 20 -1.5 30zM322 569q0 -14 12 -14q14 2 27.5 2h27.5q45 4 89 8t89 -2q16 -2 15 19l-15 90q-10 47 -17 95t-15 95 q-4 33 -8.5 63.5t-14.5 61.5q-6 16 -11 35.5t-9 38.5q-6 23 -11.5 44t-9.5 44q0 10 -6 10q-6 2 -10 -10l-11 -39q-8 -29 -15 -58.5t-13 -60.5l-17 -84q-35 -133 -61 -264q-4 -18 -8 -36.5t-8 -37.5zM791 -137q0 -4 4 -8q4 0 4 4q0 6 -4 8q-4 0 -4 -4z" />
<glyph unicode="&#xc1;" d="M-63 -147q10 39 14 76.5t14 74.5q6 27 12.5 53.5t10.5 53.5l30 145q4 20 9.5 38.5t9.5 39.5q4 43 16.5 83t22.5 81q10 43 20 85t17 87q4 25 10 50t14 48q12 41 23.5 82t21.5 82l31 98q10 37 19.5 76t19.5 78q4 16 9 31.5t13 31.5q8 14 13.5 29.5t7.5 32.5q2 23 10 41 t14 41q2 6 6.5 8t8.5 6q12 4 23.5 6t21.5 10q4 4 14 0q2 0 15.5 -5t29.5 -11l2 8l11 -4q12 -6 26.5 -9t28.5 -7q49 -16 67 -66q8 -23 12.5 -45t8.5 -45l22 -131q8 -53 15.5 -103.5t13.5 -103.5q4 -35 12.5 -68.5t14.5 -68.5t12 -71t14 -70q10 -43 18.5 -86t18.5 -89l6 -38 q0 -18 6.5 -36t4.5 -34q0 -39 6 -75t10 -70q6 -33 10 -65t8 -65l15 -96q2 -16 4 -32.5t2 -32.5l6 -39q2 -8 0 -21q-4 -12 -8 -13t-14 9t-19 8q-16 -10 -24.5 2.5t-20.5 16.5q-8 4 -11 11t-5 18q-2 27 -9.5 51t-11.5 49q-10 47 -19 91t-18 89q-10 68 -22.5 134.5t-24.5 131.5 q-4 29 -10 32t-31 -3q-29 -6 -55.5 -11t-52.5 -7q-29 0 -53.5 -5.5t-51.5 -9.5q-10 -4 -19 -3t-20 3q-16 4 -22 -1t-10 -27q-4 -20 -9.5 -40t-11.5 -40q-6 -23 -9 -42.5t-7 -41.5q-4 -23 -10.5 -44.5t-12.5 -43.5q-10 -35 -17 -69t-18 -69q-4 -16 -8 -30.5t-10 -28.5 q-4 -10 -6 -18.5t-6 -18.5q0 -4 -8.5 -16t-17.5 -25.5t-18.5 -26t-11.5 -14.5l-24 -18q-12 -8 -19 -6q-6 4 -11 2t-11 -4t-17 -2l2 4q-20 0 -38.5 -1t-22.5 -1q-29 4 -22 39zM322 569q0 -14 12 -14q14 2 27.5 2h27.5q45 4 89 8t89 -2q16 -2 15 19l-15 90q-10 47 -17 95 t-15 95q-4 33 -8.5 63.5t-14.5 61.5q-6 16 -11 35.5t-9 38.5q-6 23 -11.5 44t-9.5 44q0 10 -6 10q-6 2 -10 -10l-11 -39q-8 -29 -15 -58.5t-13 -60.5l-17 -84q-35 -133 -61 -264q-4 -18 -8 -36.5t-8 -37.5zM401.5 1527.5q-0.5 12.5 8.5 22.5q29 37 53 76t53 76 q10 12 21.5 20.5t23.5 16.5q6 4 12.5 3t12.5 -1q23 4 27.5 -6.5t-1.5 -30.5q-6 -27 -24 -47q-20 -23 -39 -48.5t-39 -49.5q-10 -10 -21.5 -20.5t-21.5 -20.5q-4 -4 -12.5 -8.5t-14.5 -8.5q-16 -10 -28 4q-10 10 -10.5 22.5zM791 -137q0 -4 4 -8q4 0 4 4q0 6 -4 8q-4 0 -4 -4 z" />
<glyph unicode="&#xc2;" d="M-63 -147q10 39 14 76.5t14 74.5q6 27 12.5 53.5t10.5 53.5l30 145q4 20 9.5 38.5t9.5 39.5q4 43 16.5 83t22.5 81q10 43 20 85t17 87q4 25 10 50t14 48q12 41 23.5 82t21.5 82l31 98q10 37 19.5 76t19.5 78q4 16 9 31.5t13 31.5q8 14 13.5 29.5t7.5 32.5q2 23 10 41 t14 41q2 6 6.5 8t8.5 6q12 4 23.5 6t21.5 10q4 4 14 0q2 0 15.5 -5t29.5 -11l2 8l11 -4q12 -6 26.5 -9t28.5 -7q49 -16 67 -66q8 -23 12.5 -45t8.5 -45l22 -131q8 -53 15.5 -103.5t13.5 -103.5q4 -35 12.5 -68.5t14.5 -68.5t12 -71t14 -70q10 -43 18.5 -86t18.5 -89l6 -38 q0 -18 6.5 -36t4.5 -34q0 -39 6 -75t10 -70q6 -33 10 -65t8 -65l15 -96q2 -16 4 -32.5t2 -32.5l6 -39q2 -8 0 -21q-4 -12 -8 -13t-14 9t-19 8q-16 -10 -24.5 2.5t-20.5 16.5q-8 4 -11 11t-5 18q-2 27 -9.5 51t-11.5 49q-10 47 -19 91t-18 89q-10 68 -22.5 134.5t-24.5 131.5 q-4 29 -10 32t-31 -3q-29 -6 -55.5 -11t-52.5 -7q-29 0 -53.5 -5.5t-51.5 -9.5q-10 -4 -19 -3t-20 3q-16 4 -22 -1t-10 -27q-4 -20 -9.5 -40t-11.5 -40q-6 -23 -9 -42.5t-7 -41.5q-4 -23 -10.5 -44.5t-12.5 -43.5q-10 -35 -17 -69t-18 -69q-4 -16 -8 -30.5t-10 -28.5 q-4 -10 -6 -18.5t-6 -18.5q0 -4 -8.5 -16t-17.5 -25.5t-18.5 -26t-11.5 -14.5l-24 -18q-12 -8 -19 -6q-6 4 -11 2t-11 -4t-17 -2l2 4q-20 0 -38.5 -1t-22.5 -1q-29 4 -22 39zM295 1497q-8 10 4 27q14 23 28.5 43t30.5 43q10 14 19.5 27.5t19.5 27.5l11 14q31 31 63 9 q10 -6 17.5 -19.5t13.5 -28.5l22 -55l29 -61q8 -18 4 -24.5t-27 -8.5q-33 0 -45 31l-20 59l-12 29q-8 16 -21 2l-74 -99q-6 -10 -13 -17t-17 -11q-20 -4 -33 12zM322 569q0 -14 12 -14q14 2 27.5 2h27.5q45 4 89 8t89 -2q16 -2 15 19l-15 90q-10 47 -17 95t-15 95 q-4 33 -8.5 63.5t-14.5 61.5q-6 16 -11 35.5t-9 38.5q-6 23 -11.5 44t-9.5 44q0 10 -6 10q-6 2 -10 -10l-11 -39q-8 -29 -15 -58.5t-13 -60.5l-17 -84q-35 -133 -61 -264q-4 -18 -8 -36.5t-8 -37.5zM791 -137q0 -4 4 -8q4 0 4 4q0 6 -4 8q-4 0 -4 -4z" />
<glyph unicode="&#xc3;" d="M-63 -147q10 39 14 76.5t14 74.5q6 27 12.5 53.5t10.5 53.5l30 145q4 20 9.5 38.5t9.5 39.5q4 43 16.5 83t22.5 81q10 43 20 85t17 87q4 25 10 50t14 48q12 41 23.5 82t21.5 82l31 98q10 37 19.5 76t19.5 78q4 16 9 31.5t13 31.5q8 14 13.5 29.5t7.5 32.5q2 23 10 41 t14 41q2 6 6.5 8t8.5 6q12 4 23.5 6t21.5 10q4 4 14 0q2 0 15.5 -5t29.5 -11l2 8l11 -4q12 -6 26.5 -9t28.5 -7q49 -16 67 -66q8 -23 12.5 -45t8.5 -45l22 -131q8 -53 15.5 -103.5t13.5 -103.5q4 -35 12.5 -68.5t14.5 -68.5t12 -71t14 -70q10 -43 18.5 -86t18.5 -89l6 -38 q0 -18 6.5 -36t4.5 -34q0 -39 6 -75t10 -70q6 -33 10 -65t8 -65l15 -96q2 -16 4 -32.5t2 -32.5l6 -39q2 -8 0 -21q-4 -12 -8 -13t-14 9t-19 8q-16 -10 -24.5 2.5t-20.5 16.5q-8 4 -11 11t-5 18q-2 27 -9.5 51t-11.5 49q-10 47 -19 91t-18 89q-10 68 -22.5 134.5t-24.5 131.5 q-4 29 -10 32t-31 -3q-29 -6 -55.5 -11t-52.5 -7q-29 0 -53.5 -5.5t-51.5 -9.5q-10 -4 -19 -3t-20 3q-16 4 -22 -1t-10 -27q-4 -20 -9.5 -40t-11.5 -40q-6 -23 -9 -42.5t-7 -41.5q-4 -23 -10.5 -44.5t-12.5 -43.5q-10 -35 -17 -69t-18 -69q-4 -16 -8 -30.5t-10 -28.5 q-4 -10 -6 -18.5t-6 -18.5q0 -4 -8.5 -16t-17.5 -25.5t-18.5 -26t-11.5 -14.5l-24 -18q-12 -8 -19 -6q-6 4 -11 2t-11 -4t-17 -2l2 4q-20 0 -38.5 -1t-22.5 -1q-29 4 -22 39zM203 1565q10 23 26.5 38t42.5 21q7 2 23 2q25 0 48.5 -10t41.5 -23q18 -14 39.5 -27.5t44.5 -21.5 t45.5 -5t44.5 24q10 8 18.5 16t12.5 20q4 8 8 13q25 20 39 -10q6 -16 -2 -35q-29 -55 -84 -78t-115 6q-27 12 -50.5 28.5t-49.5 30.5q-49 27 -78 -16l-8 -12t-8 -10q-10 -10 -25 -5q-31 20 -14 54zM322 569q0 -14 12 -14q14 2 27.5 2h27.5q45 4 89 8t89 -2q16 -2 15 19 l-15 90q-10 47 -17 95t-15 95q-4 33 -8.5 63.5t-14.5 61.5q-6 16 -11 35.5t-9 38.5q-6 23 -11.5 44t-9.5 44q0 10 -6 10q-6 2 -10 -10l-11 -39q-8 -29 -15 -58.5t-13 -60.5l-17 -84q-35 -133 -61 -264q-4 -18 -8 -36.5t-8 -37.5zM791 -137q0 -4 4 -8q4 0 4 4q0 6 -4 8 q-4 0 -4 -4z" />
<glyph unicode="&#xc4;" d="M-63 -147q10 39 14 76.5t14 74.5q6 27 12.5 53.5t10.5 53.5l30 145q4 20 9.5 38.5t9.5 39.5q4 43 16.5 83t22.5 81q10 43 20 85t17 87q4 25 10 50t14 48q12 41 23.5 82t21.5 82l31 98q10 37 19.5 76t19.5 78q4 16 9 31.5t13 31.5q8 14 13.5 29.5t7.5 32.5q2 23 10 41 t14 41q2 6 6.5 8t8.5 6q12 4 23.5 6t21.5 10q4 4 14 0q2 0 15.5 -5t29.5 -11l2 8l11 -4q12 -6 26.5 -9t28.5 -7q49 -16 67 -66q8 -23 12.5 -45t8.5 -45l22 -131q8 -53 15.5 -103.5t13.5 -103.5q4 -35 12.5 -68.5t14.5 -68.5t12 -71t14 -70q10 -43 18.5 -86t18.5 -89l6 -38 q0 -18 6.5 -36t4.5 -34q0 -39 6 -75t10 -70q6 -33 10 -65t8 -65l15 -96q2 -16 4 -32.5t2 -32.5l6 -39q2 -8 0 -21q-4 -12 -8 -13t-14 9t-19 8q-16 -10 -24.5 2.5t-20.5 16.5q-8 4 -11 11t-5 18q-2 27 -9.5 51t-11.5 49q-10 47 -19 91t-18 89q-10 68 -22.5 134.5t-24.5 131.5 q-4 29 -10 32t-31 -3q-29 -6 -55.5 -11t-52.5 -7q-29 0 -53.5 -5.5t-51.5 -9.5q-10 -4 -19 -3t-20 3q-16 4 -22 -1t-10 -27q-4 -20 -9.5 -40t-11.5 -40q-6 -23 -9 -42.5t-7 -41.5q-4 -23 -10.5 -44.5t-12.5 -43.5q-10 -35 -17 -69t-18 -69q-4 -16 -8 -30.5t-10 -28.5 q-4 -10 -6 -18.5t-6 -18.5q0 -4 -8.5 -16t-17.5 -25.5t-18.5 -26t-11.5 -14.5l-24 -18q-12 -8 -19 -6q-6 4 -11 2t-11 -4t-17 -2l2 4q-20 0 -38.5 -1t-22.5 -1q-29 4 -22 39zM274 1556q0 23 18.5 44.5t41.5 21.5q18 0 35.5 -19t19.5 -42t-14.5 -43.5t-38.5 -18.5 q-23 2 -42.5 18.5t-19.5 38.5zM322 569q0 -14 12 -14q14 2 27.5 2h27.5q45 4 89 8t89 -2q16 -2 15 19l-15 90q-10 47 -17 95t-15 95q-4 33 -8.5 63.5t-14.5 61.5q-6 16 -11 35.5t-9 38.5q-6 23 -11.5 44t-9.5 44q0 10 -6 10q-6 2 -10 -10l-11 -39q-8 -29 -15 -58.5 t-13 -60.5l-17 -84q-35 -133 -61 -264q-4 -18 -8 -36.5t-8 -37.5zM436 1556q0 23 18.5 44.5t41.5 21.5q18 0 35.5 -19t19.5 -42t-14.5 -43.5t-38.5 -18.5q-23 2 -42.5 18.5t-19.5 38.5zM791 -137q0 -4 4 -8q4 0 4 4q0 6 -4 8q-4 0 -4 -4z" />
<glyph unicode="&#xc5;" d="M-63 -147q10 39 14 76.5t14 74.5q6 27 12.5 53.5t10.5 53.5l30 145q4 20 9.5 38.5t9.5 39.5q4 43 16.5 83t22.5 81q10 43 20 85t17 87q4 25 10 50t14 48q12 41 23.5 82t21.5 82l31 98q10 37 19.5 76t19.5 78q4 16 9 31.5t13 31.5q8 14 13.5 29.5t7.5 32.5q2 23 10 41 t14 41q2 6 6.5 8t8.5 6q12 4 23.5 6t21.5 10q4 4 14 0q2 0 15.5 -5t29.5 -11l2 8l11 -4q12 -6 26.5 -9t28.5 -7q49 -16 67 -66q8 -23 12.5 -45t8.5 -45l22 -131q8 -53 15.5 -103.5t13.5 -103.5q4 -35 12.5 -68.5t14.5 -68.5t12 -71t14 -70q10 -43 18.5 -86t18.5 -89l6 -38 q0 -18 6.5 -36t4.5 -34q0 -39 6 -75t10 -70q6 -33 10 -65t8 -65l15 -96q2 -16 4 -32.5t2 -32.5l6 -39q2 -8 0 -21q-4 -12 -8 -13t-14 9t-19 8q-16 -10 -24.5 2.5t-20.5 16.5q-8 4 -11 11t-5 18q-2 27 -9.5 51t-11.5 49q-10 47 -19 91t-18 89q-10 68 -22.5 134.5t-24.5 131.5 q-4 29 -10 32t-31 -3q-29 -6 -55.5 -11t-52.5 -7q-29 0 -53.5 -5.5t-51.5 -9.5q-10 -4 -19 -3t-20 3q-16 4 -22 -1t-10 -27q-4 -20 -9.5 -40t-11.5 -40q-6 -23 -9 -42.5t-7 -41.5q-4 -23 -10.5 -44.5t-12.5 -43.5q-10 -35 -17 -69t-18 -69q-4 -16 -8 -30.5t-10 -28.5 q-4 -10 -6 -18.5t-6 -18.5q0 -4 -8.5 -16t-17.5 -25.5t-18.5 -26t-11.5 -14.5l-24 -18q-12 -8 -19 -6q-6 4 -11 2t-11 -4t-17 -2l2 4q-20 0 -38.5 -1t-22.5 -1q-29 4 -22 39zM322 569q0 -14 12 -14q14 2 27.5 2h27.5q45 4 89 8t89 -2q16 -2 15 19l-15 90q-10 47 -17 95 t-15 95q-4 33 -8.5 63.5t-14.5 61.5q-6 16 -11 35.5t-9 38.5q-6 23 -11.5 44t-9.5 44q0 10 -6 10q-6 2 -10 -10l-11 -39q-8 -29 -15 -58.5t-13 -60.5l-17 -84q-35 -133 -61 -264q-4 -18 -8 -36.5t-8 -37.5zM326 1580.5q0 27.5 11 51t31.5 40t49.5 16.5q39 2 67 -17 q29 -18 38 -49t1 -59q-8 -35 -33.5 -59.5t-62.5 -24.5q-29 0 -52.5 13t-37.5 38q-12 23 -12 50.5zM377 1561q6 -29 35 -37t49 16q18 18 14 49q0 16 -8 31q-8 16 -29.5 20.5t-36.5 -10.5q-29 -25 -24 -69zM791 -137q0 -4 4 -8q4 0 4 4q0 6 -4 8q-4 0 -4 -4z" />
<glyph unicode="&#xc6;" horiz-adv-x="1325" d="M-84 49q4 20 13.5 30.5t31.5 18.5q18 6 31.5 -1t13.5 -23q2 -23 17.5 -28t29.5 -13q2 -4 7.5 -2t9.5 4q20 10 41 31q29 37 55.5 75.5t48.5 79.5q25 51 48.5 101.5t39.5 103.5q6 16 -6 16q-16 2 -30.5 4.5t-30.5 -2.5q-4 -2 -8.5 -1t-8.5 1q-16 -2 -32.5 -1t-32.5 -3 q-20 -6 -36 0t-30 17q-16 16 -11 34.5t29 28.5q25 10 47.5 9t45.5 -5q8 0 16 -1t18 3q23 6 50 0q10 -4 22 -4h27q16 0 22 15q10 18 15.5 35.5t13.5 35.5q12 31 24.5 61.5t28.5 59.5q14 27 23.5 53.5t23.5 53.5q14 31 26.5 62.5t25.5 64.5q23 53 43 104t43 104q16 35 34.5 70 t36.5 70q8 14 19.5 22t21.5 19q6 4 8 2q12 -4 28.5 -2t27.5 -9q10 -10 25.5 -16t27.5 -16q10 2 27 -4q12 -4 25 -7.5t26 -7.5l-2 -2q8 -4 18 0q31 4 62.5 -1t62.5 -3q31 4 59.5 3t57.5 1q20 2 38.5 7.5t39.5 9.5q18 4 37.5 5t39.5 5q12 2 23.5 -1t21.5 -7q14 -4 19 -25 q2 -14 -10 -18q-10 -4 -19.5 -5t-19.5 -4q-47 -6 -94 -24q-29 -10 -57.5 -16.5t-63.5 -2.5q-25 4 -48 0l-46 -8q-27 -2 -21 -22q12 -31 7 -59.5t-5 -57.5q2 -49 -3 -97t-1 -98q2 -20 -1 -39.5t-7 -37.5q0 -4 -1 -5.5t-1 -5.5q-4 -16 0 -20t20 0q49 6 97.5 10t97.5 4 q20 0 28 -4q12 -2 17 -16q0 -12 -10 -17q-25 -6 -46.5 -16t-46.5 -14q-29 -4 -55 -10.5t-51 -10.5l-45 -6q-14 -4 -12 -16q2 -10 0 -19.5t-2 -19.5q-10 -57 2 -113q2 -10 0 -21.5t-4 -21.5q0 -10 -1.5 -17t-1.5 -18q-4 -10 0 -12q10 -6 10.5 -13t-3.5 -14q-8 -18 -4 -47 q4 -16 2 -30.5t-2 -28.5q0 -29 3 -55.5t1 -53.5q0 -23 2 -43t6 -41q4 -14 1 -25.5t-3 -23.5q2 -10 4 -12t12 -2q23 4 44.5 6t43.5 6q45 10 90 12t92 -2q18 -2 37 -3t37 -7q18 -4 23 -20q4 -8 -2 -11.5t-11 -7.5q-6 -4 -22 -8t-31.5 -9t-32.5 -11q-41 -14 -94 -21 q-23 -2 -45 -4t-43 -12q-8 -4 -17 -5t-18 -3q-49 -6 -82 -21q-18 -6 -37.5 -7t-39.5 -1q-12 2 -24.5 7t-25.5 9q-8 2 -12 6t-8 9q-23 29 -39 56.5t-22 61.5q-4 33 -5.5 65t-1.5 62q0 23 -1 45.5t-1 44.5q-6 27 -2 64v19.5t-2 19.5q-4 16 -4 34.5t-2 34.5q-29 2 -59.5 1 t-59.5 4q-23 4 -39 -2q-10 -4 -19 -4.5t-20 -0.5q-4 0 -10 -1t-10 -1q-25 -4 -33 -24q-14 -33 -29.5 -66t-31.5 -65q-16 -31 -33.5 -61.5t-36.5 -59.5q-4 -6 -7 -12.5t-5 -12.5q-8 -29 -23.5 -54.5t-38.5 -47.5q-20 -16 -30 -35q-6 -12 -16.5 -20.5t-20.5 -18.5 q-76 -63 -168 -76q-12 0 -24.5 2.5t-26.5 2.5q-16 0 -28.5 4t-25.5 10q-80 41 -61 141zM569 522.5q4 -4.5 21 -4.5h46t46 -2q41 -6 90 -2q2 20 2 39.5v42.5q2 47 5 91t-1 91q-2 37 4 72t4 70q-2 29 -1 59.5t1 60.5v21q-8 -16 -10 -25q-6 -16 -10 -31.5t-12 -31.5 q-6 -12 -9.5 -24.5t-11.5 -26.5q-20 -33 -33.5 -67t-27.5 -69l-43 -108q-16 -35 -28.5 -67.5t-27.5 -67.5q-8 -16 -4 -20.5z" />
<glyph unicode="&#xc7;" horiz-adv-x="686" d="M-23 438q0 92 7 185l8 110t12 109q18 133 66 270q14 41 31.5 84t43.5 80q29 41 67 70.5t85 44.5q74 23 141 -5q23 -10 41.5 -26.5t34.5 -36.5q8 -10 10 -26.5t4 -30.5q4 -29 3 -55.5t-1 -55.5q0 -18 -18 -25q-31 -10 -52.5 5.5t-25.5 44.5q-2 10 -3 21t3 22q4 18 -2 31.5 t-14 27.5v2q-16 25 -24.5 27t-35.5 -8q-10 -4 -21 -7.5t-22 -9.5q-35 -14 -45 -57q-16 -53 -22 -109.5t-10 -113.5q-4 -53 -7.5 -104.5t-7.5 -104.5q-4 -27 -4 -53.5t-4 -55.5q-4 -14 -1 -27.5t3 -27.5q0 -47 -1 -95.5t3 -95.5q2 -25 2 -50t8 -48q12 -53 17.5 -106.5 t5.5 -106.5q0 -10 1 -18.5t5 -16.5q10 -31 14 -69q4 -18 10.5 -31.5t14.5 -30.5q4 -4 6 -4q23 -12 47.5 -22.5t52.5 -1.5q10 4 29 4q20 -4 32.5 6t22.5 24q8 10 14.5 22.5t12.5 24.5q4 10 7 21.5t7 21.5q4 27 28 43.5t44 12.5q17 -1 23 -17q10 -45 -7 -77q-4 -4 -5 -12.5 t-5 -14.5q-18 -74 -76 -115l-41 -31q-16 -10 -33.5 -17t-33.5 -11q2 -4 -2 -19l-17 -39q-10 -16 -8 -19t19 -5q18 -2 34.5 -8t32.5 -17q23 -10 31 -28.5t14 -36.5q10 -31 1 -57.5t-25 -51.5q-27 -43 -74 -43q-33 0 -65.5 15.5t-43.5 56.5q-4 10 -0.5 18.5t7.5 18.5q6 8 20 2 q12 -8 16 -25q6 -16 11.5 -19t21.5 -5q23 -2 36 9t24 28q8 12 13 24t1 29q-6 31 -35 33q-4 2 -12 2q-14 0 -29 -9q-43 -27 -63 25q-12 27 0 55q8 14 13 28.5t13 29.5q-14 2 -27.5 2t-29.5 4q-43 10 -79 32.5t-70 51.5q-98 80 -132 200q-27 94 -34 179q-4 41 -4 78.5t-3 76.5 z" />
<glyph unicode="&#xc8;" horiz-adv-x="630" d="M11 745.5q1 53.5 1 106.5q0 27 1 51.5t3 50.5q4 47 2 91.5t-2 91.5v40.5t2 41.5q2 10 3.5 19t5.5 17q4 6 5 11.5t-3 13.5q-8 10 6 18q20 12 47 17q8 2 14 3t15 1q29 0 54 4t54 6q45 2 88 6t88 2q29 -2 57.5 0t57.5 13q23 6 42 -0.5t40 -10.5l6 -6q4 -4 4 -6q-4 -6 -6 -6 t-3 1t-3 1t-6 -4q4 -8 10 -8t8 -4q2 -2 2 -4q-4 -10 -16.5 -19.5t-20.5 -13.5t-15 -7t-15 -8q-23 -12 -47.5 -15t-51.5 1q-10 0 -18 1t-19 3q-20 6 -38.5 3t-38.5 -5q-12 0 -22.5 1t-22.5 3q-4 0 -6.5 1t-6.5 1q-23 0 -26.5 -6t0.5 -29t5 -46t1 -48q0 -18 -2 -37.5t2 -38.5 q2 -6 0 -12q-4 -10 -4 -22.5v-22.5q0 -16 1 -32.5t-3 -32.5q-2 -10 -1 -19.5t-1 -19.5q0 -16 12 -15h31q29 2 56.5 1t55.5 -5q8 -4 16.5 -1t16.5 7q14 2 25 -8q6 -8 12 -14t8 -21q2 -16 -6 -30.5t-21 -16.5q-29 -4 -56.5 -10t-55.5 -10q-16 -2 -37 4q-20 6 -45 2 q-14 0 -14 -16q0 -10 1 -21.5t3 -21.5q4 -45 4 -89.5t-4 -91.5q-6 -66 -7.5 -132t-5.5 -132l-12 -246q0 -14 -2 -26.5t-2 -24.5q0 -14 12 -14q33 2 66 1t67 3l140 18q31 4 61.5 1t60.5 -13q8 -2 14.5 -8t16.5 -12q-14 -10 -14 -14.5t12 -14.5q-10 -4 -18 -8t-19 -8 q-31 -8 -60.5 -7.5t-57.5 -9.5q-33 4 -65 -4t-65 -12q-20 -2 -39.5 -1t-39.5 -1q-4 -2 -10.5 -1t-12.5 -1q-29 -12 -58.5 -13.5t-58.5 -5.5q-61 -6 -102 35q-4 4 -7 10t-3 15l-11 178v35q2 27 1 51t-3 49v58.5t-2 58.5q-2 35 1 67.5t1 65.5q-4 43 -3 87t-1 89 q-4 53 -3 106.5zM103 1646.5q5 10.5 28 6.5q6 0 12.5 1t12.5 -3q12 -8 23 -16.5t22 -20.5q29 -37 54.5 -76t53.5 -76q18 -23 -4 -45q-12 -16 -26 -4q-8 4 -16.5 8t-12.5 9q-10 10 -21.5 20t-21.5 20q-20 25 -38.5 50.5t-39.5 48.5q-10 10 -15 22.5t-10 24.5q-6 20 -1 30.5z " />
<glyph unicode="&#xc9;" horiz-adv-x="630" d="M11 745.5q1 53.5 1 106.5q0 27 1 51.5t3 50.5q4 47 2 91.5t-2 91.5v40.5t2 41.5q2 10 3.5 19t5.5 17q4 6 5 11.5t-3 13.5q-8 10 6 18q20 12 47 17q8 2 14 3t15 1q29 0 54 4t54 6q45 2 88 6t88 2q29 -2 57.5 0t57.5 13q23 6 42 -0.5t40 -10.5l6 -6q4 -4 4 -6q-4 -6 -6 -6 t-3 1t-3 1t-6 -4q4 -8 10 -8t8 -4q2 -2 2 -4q-4 -10 -16.5 -19.5t-20.5 -13.5t-15 -7t-15 -8q-23 -12 -47.5 -15t-51.5 1q-10 0 -18 1t-19 3q-20 6 -38.5 3t-38.5 -5q-12 0 -22.5 1t-22.5 3q-4 0 -6.5 1t-6.5 1q-23 0 -26.5 -6t0.5 -29t5 -46t1 -48q0 -18 -2 -37.5t2 -38.5 q2 -6 0 -12q-4 -10 -4 -22.5v-22.5q0 -16 1 -32.5t-3 -32.5q-2 -10 -1 -19.5t-1 -19.5q0 -16 12 -15h31q29 2 56.5 1t55.5 -5q8 -4 16.5 -1t16.5 7q14 2 25 -8q6 -8 12 -14t8 -21q2 -16 -6 -30.5t-21 -16.5q-29 -4 -56.5 -10t-55.5 -10q-16 -2 -37 4q-20 6 -45 2 q-14 0 -14 -16q0 -10 1 -21.5t3 -21.5q4 -45 4 -89.5t-4 -91.5q-6 -66 -7.5 -132t-5.5 -132l-12 -246q0 -14 -2 -26.5t-2 -24.5q0 -14 12 -14q33 2 66 1t67 3l140 18q31 4 61.5 1t60.5 -13q8 -2 14.5 -8t16.5 -12q-14 -10 -14 -14.5t12 -14.5q-10 -4 -18 -8t-19 -8 q-31 -8 -60.5 -7.5t-57.5 -9.5q-33 4 -65 -4t-65 -12q-20 -2 -39.5 -1t-39.5 -1q-4 -2 -10.5 -1t-12.5 -1q-29 -12 -58.5 -13.5t-58.5 -5.5q-61 -6 -102 35q-4 4 -7 10t-3 15l-11 178v35q2 27 1 51t-3 49v58.5t-2 58.5q-2 35 1 67.5t1 65.5q-4 43 -3 87t-1 89 q-4 53 -3 106.5zM250 1417.5q0 12.5 8 22.5q29 37 53.5 75.5t53.5 75.5q10 12 21 20.5t24 16.5q6 4 12 3t12 -1q23 4 28 -6t-1 -31q-6 -27 -25 -47q-20 -23 -38.5 -48t-39.5 -50q-10 -10 -21 -20.5t-22 -20.5q-4 -4 -12 -8t-14 -8q-16 -10 -29 4q-10 10 -10 22.5z" />
<glyph unicode="&#xca;" horiz-adv-x="630" d="M11 745.5q1 53.5 1 106.5q0 27 1 51.5t3 50.5q4 47 2 91.5t-2 91.5v40.5t2 41.5q2 10 3.5 19t5.5 17q4 6 5 11.5t-3 13.5q-8 10 6 18q20 12 47 17q8 2 14 3t15 1q29 0 54 4t54 6q45 2 88 6t88 2q29 -2 57.5 0t57.5 13q23 6 42 -0.5t40 -10.5l6 -6q4 -4 4 -6q-4 -6 -6 -6 t-3 1t-3 1t-6 -4q4 -8 10 -8t8 -4q2 -2 2 -4q-4 -10 -16.5 -19.5t-20.5 -13.5t-15 -7t-15 -8q-23 -12 -47.5 -15t-51.5 1q-10 0 -18 1t-19 3q-20 6 -38.5 3t-38.5 -5q-12 0 -22.5 1t-22.5 3q-4 0 -6.5 1t-6.5 1q-23 0 -26.5 -6t0.5 -29t5 -46t1 -48q0 -18 -2 -37.5t2 -38.5 q2 -6 0 -12q-4 -10 -4 -22.5v-22.5q0 -16 1 -32.5t-3 -32.5q-2 -10 -1 -19.5t-1 -19.5q0 -16 12 -15h31q29 2 56.5 1t55.5 -5q8 -4 16.5 -1t16.5 7q14 2 25 -8q6 -8 12 -14t8 -21q2 -16 -6 -30.5t-21 -16.5q-29 -4 -56.5 -10t-55.5 -10q-16 -2 -37 4q-20 6 -45 2 q-14 0 -14 -16q0 -10 1 -21.5t3 -21.5q4 -45 4 -89.5t-4 -91.5q-6 -66 -7.5 -132t-5.5 -132l-12 -246q0 -14 -2 -26.5t-2 -24.5q0 -14 12 -14q33 2 66 1t67 3l140 18q31 4 61.5 1t60.5 -13q8 -2 14.5 -8t16.5 -12q-14 -10 -14 -14.5t12 -14.5q-10 -4 -18 -8t-19 -8 q-31 -8 -60.5 -7.5t-57.5 -9.5q-33 4 -65 -4t-65 -12q-20 -2 -39.5 -1t-39.5 -1q-4 -2 -10.5 -1t-12.5 -1q-29 -12 -58.5 -13.5t-58.5 -5.5q-61 -6 -102 35q-4 4 -7 10t-3 15l-11 178v35q2 27 1 51t-3 49v58.5t-2 58.5q-2 35 1 67.5t1 65.5q-4 43 -3 87t-1 89 q-4 53 -3 106.5zM193 1395q-8 10 4 26q14 23 28.5 43.5t30.5 42.5q10 14 19.5 27.5t19.5 28.5l10 14q31 31 64 8q10 -6 17 -19.5t13 -27.5l23 -55l29 -62q8 -18 4 -24t-27 -8q-33 0 -45 30l-21 60l-12 28q-8 16 -20 2l-74 -98q-6 -10 -13 -17.5t-18 -11.5q-20 -4 -32 13z " />
<glyph unicode="&#xcb;" horiz-adv-x="630" d="M11 745.5q1 53.5 1 106.5q0 27 1 51.5t3 50.5q4 47 2 91.5t-2 91.5v40.5t2 41.5q2 10 3.5 19t5.5 17q4 6 5 11.5t-3 13.5q-8 10 6 18q20 12 47 17q8 2 14 3t15 1q29 0 54 4t54 6q45 2 88 6t88 2q29 -2 57.5 0t57.5 13q23 6 42 -0.5t40 -10.5l6 -6q4 -4 4 -6q-4 -6 -6 -6 t-3 1t-3 1t-6 -4q4 -8 10 -8t8 -4q2 -2 2 -4q-4 -10 -16.5 -19.5t-20.5 -13.5t-15 -7t-15 -8q-23 -12 -47.5 -15t-51.5 1q-10 0 -18 1t-19 3q-20 6 -38.5 3t-38.5 -5q-12 0 -22.5 1t-22.5 3q-4 0 -6.5 1t-6.5 1q-23 0 -26.5 -6t0.5 -29t5 -46t1 -48q0 -18 -2 -37.5t2 -38.5 q2 -6 0 -12q-4 -10 -4 -22.5v-22.5q0 -16 1 -32.5t-3 -32.5q-2 -10 -1 -19.5t-1 -19.5q0 -16 12 -15h31q29 2 56.5 1t55.5 -5q8 -4 16.5 -1t16.5 7q14 2 25 -8q6 -8 12 -14t8 -21q2 -16 -6 -30.5t-21 -16.5q-29 -4 -56.5 -10t-55.5 -10q-16 -2 -37 4q-20 6 -45 2 q-14 0 -14 -16q0 -10 1 -21.5t3 -21.5q4 -45 4 -89.5t-4 -91.5q-6 -66 -7.5 -132t-5.5 -132l-12 -246q0 -14 -2 -26.5t-2 -24.5q0 -14 12 -14q33 2 66 1t67 3l140 18q31 4 61.5 1t60.5 -13q8 -2 14.5 -8t16.5 -12q-14 -10 -14 -14.5t12 -14.5q-10 -4 -18 -8t-19 -8 q-31 -8 -60.5 -7.5t-57.5 -9.5q-33 4 -65 -4t-65 -12q-20 -2 -39.5 -1t-39.5 -1q-4 -2 -10.5 -1t-12.5 -1q-29 -12 -58.5 -13.5t-58.5 -5.5q-61 -6 -102 35q-4 4 -7 10t-3 15l-11 178v35q2 27 1 51t-3 49v58.5t-2 58.5q-2 35 1 67.5t1 65.5q-4 43 -3 87t-1 89 q-4 53 -3 106.5zM186 1438q0 23 18.5 44t41.5 21q18 0 35.5 -19t19.5 -42t-14.5 -43.5t-38.5 -18.5q-23 2 -42.5 18.5t-19.5 39.5zM348 1438q0 23 18.5 44t41.5 21q18 0 35.5 -19t19.5 -42t-14.5 -43.5t-38.5 -18.5q-23 2 -42.5 18.5t-19.5 39.5z" />
<glyph unicode="&#xcc;" horiz-adv-x="448" d="M44 1685.5q5 10.5 28 6.5q6 0 12 1t12 -3q12 -8 23.5 -16.5t21.5 -20.5q29 -37 54.5 -76t54.5 -76q18 -23 -4 -45q-12 -16 -27 -4l-16 8t-13 8q-10 10 -21 20.5t-22 20.5q-20 25 -38.5 50.5t-38.5 48.5q-10 10 -15.5 22t-9.5 25q-6 20 -1 30.5zM77 349q-1 5 1 9 q4 29 2 54.5t-2 54.5q0 51 6 104q4 27 4 51.5v51.5q0 37 1 74.5t9 74.5q2 8 0 15.5t-2 15.5q-2 20 0 39.5t6 38.5q2 12 2 23.5v23.5q-2 20 0 45q4 43 2 86t-6 86v45q0 20 -1 39.5t-7 38.5v20q0 43 41 45q45 6 82 -8q29 -10 49.5 -37.5t20.5 -56.5q0 -25 3 -50.5t1 -49.5 q0 -10 -1 -20.5t1 -20.5q0 -10 1 -21.5t-1 -21.5q-2 -25 2 -49.5t4 -47.5q0 -25 2 -48t0 -48t1 -49.5t5 -48.5q4 -35 4 -71t-12 -70q-4 -10 -4 -33q2 -14 0 -28.5t-4 -29.5q0 -16 1 -29.5t5 -27.5q10 -47 2 -82q-2 -6 -2 -13v-13q-2 -31 0 -63t-8 -62q-6 -18 -5 -37t-1 -39 q-2 -35 -4.5 -67.5t-8.5 -67.5q-4 -16 -4 -31.5v-32.5q-2 -10 -1 -22.5t-3 -22.5q-4 -6 0 -16q4 -4 3 -9.5t-1 -9.5q-14 -49 -65 -36q-31 6 -52 4q-27 -6 -49 16q-8 6 -12 25q-4 29 -4 55t4 55q2 18 2 37.5t-4 38.5q-2 25 2 49.5t4 48.5v58.5t-8 58.5q0 4 -1 9z" />
<glyph unicode="&#xcd;" horiz-adv-x="448" d="M77 349q-1 5 1 9q4 29 2 54.5t-2 54.5q0 51 6 104q4 27 4 51.5v51.5q0 37 1 74.5t9 74.5q2 8 0 15.5t-2 15.5q-2 20 0 39.5t6 38.5q2 12 2 23.5v23.5q-2 20 0 45q4 43 2 86t-6 86v45q0 20 -1 39.5t-7 38.5v20q0 43 41 45q45 6 82 -8q29 -10 49.5 -37.5t20.5 -56.5 q0 -25 3 -50.5t1 -49.5q0 -10 -1 -20.5t1 -20.5q0 -10 1 -21.5t-1 -21.5q-2 -25 2 -49.5t4 -47.5q0 -25 2 -48t0 -48t1 -49.5t5 -48.5q4 -35 4 -71t-12 -70q-4 -10 -4 -33q2 -14 0 -28.5t-4 -29.5q0 -16 1 -29.5t5 -27.5q10 -47 2 -82q-2 -6 -2 -13v-13q-2 -31 0 -63t-8 -62 q-6 -18 -5 -37t-1 -39q-2 -35 -4.5 -67.5t-8.5 -67.5q-4 -16 -4 -31.5v-32.5q-2 -10 -1 -22.5t-3 -22.5q-4 -6 0 -16q4 -4 3 -9.5t-1 -9.5q-14 -49 -65 -36q-31 6 -52 4q-27 -6 -49 16q-8 6 -12 25q-4 29 -4 55t4 55q2 18 2 37.5t-4 38.5q-2 25 2 49.5t4 48.5v58.5t-8 58.5 q0 4 -1 9zM133 1472.5q0 12.5 8 22.5q29 37 53.5 76t53.5 76q10 12 21.5 20t23.5 16q6 4 12 3.5t12 -0.5q23 4 28 -6.5t-1 -30.5q-6 -27 -25 -47q-20 -23 -38.5 -48.5t-38.5 -50.5q-10 -10 -21.5 -20t-21.5 -21q-4 -4 -12.5 -8t-14.5 -8q-16 -10 -29 4q-10 10 -10 22.5z" />
<glyph unicode="&#xce;" horiz-adv-x="448" d="M45 1425q-8 10 4 27q14 23 28.5 43.5t31.5 42.5q10 14 19 27.5t19 27.5l11 15q31 31 63 8q10 -6 17.5 -19.5t13.5 -27.5l22 -56l29 -61q8 -18 4.5 -24.5t-26.5 -8.5q-33 0 -45 31l-21 59l-12 29q-8 16 -21 2l-73 -98q-6 -10 -13.5 -17.5t-17.5 -11.5q-20 -4 -33 12z M77 349q-1 5 1 9q4 29 2 54.5t-2 54.5q0 51 6 104q4 27 4 51.5v51.5q0 37 1 74.5t9 74.5q2 8 0 15.5t-2 15.5q-2 20 0 39.5t6 38.5q2 12 2 23.5v23.5q-2 20 0 45q4 43 2 86t-6 86v45q0 20 -1 39.5t-7 38.5v20q0 43 41 45q45 6 82 -8q29 -10 49.5 -37.5t20.5 -56.5 q0 -25 3 -50.5t1 -49.5q0 -10 -1 -20.5t1 -20.5q0 -10 1 -21.5t-1 -21.5q-2 -25 2 -49.5t4 -47.5q0 -25 2 -48t0 -48t1 -49.5t5 -48.5q4 -35 4 -71t-12 -70q-4 -10 -4 -33q2 -14 0 -28.5t-4 -29.5q0 -16 1 -29.5t5 -27.5q10 -47 2 -82q-2 -6 -2 -13v-13q-2 -31 0 -63t-8 -62 q-6 -18 -5 -37t-1 -39q-2 -35 -4.5 -67.5t-8.5 -67.5q-4 -16 -4 -31.5v-32.5q-2 -10 -1 -22.5t-3 -22.5q-4 -6 0 -16q4 -4 3 -9.5t-1 -9.5q-14 -49 -65 -36q-31 6 -52 4q-27 -6 -49 16q-8 6 -12 25q-4 29 -4 55t4 55q2 18 2 37.5t-4 38.5q-2 25 2 49.5t4 48.5v58.5t-8 58.5 q0 4 -1 9z" />
<glyph unicode="&#xcf;" horiz-adv-x="448" d="M33 1522q0 23 18.5 44t40.5 21q18 0 35.5 -19t19.5 -42t-14 -43.5t-39 -18.5t-42 18.5t-19 39.5zM77 349q-1 5 1 9q4 29 2 54.5t-2 54.5q0 51 6 104q4 27 4 51.5v51.5q0 37 1 74.5t9 74.5q2 8 0 15.5t-2 15.5q-2 20 0 39.5t6 38.5q2 12 2 23.5v23.5q-2 20 0 45q4 43 2 86 t-6 86v45q0 20 -1 39.5t-7 38.5v20q0 43 41 45q45 6 82 -8q29 -10 49.5 -37.5t20.5 -56.5q0 -25 3 -50.5t1 -49.5q0 -10 -1 -20.5t1 -20.5q0 -10 1 -21.5t-1 -21.5q-2 -25 2 -49.5t4 -47.5q0 -25 2 -48t0 -48t1 -49.5t5 -48.5q4 -35 4 -71t-12 -70q-4 -10 -4 -33 q2 -14 0 -28.5t-4 -29.5q0 -16 1 -29.5t5 -27.5q10 -47 2 -82q-2 -6 -2 -13v-13q-2 -31 0 -63t-8 -62q-6 -18 -5 -37t-1 -39q-2 -35 -4.5 -67.5t-8.5 -67.5q-4 -16 -4 -31.5v-32.5q-2 -10 -1 -22.5t-3 -22.5q-4 -6 0 -16q4 -4 3 -9.5t-1 -9.5q-14 -49 -65 -36q-31 6 -52 4 q-27 -6 -49 16q-8 6 -12 25q-4 29 -4 55t4 55q2 18 2 37.5t-4 38.5q-2 25 2 49.5t4 48.5v58.5t-8 58.5q0 4 -1 9zM195 1522q0 23 18 44t41 21q18 0 35.5 -19t19.5 -42t-14 -43.5t-39 -18.5t-42 18.5t-19 39.5z" />
<glyph unicode="&#xd0;" horiz-adv-x="815" d="M-156 811q-18 20 2 35q8 4 21 4q27 0 51.5 1t50.5 -1h29q0 25 -1 49.5t-1 50.5q2 25 2 50.5v48.5q0 25 2 50t-2 50q-4 49 0 100q2 16 0 31.5t0 32.5q4 4 0 4q0 45 32.5 64.5t71.5 11.5q16 -2 30.5 -4.5t31.5 -2.5q25 0 54.5 -4t53.5 -8q39 -8 78 -17t74 -26 q45 -18 86 -49q63 -45 119 -111q14 -14 23.5 -28.5t21.5 -30.5q2 0 6 -10l37 -107q10 -27 10 -51q2 -37 9 -72.5t9 -72.5q2 -10 1 -18.5t-1 -18.5v-84t-4 -84q-4 -31 -12 -61.5t-12 -61.5q-2 -16 -8.5 -33.5t-12.5 -34.5q-10 -35 -20 -72.5t-25 -76.5q-10 -29 -21.5 -59.5 t-27.5 -57.5q-16 -29 -37.5 -54.5t-44.5 -49.5q-29 -31 -61.5 -57.5t-65.5 -55.5l-20 -18q-37 -37 -99 -54q-23 -4 -41 -14t-40 -14q-23 -4 -45.5 -6t-45.5 -2q-12 0 -24 4t-25 8q-8 2 -8 10q-6 59 -8 115.5t-4 116.5q-2 47 -8.5 92t-10.5 92l-4 61q-2 29 -5 55.5t-1 55.5 q2 41 -1 79t1 79q2 14 1 28.5t-1 30.5q0 33 -2 63.5t-4 61.5q-16 2 -33.5 3t-34.5 1q-12 -2 -23 -2t-24 4q-10 6 -19 11t-14 20q0 4 -3 6t-3 4zM203 1278q8 -4 12 -45t5 -91t1 -94t4 -57q6 -27 3 -52.5t1 -49.5q2 -10 2 -17.5v-15.5q27 2 52.5 2h54.5q16 0 34.5 -2t37.5 -6 q10 -4 18 -8t10 -21q8 -39 -24 -43q-23 -4 -45.5 -6t-44.5 -4q-23 -4 -43.5 -4t-42.5 -2q2 -10 2 -19.5v-19.5q4 -82 7 -164t-3 -166q-2 -29 -1 -57.5t9 -56.5q4 -20 7 -40t3 -42q0 -20 1 -40t5 -40q2 -4 1 -9.5t-1 -9.5q0 -12 -4 -23.5t0 -21.5q6 -18 6 -37.5t-2 -38.5 q0 -10 -1 -17t1 -15q6 -2 9.5 0t7.5 6q23 14 41 31.5t41 33.5q29 23 55.5 51.5t50.5 57.5q16 20 29.5 41.5t23.5 44.5q23 53 45.5 106.5t32.5 112.5q4 37 13.5 75t7.5 77q0 35 -1 69.5t-1 69.5q2 49 0 98t-5 99q-2 12 -4 22t-6 23q-8 16 -14 35.5t-10 37.5 q-10 35 -27.5 64.5t-48.5 52.5q-23 16 -42.5 34.5t-43.5 31.5q-53 29 -105.5 45t-113.5 14z" />
<glyph unicode="&#xd1;" horiz-adv-x="870" d="M-18 1286v19.5t2 19.5q4 25 20 29l39 12q10 4 33 0q23 -8 46 -15.5t42 -25.5q10 -10 26 -10t21.5 -4t9.5 -19q6 -16 15.5 -31.5t19.5 -31.5q41 -66 53 -139q10 -59 24.5 -114.5t37.5 -111.5q8 -16 11 -34.5t7 -36.5q12 -39 27.5 -75t29.5 -73q8 -18 14.5 -38.5 t12.5 -41.5q16 -57 43 -119q25 -55 48.5 -109t49.5 -108q7 -10 11 -12q4 4 4 12v420v21.5t-2 23.5q-2 6 0 13.5t0 13.5q0 35 2 70.5t-2 70.5q-4 23 -4 44.5t2 43.5v80q0 25 2 50.5t4 49.5q6 25 2 54q-4 27 -2 50t6 48v14q-6 39 0 76t10 74q2 16 6 19t21 3h10q14 0 17.5 -2 t7.5 -14q4 0 6 4t6 4q4 -4 0 -14q0 -4 -2 -9t8 -7q4 0 3 -2.5t-1 -4.5q-2 -43 0 -86t6 -86q0 -31 -2 -61.5t-4 -61.5q-2 -29 -2 -57.5v-56.5q0 -29 1 -56.5t-3 -56.5q-2 -4 -1 -8t1 -8q6 -41 6 -78l6 -356q2 -37 1 -74t-1 -74q0 -12 1 -23.5t3 -21.5q4 -31 1 -62.5t1 -62.5 q2 -25 5.5 -50.5t5.5 -49.5q2 -37 10 -73t10 -73q4 -27 -2 -51q-18 8 -36.5 9t-37.5 10q-33 14 -51 39q-18 23 -32.5 47t-24.5 51q-33 70 -62.5 140.5t-56.5 141.5q-23 59 -43 118t-39 118q-18 53 -35.5 106.5t-36.5 106.5q-14 41 -29.5 78t-27.5 78q-2 8 -4 18t-10 21v-68 l6 -80l12 -86q2 -14 4 -28.5t-2 -28.5q0 -6 1 -10.5t1 -8.5q8 -25 9.5 -48t3.5 -48q2 -31 -1.5 -61.5t-5.5 -63.5q0 -55 7 -113q4 -35 4 -71.5v-73.5l-9 -182q-4 -74 -51 -121q-16 -12 -32 -12q-20 0 -43 -17q-4 -4 -11.5 -7t-15.5 1q-12 8 -26.5 13.5t-26.5 15.5 q-20 16 -23 39q-4 25 -5 48t-3 46q0 49 -6 98q-2 12 -2 23.5v21.5l-13 160q-4 59 -5 116.5t-3 114.5q-4 47 -5 94.5t-7 94.5q-4 18 -3 36.5t1 39.5q0 70 -6 143q-4 41 -3 82t-3 82q0 12 1 24.5t1 26.5q2 45 -2 88t-2 88zM133 1489q10 23 26.5 38t43.5 21q6 2 22 2 q25 0 48.5 -10t41.5 -22q18 -14 40 -27.5t44.5 -22t45 -5.5t44.5 24q10 8 18.5 16t12.5 21q4 8 8 12q25 20 39 -10q6 -16 -2 -35q-29 -55 -84 -77.5t-114 5.5q-27 12 -50.5 28.5t-50.5 31.5q-49 27 -78 -17l-8 -12t-8 -10q-10 -10 -25 -4q-31 20 -14 53z" />
<glyph unicode="&#xd2;" horiz-adv-x="888" d="M-25.5 696.5q0.5 18.5 0.5 36.5q2 70 19 141q6 29 8 60t10 59l15 49q14 53 34.5 102.5t44.5 96.5q16 31 35 59.5t45 53.5q20 20 50 26q12 2 23 5.5t24 7.5q35 14 63 14q4 0 6 2q31 10 60.5 7t60.5 -11q18 -4 37.5 -7t38.5 -9q31 -10 56.5 -29t49.5 -37q23 -16 35 -39.5 t23 -48.5q4 -10 8 -18.5t12 -16.5q20 -25 25 -65q2 -25 6 -48.5t2 -50.5q20 18 36.5 38t26.5 42q12 29 22.5 55.5t25.5 53.5q6 12 9 24.5t7 26.5q4 16 23.5 26.5t39.5 6.5q14 -4 21.5 -18.5t3.5 -33.5q-8 -35 -19.5 -66.5t-27.5 -62.5q-8 -10 -12 -21t-9 -24 q-6 -20 -17 -36.5t-24 -32.5q-12 -16 -16 -25q-27 -43 -72 -76q-16 -10 -14 -26q6 -25 0 -53q-4 -18 -2 -38t0 -40q0 -23 1 -47.5t1 -49.5q0 -10 -2 -16q-8 -23 -8 -46.5v-45.5q0 -55 -4 -109.5t-13 -109.5q-4 -35 -13 -68t-19 -67l-11 -64q-4 -39 -22.5 -71.5t-40.5 -65.5 q-16 -23 -35.5 -44.5t-38.5 -43.5q-14 -16 -32.5 -24.5t-36.5 -18.5q-4 -2 -6.5 -2t-6.5 -4q-25 -18 -53.5 -21.5t-56.5 -5.5q-43 0 -95 10q-16 4 -30.5 13.5t-30.5 15.5q-31 16 -57.5 37.5t-48.5 48.5q-14 16 -23.5 34.5t-19.5 39.5q-51 115 -70 241l-10 103q0 12 -2 24.5 t-2 24.5q-6 57 -6.5 112.5t4.5 112.5v13q-6 16 -5.5 34.5zM176 473q4 -41 7 -82t10 -82q4 -37 11 -73.5t7 -73.5q4 -35 16 -60q8 -14 11 -28q10 -31 30 -51q8 -10 16.5 -17.5t12.5 -19.5q8 -18 22.5 -28.5t30.5 -16.5q23 -8 45 -2q25 6 47.5 18t44.5 23q8 2 12.5 8t8.5 12 q10 18 23.5 34.5t25.5 33.5q18 23 27 41q23 47 31 97t16 101q4 14 -2 25v10q10 18 8 38.5t2 41.5q8 41 10 82t6 82q0 14 1 27.5t-3 27.5q-2 18 -2 35.5t4 34.5q0 8 2 14t2 14v109q0 18 -16 18q-18 0 -36.5 3t-35.5 5q-12 0 -21 4.5t-20 8.5q-14 8 -26 15t-27 13 q-10 4 -18 11.5t-17 15.5q-14 12 -23 27.5t-20 31.5q-10 14 -18 31t-12 35q-8 43 -11.5 86t7.5 86q4 14 6 28.5t6 30.5q-45 -47 -77 -104t-53.5 -133t-34.5 -171t-24 -216q-2 -20 -2 -40v-42q-2 -29 -7 -58.5t-3 -60.5zM257 1703.5q5 10.5 28 6.5q6 0 12 1t12 -3 q12 -8 23.5 -16.5t21.5 -20.5q29 -37 54.5 -76t54.5 -75q18 -23 -4 -45q-12 -16 -27 -5q-8 4 -16 8.5t-13 8.5q-10 10 -21 20.5t-22 20.5q-20 25 -38.5 50.5t-38.5 47.5q-10 10 -15.5 22.5t-9.5 24.5q-6 20 -1 30.5zM465 1128q2 -20 6 -39.5t16 -37.5q12 -16 26.5 -28.5 t31.5 -27.5q12 -10 26 -12q16 0 33 -1t33 -3t14 16q-4 27 -8 52.5t-8 52.5q-6 45 -27 82l-24 49q-6 16 -21 24q-10 4 -17 10.5t-11 16.5q-4 14 -17 14q-16 0 -22 -14q-10 -16 -11 -33q-4 -41 -14 -73q-6 -25 -6 -48z" />
<glyph unicode="&#xd3;" horiz-adv-x="888" d="M-25.5 696.5q0.5 18.5 0.5 36.5q2 70 19 141q6 29 8 60t10 59l15 49q14 53 34.5 102.5t44.5 96.5q16 31 35 59.5t45 53.5q20 20 50 26q12 2 23 5.5t24 7.5q35 14 63 14q4 0 6 2q31 10 60.5 7t60.5 -11q18 -4 37.5 -7t38.5 -9q31 -10 56.5 -29t49.5 -37q23 -16 35 -39.5 t23 -48.5q4 -10 8 -18.5t12 -16.5q20 -25 25 -65q2 -25 6 -48.5t2 -50.5q20 18 36.5 38t26.5 42q12 29 22.5 55.5t25.5 53.5q6 12 9 24.5t7 26.5q4 16 23.5 26.5t39.5 6.5q14 -4 21.5 -18.5t3.5 -33.5q-8 -35 -19.5 -66.5t-27.5 -62.5q-8 -10 -12 -21t-9 -24 q-6 -20 -17 -36.5t-24 -32.5q-12 -16 -16 -25q-27 -43 -72 -76q-16 -10 -14 -26q6 -25 0 -53q-4 -18 -2 -38t0 -40q0 -23 1 -47.5t1 -49.5q0 -10 -2 -16q-8 -23 -8 -46.5v-45.5q0 -55 -4 -109.5t-13 -109.5q-4 -35 -13 -68t-19 -67l-11 -64q-4 -39 -22.5 -71.5t-40.5 -65.5 q-16 -23 -35.5 -44.5t-38.5 -43.5q-14 -16 -32.5 -24.5t-36.5 -18.5q-4 -2 -6.5 -2t-6.5 -4q-25 -18 -53.5 -21.5t-56.5 -5.5q-43 0 -95 10q-16 4 -30.5 13.5t-30.5 15.5q-31 16 -57.5 37.5t-48.5 48.5q-14 16 -23.5 34.5t-19.5 39.5q-51 115 -70 241l-10 103q0 12 -2 24.5 t-2 24.5q-6 57 -6.5 112.5t4.5 112.5v13q-6 16 -5.5 34.5zM176 473q4 -41 7 -82t10 -82q4 -37 11 -73.5t7 -73.5q4 -35 16 -60q8 -14 11 -28q10 -31 30 -51q8 -10 16.5 -17.5t12.5 -19.5q8 -18 22.5 -28.5t30.5 -16.5q23 -8 45 -2q25 6 47.5 18t44.5 23q8 2 12.5 8t8.5 12 q10 18 23.5 34.5t25.5 33.5q18 23 27 41q23 47 31 97t16 101q4 14 -2 25v10q10 18 8 38.5t2 41.5q8 41 10 82t6 82q0 14 1 27.5t-3 27.5q-2 18 -2 35.5t4 34.5q0 8 2 14t2 14v109q0 18 -16 18q-18 0 -36.5 3t-35.5 5q-12 0 -21 4.5t-20 8.5q-14 8 -26 15t-27 13 q-10 4 -18 11.5t-17 15.5q-14 12 -23 27.5t-20 31.5q-10 14 -18 31t-12 35q-8 43 -11.5 86t7.5 86q4 14 6 28.5t6 30.5q-45 -47 -77 -104t-53.5 -133t-34.5 -171t-24 -216q-2 -20 -2 -40v-42q-2 -29 -7 -58.5t-3 -60.5zM342 1492.5q0 12.5 8 23.5q29 37 53.5 75.5t53.5 75.5 q10 12 21 20.5t24 16.5q6 4 12 3t12 -1q23 4 28 -6t-1 -31q-6 -27 -25 -47q-20 -23 -38.5 -48.5t-38.5 -49.5q-10 -10 -21.5 -20.5t-21.5 -20.5q-4 -4 -12.5 -8.5t-14.5 -8.5q-16 -10 -29 4q-10 10 -10 22.5zM465 1128q2 -20 6 -39.5t16 -37.5q12 -16 26.5 -28.5t31.5 -27.5 q12 -10 26 -12q16 0 33 -1t33 -3t14 16q-4 27 -8 52.5t-8 52.5q-6 45 -27 82l-24 49q-6 16 -21 24q-10 4 -17 10.5t-11 16.5q-4 14 -17 14q-16 0 -22 -14q-10 -16 -11 -33q-4 -41 -14 -73q-6 -25 -6 -48z" />
<glyph unicode="&#xd4;" horiz-adv-x="888" d="M-25.5 696.5q0.5 18.5 0.5 36.5q2 70 19 141q6 29 8 60t10 59l15 49q14 53 34.5 102.5t44.5 96.5q16 31 35 59.5t45 53.5q20 20 50 26q12 2 23 5.5t24 7.5q35 14 63 14q4 0 6 2q31 10 60.5 7t60.5 -11q18 -4 37.5 -7t38.5 -9q31 -10 56.5 -29t49.5 -37q23 -16 35 -39.5 t23 -48.5q4 -10 8 -18.5t12 -16.5q20 -25 25 -65q2 -25 6 -48.5t2 -50.5q20 18 36.5 38t26.5 42q12 29 22.5 55.5t25.5 53.5q6 12 9 24.5t7 26.5q4 16 23.5 26.5t39.5 6.5q14 -4 21.5 -18.5t3.5 -33.5q-8 -35 -19.5 -66.5t-27.5 -62.5q-8 -10 -12 -21t-9 -24 q-6 -20 -17 -36.5t-24 -32.5q-12 -16 -16 -25q-27 -43 -72 -76q-16 -10 -14 -26q6 -25 0 -53q-4 -18 -2 -38t0 -40q0 -23 1 -47.5t1 -49.5q0 -10 -2 -16q-8 -23 -8 -46.5v-45.5q0 -55 -4 -109.5t-13 -109.5q-4 -35 -13 -68t-19 -67l-11 -64q-4 -39 -22.5 -71.5t-40.5 -65.5 q-16 -23 -35.5 -44.5t-38.5 -43.5q-14 -16 -32.5 -24.5t-36.5 -18.5q-4 -2 -6.5 -2t-6.5 -4q-25 -18 -53.5 -21.5t-56.5 -5.5q-43 0 -95 10q-16 4 -30.5 13.5t-30.5 15.5q-31 16 -57.5 37.5t-48.5 48.5q-14 16 -23.5 34.5t-19.5 39.5q-51 115 -70 241l-10 103q0 12 -2 24.5 t-2 24.5q-6 57 -6.5 112.5t4.5 112.5v13q-6 16 -5.5 34.5zM176 473q4 -41 7 -82t10 -82q4 -37 11 -73.5t7 -73.5q4 -35 16 -60q8 -14 11 -28q10 -31 30 -51q8 -10 16.5 -17.5t12.5 -19.5q8 -18 22.5 -28.5t30.5 -16.5q23 -8 45 -2q25 6 47.5 18t44.5 23q8 2 12.5 8t8.5 12 q10 18 23.5 34.5t25.5 33.5q18 23 27 41q23 47 31 97t16 101q4 14 -2 25v10q10 18 8 38.5t2 41.5q8 41 10 82t6 82q0 14 1 27.5t-3 27.5q-2 18 -2 35.5t4 34.5q0 8 2 14t2 14v109q0 18 -16 18q-18 0 -36.5 3t-35.5 5q-12 0 -21 4.5t-20 8.5q-14 8 -26 15t-27 13 q-10 4 -18 11.5t-17 15.5q-14 12 -23 27.5t-20 31.5q-10 14 -18 31t-12 35q-8 43 -11.5 86t7.5 86q4 14 6 28.5t6 30.5q-45 -47 -77 -104t-53.5 -133t-34.5 -171t-24 -216q-2 -20 -2 -40v-42q-2 -29 -7 -58.5t-3 -60.5zM252 1444q-8 10 4 26q14 23 28.5 43.5t30.5 42.5 q10 14 19.5 27.5t19.5 28.5l11 14q31 31 63 8q10 -6 17.5 -19t13.5 -28l22 -55l29 -62q8 -18 4 -24t-27 -8q-33 0 -45 30l-20 60l-12 28q-8 16 -21 3l-74 -99q-6 -10 -13 -17t-17 -11q-20 -4 -33 12zM465 1128q2 -20 6 -39.5t16 -37.5q12 -16 26.5 -28.5t31.5 -27.5 q12 -10 26 -12q16 0 33 -1t33 -3t14 16q-4 27 -8 52.5t-8 52.5q-6 45 -27 82l-24 49q-6 16 -21 24q-10 4 -17 10.5t-11 16.5q-4 14 -17 14q-16 0 -22 -14q-10 -16 -11 -33q-4 -41 -14 -73q-6 -25 -6 -48z" />
<glyph unicode="&#xd5;" horiz-adv-x="888" d="M-25.5 696.5q0.5 18.5 0.5 36.5q2 70 19 141q6 29 8 60t10 59l15 49q14 53 34.5 102.5t44.5 96.5q16 31 35 59.5t45 53.5q20 20 50 26q12 2 23 5.5t24 7.5q35 14 63 14q4 0 6 2q31 10 60.5 7t60.5 -11q18 -4 37.5 -7t38.5 -9q31 -10 56.5 -29t49.5 -37q23 -16 35 -39.5 t23 -48.5q4 -10 8 -18.5t12 -16.5q20 -25 25 -65q2 -25 6 -48.5t2 -50.5q20 18 36.5 38t26.5 42q12 29 22.5 55.5t25.5 53.5q6 12 9 24.5t7 26.5q4 16 23.5 26.5t39.5 6.5q14 -4 21.5 -18.5t3.5 -33.5q-8 -35 -19.5 -66.5t-27.5 -62.5q-8 -10 -12 -21t-9 -24 q-6 -20 -17 -36.5t-24 -32.5q-12 -16 -16 -25q-27 -43 -72 -76q-16 -10 -14 -26q6 -25 0 -53q-4 -18 -2 -38t0 -40q0 -23 1 -47.5t1 -49.5q0 -10 -2 -16q-8 -23 -8 -46.5v-45.5q0 -55 -4 -109.5t-13 -109.5q-4 -35 -13 -68t-19 -67l-11 -64q-4 -39 -22.5 -71.5t-40.5 -65.5 q-16 -23 -35.5 -44.5t-38.5 -43.5q-14 -16 -32.5 -24.5t-36.5 -18.5q-4 -2 -6.5 -2t-6.5 -4q-25 -18 -53.5 -21.5t-56.5 -5.5q-43 0 -95 10q-16 4 -30.5 13.5t-30.5 15.5q-31 16 -57.5 37.5t-48.5 48.5q-14 16 -23.5 34.5t-19.5 39.5q-51 115 -70 241l-10 103q0 12 -2 24.5 t-2 24.5q-6 57 -6.5 112.5t4.5 112.5v13q-6 16 -5.5 34.5zM176 473q4 -41 7 -82t10 -82q4 -37 11 -73.5t7 -73.5q4 -35 16 -60q8 -14 11 -28q10 -31 30 -51q8 -10 16.5 -17.5t12.5 -19.5q8 -18 22.5 -28.5t30.5 -16.5q23 -8 45 -2q25 6 47.5 18t44.5 23q8 2 12.5 8t8.5 12 q10 18 23.5 34.5t25.5 33.5q18 23 27 41q23 47 31 97t16 101q4 14 -2 25v10q10 18 8 38.5t2 41.5q8 41 10 82t6 82q0 14 1 27.5t-3 27.5q-2 18 -2 35.5t4 34.5q0 8 2 14t2 14v109q0 18 -16 18q-18 0 -36.5 3t-35.5 5q-12 0 -21 4.5t-20 8.5q-14 8 -26 15t-27 13 q-10 4 -18 11.5t-17 15.5q-14 12 -23 27.5t-20 31.5q-10 14 -18 31t-12 35q-8 43 -11.5 86t7.5 86q4 14 6 28.5t6 30.5q-45 -47 -77 -104t-53.5 -133t-34.5 -171t-24 -216q-2 -20 -2 -40v-42q-2 -29 -7 -58.5t-3 -60.5zM182 1530q10 23 26.5 38t43.5 21q6 2 22 2 q25 0 48.5 -10t42.5 -22q18 -14 39.5 -27.5t44 -22t45 -5.5t45.5 24q10 8 18 16t12 21q4 8 9 12q25 20 38 -10q6 -16 -2 -35q-29 -55 -84 -77.5t-114 5.5q-27 12 -50.5 28.5t-50.5 31.5q-49 27 -77 -17q-4 -6 -8.5 -12t-8.5 -10q-10 -10 -24 -4q-31 20 -15 53zM465 1128 q2 -20 6 -39.5t16 -37.5q12 -16 26.5 -28.5t31.5 -27.5q12 -10 26 -12q16 0 33 -1t33 -3t14 16q-4 27 -8 52.5t-8 52.5q-6 45 -27 82l-24 49q-6 16 -21 24q-10 4 -17 10.5t-11 16.5q-4 14 -17 14q-16 0 -22 -14q-10 -16 -11 -33q-4 -41 -14 -73q-6 -25 -6 -48z" />
<glyph unicode="&#xd6;" horiz-adv-x="888" d="M-25.5 696.5q0.5 18.5 0.5 36.5q2 70 19 141q6 29 8 60t10 59l15 49q14 53 34.5 102.5t44.5 96.5q16 31 35 59.5t45 53.5q20 20 50 26q12 2 23 5.5t24 7.5q35 14 63 14q4 0 6 2q31 10 60.5 7t60.5 -11q18 -4 37.5 -7t38.5 -9q31 -10 56.5 -29t49.5 -37q23 -16 35 -39.5 t23 -48.5q4 -10 8 -18.5t12 -16.5q20 -25 25 -65q2 -25 6 -48.5t2 -50.5q20 18 36.5 38t26.5 42q12 29 22.5 55.5t25.5 53.5q6 12 9 24.5t7 26.5q4 16 23.5 26.5t39.5 6.5q14 -4 21.5 -18.5t3.5 -33.5q-8 -35 -19.5 -66.5t-27.5 -62.5q-8 -10 -12 -21t-9 -24 q-6 -20 -17 -36.5t-24 -32.5q-12 -16 -16 -25q-27 -43 -72 -76q-16 -10 -14 -26q6 -25 0 -53q-4 -18 -2 -38t0 -40q0 -23 1 -47.5t1 -49.5q0 -10 -2 -16q-8 -23 -8 -46.5v-45.5q0 -55 -4 -109.5t-13 -109.5q-4 -35 -13 -68t-19 -67l-11 -64q-4 -39 -22.5 -71.5t-40.5 -65.5 q-16 -23 -35.5 -44.5t-38.5 -43.5q-14 -16 -32.5 -24.5t-36.5 -18.5q-4 -2 -6.5 -2t-6.5 -4q-25 -18 -53.5 -21.5t-56.5 -5.5q-43 0 -95 10q-16 4 -30.5 13.5t-30.5 15.5q-31 16 -57.5 37.5t-48.5 48.5q-14 16 -23.5 34.5t-19.5 39.5q-51 115 -70 241l-10 103q0 12 -2 24.5 t-2 24.5q-6 57 -6.5 112.5t4.5 112.5v13q-6 16 -5.5 34.5zM176 473q4 -41 7 -82t10 -82q4 -37 11 -73.5t7 -73.5q4 -35 16 -60q8 -14 11 -28q10 -31 30 -51q8 -10 16.5 -17.5t12.5 -19.5q8 -18 22.5 -28.5t30.5 -16.5q23 -8 45 -2q25 6 47.5 18t44.5 23q8 2 12.5 8t8.5 12 q10 18 23.5 34.5t25.5 33.5q18 23 27 41q23 47 31 97t16 101q4 14 -2 25v10q10 18 8 38.5t2 41.5q8 41 10 82t6 82q0 14 1 27.5t-3 27.5q-2 18 -2 35.5t4 34.5q0 8 2 14t2 14v109q0 18 -16 18q-18 0 -36.5 3t-35.5 5q-12 0 -21 4.5t-20 8.5q-14 8 -26 15t-27 13 q-10 4 -18 11.5t-17 15.5q-14 12 -23 27.5t-20 31.5q-10 14 -18 31t-12 35q-8 43 -11.5 86t7.5 86q4 14 6 28.5t6 30.5q-45 -47 -77 -104t-53.5 -133t-34.5 -171t-24 -216q-2 -20 -2 -40v-42q-2 -29 -7 -58.5t-3 -60.5zM268 1520q0 23 18.5 44t41.5 21q18 0 35.5 -19 t19.5 -42t-14.5 -43.5t-38.5 -18.5q-23 2 -42.5 18.5t-19.5 39.5zM430 1520q0 23 18.5 44t40.5 21q18 0 36 -19t20 -42t-14.5 -43.5t-38.5 -18.5q-23 2 -42.5 18.5t-19.5 39.5zM465 1128q2 -20 6 -39.5t16 -37.5q12 -16 26.5 -28.5t31.5 -27.5q12 -10 26 -12q16 0 33 -1 t33 -3t14 16q-4 27 -8 52.5t-8 52.5q-6 45 -27 82l-24 49q-6 16 -21 24q-10 4 -17 10.5t-11 16.5q-4 14 -17 14q-16 0 -22 -14q-10 -16 -11 -33q-4 -41 -14 -73q-6 -25 -6 -48z" />
<glyph unicode="&#xd7;" horiz-adv-x="563" d="M-80 258q10 20 26.5 35.5t33.5 30.5q39 31 70.5 66.5t66.5 70.5q10 12 11 19t-7 24q-29 53 -54.5 105.5t-46.5 109.5q-4 10 -6 18t-4 19l-12 80q-2 14 16 24q72 33 131 -20q16 -14 30.5 -29.5t25.5 -34.5q4 -6 9 -11t9 -11q39 -45 62 -95q10 -20 16 -21t22 15l56 56 q33 37 74 67q25 20 51 37.5t49 40.5l10 8q20 10 31 0q12 -8 4 -31q-6 -14 -16.5 -23t-20.5 -20q-35 -41 -71.5 -76.5t-73.5 -72.5q-18 -20 -36 -39.5t-34 -42.5q-12 -16 -6 -31q16 -37 31.5 -72.5t35.5 -70.5q8 -20 11 -31q2 -25 16 -49q29 -47 31 -94q0 -29 -21 -31l-37 -6 q-10 0 -24 10q-10 8 -20.5 13.5t-20.5 9.5q-16 4 -31 20q-14 12 -27.5 24.5t-25.5 26.5q-18 20 -32.5 43t-28.5 48q-14 23 -20.5 24.5t-27.5 -18.5l-33.5 -33.5t-33.5 -38.5q-14 -18 -33 -31q-12 -8 -20.5 -18t-20.5 -21q-23 -23 -59 -18q-45 4 -25 45z" />
<glyph unicode="&#xd8;" horiz-adv-x="757" d="M-32 633q-1 49 3 98q2 23 6.5 46.5t8.5 45.5q37 160 106 301q27 55 60.5 105.5t74.5 97.5l13 14q23 23 53 15q14 -6 28.5 -5t26.5 -8h4l-6 -6q14 -14 21.5 -33.5t3.5 -37.5q0 -6 -1 -11.5t3 -9.5q6 -2 11 1t9 7q29 14 51 4q4 -2 13 -2q49 0 86 -32v2q8 25 15 51.5 t17 52.5q4 16 6.5 18.5t12.5 -1.5q20 -6 22 -33q6 -16 -4 -37q-6 -16 -11 -33.5t-9 -34.5l-10 -32q14 -14 20 -29q16 -27 26.5 -56.5t20.5 -58.5q4 -10 3 -18t1 -19q0 -10 6 -12q2 0 11 8q41 51 75 123l4.5 13.5t12.5 5.5t11 -8.5t3 -14.5q6 -37 -10 -70l-51 -100 q-6 -12 -12.5 -22.5t-16.5 -20.5q-16 -18 -10 -39q4 -25 4 -48.5v-47.5v-6q10 -16 8 -33.5t-2 -36.5q-4 -23 -3 -47.5t3 -48.5q0 -53 -16 -113q-4 -10 -6 -20.5t0 -20.5q0 -35 -7.5 -69.5t-17.5 -69.5q0 -4 -4 -8q-18 -29 -28.5 -61.5t-22.5 -65.5q-6 -20 -16.5 -39 t-20.5 -37l-19 -27q-8 -8 -14 -16t-12 -18q-31 -51 -84 -80q-29 -16 -58 -17q-33 -2 -64.5 0t-64.5 4q-10 0 -14 2q-4 -16 -11 -28t-11 -23l-9 -16q-4 -6 -6 -14.5t-8 -6.5q-2 -2 -2 -4v-2q-6 -8 -8 -2q-2 4 -4 6t-4 6q-12 6 -7 35l13 64q0 2 1 3t1 3q-18 12 -33 27 q-14 12 -26.5 26.5t-22.5 30.5q0 2 -2 4q-29 27 -39 60.5t-23 68.5q-16 49 -21 101.5t-15 103.5q-4 20 -7.5 38.5t-1.5 39.5q4 20 5 39.5t-3 40.5q-4 49 -5 98zM205 416q2 -25 5 -48.5t3 -48.5v-30.5t2 -28.5q0 -10 1 -20.5t-3 -20.5q-2 -8 -2 -16t4 -15q4 -4 5 -8t5 -8 l8 29l37 104q4 10 6.5 20.5t6.5 20.5q4 14 19 65.5t36.5 124t47.5 158.5t50 170q0 2 -2 2q-10 10 -23.5 19.5t-21.5 25.5q-23 47 -27 97.5t13 101.5q4 10 6 19.5t4 19.5q2 4 3 9t-5 9q-4 2 -14 -8l-20.5 -20.5l-20.5 -20.5q-29 -31 -35 -74q-4 -27 -8 -52t-17 -50 q-16 -33 -21 -67.5t-11 -69.5q-4 -29 -2 -55.5t-5 -55.5q-4 -29 -6 -56t-8 -56q-8 -41 -9 -83t-1 -83zM260 84q10 -23 28.5 -31t41.5 -8q10 0 18 1t19 3q51 4 71 47l49 88q20 35 36 70t20 76q4 31 10 62.5t16 62.5q12 33 13 65q0 27 6 51l12 111h-2q0 8 1 15.5t-3 13.5 q-4 14 -5 26.5t-1 24.5q0 10 1 19.5t-1 19.5q0 18 -4 20t-23 -2q-43 -12 -82 15q-23 -80 -46 -159t-41.5 -143.5t-32 -109.5t-17.5 -57l-31 -109q-10 -37 -22 -71.5t-23 -69.5l-8 -29v-2zM450 997.5q1 -20.5 15 -36.5l53 178l-6 8l-4 4q-6 8 -11 8t-14 -10q-4 -6 -9 -14.5 t-9 -16.5q-8 -12 -12 -24.5t0 -28.5q4 -6 2 -13.5t-4 -13.5q-2 -20 -1 -40.5zM508 924q23 -10 39 -6h18q16 0 19.5 3t-0.5 17l-9 37q-4 53 -24 96z" />
<glyph unicode="&#xd9;" horiz-adv-x="804" d="M-1 1013q-1 36 1 70q2 45 1 88t-1 89v48t4 48q0 16 8 18q10 6 13.5 21.5t23.5 11.5q14 -2 26.5 5t26.5 3q12 -2 23.5 -1t21.5 -3q27 -8 41.5 -27.5t22.5 -42.5q10 -29 11 -56.5t3 -55.5q10 -229 6 -451.5t13 -449.5q2 -31 7 -78t15 -96.5t26.5 -94.5t42 -69.5t59.5 -22.5 t81 47q55 53 82 147.5t36 201t6 212t-9 183.5q-2 4 -2 16q4 39 0 77t-6 77q0 35 -3.5 70.5t-3.5 70.5q0 29 -2 54.5t5 52.5q2 12 -3 28q-4 20 -2 41t2 41q-2 20 0.5 41t-0.5 43q-2 20 13.5 34.5t29.5 20.5q25 6 39 -22q4 -8 6.5 -15.5t4.5 -17.5q8 -59 8 -117.5v-117.5 q0 -41 -1 -84t3 -84q0 -29 3 -55.5t5 -55.5q2 -51 4 -100t6 -101q4 -47 2 -96t2 -96q2 -20 0 -38.5t-4 -37.5q-4 -23 -2 -42t0 -40v-10q-12 -29 -12 -56.5t-10 -56.5q-14 -43 -36 -95t-52.5 -99t-70.5 -81t-91 -38q-20 -2 -41 -2h-41q-80 -2 -150 37q-68 39 -104.5 105.5 t-53 146.5t-19.5 161.5t-5 151.5q-2 47 -4 91t0 91q0 20 2 40t2 40l-8 209q0 37 -1 73zM214 1656.5q5 10.5 28 6.5q6 0 12 1t12 -3q12 -8 23.5 -16.5t21.5 -20.5q29 -37 54.5 -76t54.5 -75q18 -23 -4 -46q-12 -16 -27 -4q-8 4 -16 8.5t-13 8.5q-10 10 -21 20t-22 21 q-20 25 -38.5 50t-38.5 48q-10 10 -15.5 22.5t-9.5 24.5q-6 20 -1 30.5z" />
<glyph unicode="&#xda;" horiz-adv-x="804" d="M-1 1013q-1 36 1 70q2 45 1 88t-1 89v48t4 48q0 16 8 18q10 6 13.5 21.5t23.5 11.5q14 -2 26.5 5t26.5 3q12 -2 23.5 -1t21.5 -3q27 -8 41.5 -27.5t22.5 -42.5q10 -29 11 -56.5t3 -55.5q10 -229 6 -451.5t13 -449.5q2 -31 7 -78t15 -96.5t26.5 -94.5t42 -69.5t59.5 -22.5 t81 47q55 53 82 147.5t36 201t6 212t-9 183.5q-2 4 -2 16q4 39 0 77t-6 77q0 35 -3.5 70.5t-3.5 70.5q0 29 -2 54.5t5 52.5q2 12 -3 28q-4 20 -2 41t2 41q-2 20 0.5 41t-0.5 43q-2 20 13.5 34.5t29.5 20.5q25 6 39 -22q4 -8 6.5 -15.5t4.5 -17.5q8 -59 8 -117.5v-117.5 q0 -41 -1 -84t3 -84q0 -29 3 -55.5t5 -55.5q2 -51 4 -100t6 -101q4 -47 2 -96t2 -96q2 -20 0 -38.5t-4 -37.5q-4 -23 -2 -42t0 -40v-10q-12 -29 -12 -56.5t-10 -56.5q-14 -43 -36 -95t-52.5 -99t-70.5 -81t-91 -38q-20 -2 -41 -2h-41q-80 -2 -150 37q-68 39 -104.5 105.5 t-53 146.5t-19.5 161.5t-5 151.5q-2 47 -4 91t0 91q0 20 2 40t2 40l-8 209q0 37 -1 73zM301 1466.5q0 12.5 8 22.5q29 37 53.5 76t53.5 75q10 12 21.5 20.5t23.5 16.5q6 4 12 3t12 -1q23 4 28 -6t-1 -31q-6 -27 -25 -47q-20 -23 -38.5 -48t-38.5 -50q-10 -10 -21.5 -20.5 t-21.5 -20.5q-4 -4 -12.5 -8t-14.5 -8q-16 -10 -29 4q-10 10 -10 22.5z" />
<glyph unicode="&#xdb;" horiz-adv-x="804" d="M-1 1013q-1 36 1 70q2 45 1 88t-1 89v48t4 48q0 16 8 18q10 6 13.5 21.5t23.5 11.5q14 -2 26.5 5t26.5 3q12 -2 23.5 -1t21.5 -3q27 -8 41.5 -27.5t22.5 -42.5q10 -29 11 -56.5t3 -55.5q10 -229 6 -451.5t13 -449.5q2 -31 7 -78t15 -96.5t26.5 -94.5t42 -69.5t59.5 -22.5 t81 47q55 53 82 147.5t36 201t6 212t-9 183.5q-2 4 -2 16q4 39 0 77t-6 77q0 35 -3.5 70.5t-3.5 70.5q0 29 -2 54.5t5 52.5q2 12 -3 28q-4 20 -2 41t2 41q-2 20 0.5 41t-0.5 43q-2 20 13.5 34.5t29.5 20.5q25 6 39 -22q4 -8 6.5 -15.5t4.5 -17.5q8 -59 8 -117.5v-117.5 q0 -41 -1 -84t3 -84q0 -29 3 -55.5t5 -55.5q2 -51 4 -100t6 -101q4 -47 2 -96t2 -96q2 -20 0 -38.5t-4 -37.5q-4 -23 -2 -42t0 -40v-10q-12 -29 -12 -56.5t-10 -56.5q-14 -43 -36 -95t-52.5 -99t-70.5 -81t-91 -38q-20 -2 -41 -2h-41q-80 -2 -150 37q-68 39 -104.5 105.5 t-53 146.5t-19.5 161.5t-5 151.5q-2 47 -4 91t0 91q0 20 2 40t2 40l-8 209q0 37 -1 73zM229 1430q-8 10 4 26q14 23 28.5 43.5t31.5 42.5q10 14 19.5 27.5t19.5 27.5l10 15q31 31 64 8q10 -6 17 -19.5t13 -27.5l23 -55l28 -62q8 -18 4.5 -24.5t-26.5 -8.5q-33 0 -45 31 l-21 59l-12 29q-8 16 -20 2l-74 -98q-6 -10 -13.5 -17.5t-17.5 -11.5q-20 -4 -33 13z" />
<glyph unicode="&#xdc;" horiz-adv-x="804" d="M-1 1013q-1 36 1 70q2 45 1 88t-1 89v48t4 48q0 16 8 18q10 6 13.5 21.5t23.5 11.5q14 -2 26.5 5t26.5 3q12 -2 23.5 -1t21.5 -3q27 -8 41.5 -27.5t22.5 -42.5q10 -29 11 -56.5t3 -55.5q10 -229 6 -451.5t13 -449.5q2 -31 7 -78t15 -96.5t26.5 -94.5t42 -69.5t59.5 -22.5 t81 47q55 53 82 147.5t36 201t6 212t-9 183.5q-2 4 -2 16q4 39 0 77t-6 77q0 35 -3.5 70.5t-3.5 70.5q0 29 -2 54.5t5 52.5q2 12 -3 28q-4 20 -2 41t2 41q-2 20 0.5 41t-0.5 43q-2 20 13.5 34.5t29.5 20.5q25 6 39 -22q4 -8 6.5 -15.5t4.5 -17.5q8 -59 8 -117.5v-117.5 q0 -41 -1 -84t3 -84q0 -29 3 -55.5t5 -55.5q2 -51 4 -100t6 -101q4 -47 2 -96t2 -96q2 -20 0 -38.5t-4 -37.5q-4 -23 -2 -42t0 -40v-10q-12 -29 -12 -56.5t-10 -56.5q-14 -43 -36 -95t-52.5 -99t-70.5 -81t-91 -38q-20 -2 -41 -2h-41q-80 -2 -150 37q-68 39 -104.5 105.5 t-53 146.5t-19.5 161.5t-5 151.5q-2 47 -4 91t0 91q0 20 2 40t2 40l-8 209q0 37 -1 73zM248 1491q0 23 18.5 44t40.5 21q18 0 35.5 -19t19.5 -42t-14 -43t-39 -18t-42 18t-19 39zM410 1491q0 23 18 44t41 21q18 0 35.5 -19t19.5 -42t-14 -43t-39 -18t-42 18t-19 39z" />
</font>
</defs>
</svg>
