<?xml version="1.0" encoding="UTF-8"?>
<svg width="12px" height="12px" viewBox="0 0 12 12" version="1.1" xmlns="http://www.w3.org/2000/svg" xmlns:xlink="http://www.w3.org/1999/xlink">
    <!-- Generator: Sketch 45.2 (43514) - http://www.bohemiancoding.com/sketch -->
    <title>delete-cross</title>
    <desc>Created with Sketch.</desc>
    <defs></defs>
    <g id="Page-1" stroke="none" stroke-width="1" fill="none" fill-rule="evenodd">
        <g id="1-compra" transform="translate(-349.000000, -560.000000)" fill-rule="nonzero" fill="#D80027">
            <g id="Group-15" transform="translate(133.000000, 477.000000)">
                <g id="delete-cross" transform="translate(216.000000, 83.000000)">
                    <path d="M0.102371246,11.4762276 C0.170590797,11.5444192 0.25999446,11.5785429 0.349398123,11.5785429 C0.438801786,11.5785429 0.528205449,11.5444192 0.596424999,11.4762276 L5.7892994,6.28332521 L10.9822018,11.4762555 C11.0503934,11.5444471 11.1398529,11.5785709 11.2292566,11.5785709 C11.3186323,11.5785709 11.408036,11.5444471 11.4762835,11.4762555 C11.6126946,11.3398444 11.6126946,11.1186409 11.4762835,10.9821738 L6.28335316,5.78927146 L11.4762835,0.596369104 C11.6126946,0.459930004 11.6126946,0.238754452 11.4762835,0.102315352 C11.3398444,-0.0341237488 11.1186688,-0.0341237488 10.9822018,0.102315352 L5.7892994,5.2952177 L0.596397052,0.102371246 C0.459957951,-0.0340678541 0.2387824,-0.0340678541 0.102343299,0.102371246 C-0.0340958015,0.2387824 -0.0340958015,0.459985898 0.102343299,0.596424999 L5.29524565,5.7892994 L0.102371246,10.9821738 C-0.0340678541,11.1186129 -0.0340678541,11.3398164 0.102371246,11.4762276 Z" id="Shape"></path>
                </g>
            </g>
        </g>
    </g>
</svg>